<?xml version="1.0" standalone="no"?>
<!DOCTYPE svg PUBLIC "-//W3C//DTD SVG 1.1//EN" "http://www.w3.org/Graphics/SVG/1.1/DTD/svg11.dtd" >
<svg xmlns="http://www.w3.org/2000/svg" xmlns:xlink="http://www.w3.org/1999/xlink" version="1.1">
<metadata>
Created by FontForge 20170731 at Sat Jun 25 08:17:21 2022
 By Aleksey,,,
Copyright 2013 The Exo 2 Project Authors (https://github.com/NDISCOVER/Exo-2.0)
</metadata>
<defs>
<font id="Exo2-SemiBold" horiz-adv-x="580" >
  <font-face 
    font-family="Exo 2 SemiBold"
    font-weight="600"
    font-stretch="normal"
    units-per-em="1000"
    panose-1="0 0 0 0 0 0 0 0 0 0"
    ascent="800"
    descent="-200"
    x-height="491"
    cap-height="690"
    bbox="-358 -237.895 1037 941"
    underline-thickness="50"
    underline-position="-150"
    unicode-range="U+000D-04FF"
  />
<missing-glyph horiz-adv-x="604" 
 />
    <glyph glyph-name="f_f.liga" unicode="ff" horiz-adv-x="737" 
d="M262 707q16 0 40.5 -1t50 -3t43.5 -5l-10 -81h-82q-42 0 -59 -15t-17 -59v-543h-119v559q1 45 17 78.5t49.5 51.5t86.5 18zM606 719q17 0 44.5 -1t56.5 -2.5t50 -5.5l-11 -81h-98q-42 0 -58.5 -17t-16.5 -57v-555h-120v570q0 47 15 80t48.5 51t89.5 18zM719 491v-84h-697
v79l91 5h606z" />
    <glyph glyph-name="f_f_i.liga" unicode="ffi" horiz-adv-x="978" 
d="M257 707q16 0 40 -1t50 -3t44 -5l-11 -81h-81q-42 0 -59 -15t-17 -59v-543h-119v559q1 45 17 78.5t49.5 51.5t86.5 18zM793 491v-84h-771v79l91 5h680zM602 719q24 0 61 -2t65 -7v-81h-83q-44 0 -61 -18t-17 -63v-548h-119v563q0 49 15 83.5t48.5 53.5t90.5 19zM907 491
v-491h-121v491h121zM873 707q36 0 36 -36v-56q0 -36 -36 -36h-54q-36 0 -36 36v56q0 36 36 36h54z" />
    <glyph glyph-name="f_f_l.liga" unicode="ffl" horiz-adv-x="1044" 
d="M262 707q16 0 40.5 -1t50 -3t43.5 -5l-10 -81h-82q-42 0 -59 -15t-17 -59v-543h-119v559q1 45 17 78.5t49.5 51.5t86.5 18zM606 719h43.5t64.5 -1t74.5 -2.5t73.5 -4.5t61 -7v-563q0 -29 15 -43.5t44 -14.5h41l14 -77q-10 -5 -29.5 -9t-40 -5.5t-34.5 -1.5q-61 0 -96 32
t-35 89v519h-155q-40 1 -57 -17t-17 -65v-548h-120v563q0 49 15 84t48.5 54t89.5 18zM710 491v-84h-688v79l91 5h597z" />
    <glyph glyph-name="f_i.liga" unicode="fi" horiz-adv-x="641" 
d="M263 719q23 0 60 -2t64 -7v-81h-81q-42 0 -59 -18t-17 -63v-548h-121v563q0 49 15 83.5t48.5 53.5t90.5 19zM456 491v-84h-434v79l91 5h343zM569 491v-491h-121v491h121zM535 707q37 0 37 -36v-56q0 -36 -37 -36h-53q-36 0 -36 36v56q0 36 36 36h53z" />
    <glyph glyph-name="f_l.liga" unicode="fl" horiz-adv-x="698" 
d="M261 719h43.5t64.5 -1t74.5 -2.5t73.5 -4.5t61 -7v-563q0 -29 15 -43.5t44 -14.5h41l14 -77q-10 -5 -29.5 -9t-40 -5.5t-34.5 -1.5q-61 0 -96 32t-35 89v519h-153q-42 1 -58 -17t-16 -65v-548h-122v563q0 49 15 84t48.5 54t89.5 18zM363 491v-84h-341v79l89 5h252z" />
    <glyph glyph-name=".notdef" horiz-adv-x="604" 
 />
    <glyph glyph-name=".null" horiz-adv-x="0" 
 />
    <glyph glyph-name="uni000D" unicode="&#xd;" horiz-adv-x="219" 
 />
    <glyph glyph-name="space" unicode=" " horiz-adv-x="219" 
 />
    <glyph glyph-name="exclam" unicode="!" horiz-adv-x="289" 
d="M205 695v-285l-12 -194h-96l-13 194v285h121zM160 137q24 0 33.5 -9.5t9.5 -33.5v-50q0 -25 -9.5 -34.5t-33.5 -9.5h-30q-24 0 -33.5 9.5t-9.5 34.5v50q0 24 9.5 33.5t33.5 9.5h30z" />
    <glyph glyph-name="quotedbl" unicode="&#x22;" horiz-adv-x="365" 
d="M305 690l-7 -219h-76l-8 219h91zM151 690l-7 -219h-77l-7 219h91z" />
    <glyph glyph-name="numbersign" unicode="#" horiz-adv-x="701" 
d="M332 690l-120 -690h-93l120 690h93zM583 690l-120 -690h-93l120 690h93zM663 510l-15 -75h-568l14 75h569zM621 278l-15 -74h-568l14 74h569z" />
    <glyph glyph-name="dollar" unicode="$" horiz-adv-x="573" 
d="M289 703q50 -1 106 -6t110 -19l-8 -85q-43 1 -98.5 2.5t-108.5 1.5q-31 0 -53.5 -2t-36.5 -10t-20 -24.5t-6 -45.5q0 -45 18.5 -64t61.5 -30l133 -40q81 -25 112 -72.5t31 -126.5q0 -59 -13.5 -97t-42.5 -59t-75.5 -30t-112.5 -9q-34 0 -92.5 4t-135.5 20l8 91
q59 -1 98.5 -2.5t68.5 -1.5h54q45 0 71 6.5t36.5 24t10.5 53.5q0 31 -8 48.5t-24 27.5t-44 17l-139 43q-76 24 -108 71t-32 126q0 59 13.5 96.5t43 57t75 27t107.5 7.5zM262 356l47 -2l-39 -476h-48zM359 796l-39 -442l-49 2l40 440h48z" />
    <glyph glyph-name="percent" unicode="%" horiz-adv-x="902" 
d="M206 703q62 0 99 -20t52.5 -64.5t15.5 -120.5q0 -75 -15.5 -120t-52.5 -65t-99 -20q-61 0 -98 20t-52.5 65t-15.5 120q0 76 15.5 120.5t52.5 64.5t98 20zM206 633q-29 0 -45.5 -11.5t-23.5 -41t-7 -82.5t7 -82.5t23.5 -41t45.5 -11.5q30 0 46.5 11.5t23 41t6.5 82.5
t-6.5 82.5t-23 41t-46.5 11.5zM703 690l-428 -690h-79l428 690h79zM695 399q62 0 98.5 -20t52.5 -64.5t16 -119.5t-16 -120.5t-52.5 -65t-98.5 -19.5q-61 0 -98 19.5t-52.5 65t-15.5 120.5t15.5 119.5t52.5 64.5t98 20zM694 330q-29 0 -45.5 -11.5t-23 -41t-6.5 -82.5
t6.5 -83t23 -41.5t45.5 -11.5q30 0 46.5 11.5t23.5 41.5t7 83t-7 82.5t-23.5 41t-46.5 11.5z" />
    <glyph glyph-name="ampersand" unicode="&#x26;" horiz-adv-x="769" 
d="M344 701q32 0 74 -1.5t87 -9.5l-14 -87q-12 1 -29 1.5t-38 1t-42.5 0.5h-41.5q-51 0 -80.5 -7.5t-42 -29.5t-12.5 -67q0 -41 10 -63.5t34.5 -31t65.5 -8.5h394l-1 -85h-399q-45 0 -71.5 -10.5t-37.5 -35t-11 -70.5q0 -42 9.5 -65.5t33.5 -33t65 -9.5q62 1 111 18.5
t85 52.5l14 -70q-31 -38 -65 -60.5t-77 -32t-101 -9.5q-73 0 -118.5 17.5t-66.5 58t-21 110.5q0 79 29.5 126.5t105.5 54.5v4q-62 6 -88.5 46t-26.5 115q0 60 15 96t47.5 54t82.5 24t121 6zM594 516v-370q0 -31 13 -44t42 -13h67l14 -83q-16 -5 -38.5 -9t-44 -5.5
t-36.5 -1.5q-63 0 -97 32t-34 89v250l12 155h102z" />
    <glyph glyph-name="quotesingle" unicode="'" horiz-adv-x="210" 
d="M151 690l-7 -219h-77l-7 219h91z" />
    <glyph glyph-name="parenleft" unicode="(" horiz-adv-x="363" 
d="M324 790l15 -55q-94 -43 -135 -150t-41 -272q0 -108 18 -192t56.5 -142t101.5 -89l-15 -55q-144 50 -211 165.5t-67 311.5q0 197 67 313t211 165z" />
    <glyph glyph-name="parenright" unicode=")" horiz-adv-x="363" 
d="M39 790q144 -49 211.5 -165t67.5 -313q0 -196 -67.5 -311.5t-211.5 -165.5l-15 55q63 31 101.5 89t56 142t17.5 192q0 165 -40.5 272t-134.5 150z" />
    <glyph glyph-name="asterisk" unicode="*" horiz-adv-x="452" 
d="M261 691l-11 -165l104 -129l-55 -40l-73 122l-73 -121l-56 40l104 128l-10 165h70zM67 607l117 -47v-30l-16 -19l-123 31zM385 607l22 -66l-123 -30l-16 19v30z" />
    <glyph glyph-name="plus" unicode="+" horiz-adv-x="543" 
d="M495 345v-90h-448v90h448zM317 516l-1 -432h-90v432h91z" />
    <glyph glyph-name="comma" unicode="," horiz-adv-x="236" 
d="M133 137q24 0 33 -9.5t10 -33.5v-64q0 -35 -5.5 -64.5t-15.5 -55.5t-24 -51l-51 16q7 32 10 60.5t3 64.5q-34 0 -35 38l1 56q1 24 11 33.5t33 9.5h30z" />
    <glyph glyph-name="hyphen" unicode="-" horiz-adv-x="429" 
d="M365 295v-82h-301v82h301z" />
    <glyph glyph-name="period" unicode="." horiz-adv-x="238" 
d="M135 137q25 0 34.5 -9.5t9.5 -33.5v-50q0 -25 -9.5 -34.5t-34.5 -9.5h-33q-24 0 -34 9.5t-10 34.5v50q0 24 10 33.5t34 9.5h33z" />
    <glyph glyph-name="slash" unicode="/" horiz-adv-x="538" 
d="M514 690l-393 -760h-97l393 760h97z" />
    <glyph glyph-name="zero" unicode="0" horiz-adv-x="619" 
d="M309 703q95 0 150.5 -35.5t80 -114.5t24.5 -208t-24.5 -208t-80 -114.5t-150.5 -35.5q-94 0 -149.5 35.5t-80 114.5t-24.5 208t24.5 208t80 114.5t149.5 35.5zM309 602q-38 0 -63 -13t-40 -42t-21 -78.5t-6 -123.5q0 -73 6 -123t21 -79t40 -42t63 -13q37 0 63 13t41 42
t21 79t6 123q0 74 -6 123.5t-21 78.5t-41 42t-63 13z" />
    <glyph glyph-name="one" unicode="1" horiz-adv-x="418" 
d="M317 690v-690h-125v514q0 17 1.5 34t4.5 34l-166 -46l-16 84l176 70h125z" />
    <glyph glyph-name="two" unicode="2" horiz-adv-x="573" 
d="M279 702q69 0 119 -12t77.5 -45.5t27.5 -98.5q0 -41 -10 -76t-36 -73.5t-72 -87.5l-188 -202q25 4 52.5 5t53.5 1h222v-113h-476v70q0 16 4 28.5t14 23.5l183 202q63 67 95 118.5t31 92.5q-1 27 -14 39.5t-37 16.5t-59 4q-33 0 -63 -1t-63.5 -3.5t-78.5 -7.5l-6 94
q48 11 86 16t71 7t67 2z" />
    <glyph glyph-name="three" unicode="3" horiz-adv-x="562" 
d="M266 703q80 0 128 -14.5t70.5 -49.5t22.5 -96q0 -46 -9 -82.5t-31.5 -60t-64.5 -31.5v-4q70 -11 96 -55t27 -118q1 -71 -21 -116.5t-72.5 -67t-136.5 -21.5q-57 0 -116 5.5t-114 12.5l6 94q38 -2 69.5 -4t61 -3t60.5 -1q52 0 82.5 10t44 36t13.5 70q0 35 -9.5 59.5
t-35 38t-75.5 12.5h-129v87h129q36 0 57.5 9t32 23.5t14 34t3.5 40.5q-1 38 -12 57t-37.5 25.5t-73.5 6.5q-51 0 -98 -1.5t-83 -4.5l-7 91q54 9 105.5 13.5t102.5 4.5z" />
    <glyph glyph-name="four" unicode="4" horiz-adv-x="628" 
d="M345 690l-178 -402q-7 -17 0.5 -26.5t22.5 -9.5h402v-79l-88 -12h-398q-28 0 -47.5 15.5t-25.5 40t5 49.5l187 424h120zM505 557v-557h-116v445l21 112h95z" />
    <glyph glyph-name="five" unicode="5" horiz-adv-x="545" 
d="M477 690l-5 -98h-288l-9 -155l90 -9q65 -5 109.5 -21t72 -43t39.5 -65.5t12 -89.5q0 -43 -10 -83t-35.5 -71t-71 -49t-117.5 -18q-45 0 -102.5 5.5t-117.5 17.5l12 97q48 -6 95 -10.5t82 -4.5q58 0 88 13.5t41 40t12 65.5q2 39 -8.5 62t-33 35t-60.5 17t-92 8l-69 7
q-19 3 -30.5 16t-10.5 32l17 301h390z" />
    <glyph glyph-name="six" unicode="6" horiz-adv-x="582" 
d="M338 702q23 0 65 -2t88 -15l-8 -83q-24 2 -44.5 2.5t-43.5 0.5h-57q-47 0 -78 -10t-49 -39t-25 -84.5t-7 -145.5q0 -72 3.5 -119t15.5 -73.5t37.5 -37.5t68.5 -11q52 0 76 16t31 48t7 79q0 50 -9 78.5t-33 41t-69 12.5q-30 0 -55.5 -7.5t-53 -25.5t-66.5 -51l-4 52
q34 48 64 75t65.5 38t84.5 11q75 0 117.5 -22t59.5 -70.5t17 -129.5q0 -58 -9 -103t-34 -76t-70.5 -47t-119.5 -16t-122.5 16t-75 55t-37.5 105.5t-11 166.5q0 121 17.5 194.5t52 111.5t87.5 51.5t124 13.5z" />
    <glyph glyph-name="seven" unicode="7" horiz-adv-x="521" 
d="M437 690q23 0 38 -9.5t19.5 -25.5t-2.5 -38l-213 -617h-123l184 528q5 15 11 30t15 29h-329l-5 103h405z" />
    <glyph glyph-name="eight" unicode="8" horiz-adv-x="616" 
d="M309 701q71 0 116 -11t70.5 -33t35.5 -56.5t10 -82.5q0 -42 -10.5 -76.5t-32.5 -56t-58 -25.5v-4q46 -4 71.5 -28.5t35.5 -64.5t10 -91q0 -65 -20.5 -105.5t-74 -59t-153.5 -18.5q-99 0 -153 18.5t-75 59t-21 105.5q0 51 10 91t36 64.5t71 28.5v4q-36 4 -58.5 25.5
t-32.5 56t-10 76.5q0 48 10 82.5t36 56.5t71 33t116 11zM311 314q-41 0 -67 -5.5t-40.5 -18t-20.5 -35.5t-6 -59q0 -41 11 -65.5t40 -34t82 -9.5q52 0 80 9.5t38 34t10 65.5q0 37 -5.5 60t-19.5 35.5t-38.5 17.5t-63.5 5zM310 610q-49 0 -75 -9.5t-36 -32.5t-10 -64
t10 -63.5t36.5 -30.5t75.5 -8q50 0 75 8.5t33.5 30.5t8.5 63t-9 64t-34.5 32.5t-74.5 9.5z" />
    <glyph glyph-name="nine" unicode="9" horiz-adv-x="582" 
d="M282 702q77 0 125 -17t73 -56.5t34 -107t9 -169.5q0 -116 -15.5 -188t-48.5 -110.5t-86.5 -52t-129.5 -13.5q-25 0 -69 2.5t-96 14.5l8 84q27 -2 48 -2.5t46 -0.5h63q48 0 79 11.5t48.5 41t25 83t7.5 136.5q0 74 -3 122t-14.5 75.5t-36 38.5t-69.5 11q-49 0 -73.5 -16
t-33 -48t-8.5 -81q0 -44 9 -73t33 -43.5t67 -14.5q30 0 55 8t52.5 26.5t65.5 50.5l4 -52q-32 -48 -62.5 -75t-65.5 -38t-84 -11q-74 0 -116 28.5t-59 78.5t-17 114q0 83 21 136.5t72.5 80t141.5 26.5z" />
    <glyph glyph-name="colon" unicode=":" horiz-adv-x="248" 
d="M136 446q25 0 34.5 -9.5t9.5 -33.5v-50q0 -25 -9.5 -34.5t-34.5 -9.5h-33q-24 0 -34 9.5t-10 34.5v50q0 24 10 33.5t34 9.5h33zM136 137q25 0 34.5 -9.5t9.5 -33.5v-50q0 -25 -9.5 -34.5t-34.5 -9.5h-33q-24 0 -34 9.5t-10 34.5v50q0 24 10 33.5t34 9.5h33z" />
    <glyph glyph-name="semicolon" unicode=";" horiz-adv-x="249" 
d="M141 446q25 0 34.5 -9.5t9.5 -33.5v-50q0 -25 -9.5 -34.5t-34.5 -9.5h-33q-24 0 -34 9.5t-10 34.5v50q0 24 10 33.5t34 9.5h33zM139 137q24 0 33 -9.5t10 -33.5v-64q0 -35 -5.5 -64.5t-15.5 -55.5t-24 -51l-51 16q7 32 10 60.5t3 64.5q-34 0 -35 38l1 56q1 24 11 33.5
t33 9.5h30z" />
    <glyph glyph-name="less" unicode="&#x3c;" horiz-adv-x="523" 
d="M460 516v-95l-311 -122l311 -119v-95l-415 167v95z" />
    <glyph glyph-name="equal" unicode="=" horiz-adv-x="581" 
d="M516 445v-87h-450v87h450zM516 233v-88h-450v88h450z" />
    <glyph glyph-name="greater" unicode="&#x3e;" horiz-adv-x="522" 
d="M63 516l414 -169v-95l-414 -167v95l310 119l-310 122v95z" />
    <glyph glyph-name="question" unicode="?" horiz-adv-x="514" 
d="M268 712q105 0 157 -37.5t52 -117.5q0 -44 -17.5 -76.5t-43.5 -59t-52.5 -54.5t-46 -64t-22.5 -87h-99q-2 53 12.5 93t37.5 70t46 55t39 48.5t18 51.5q3 41 -23.5 60t-85.5 19q-49 0 -81 -1t-58 -2.5t-61 -3.5l-5 83q28 5 50 9t46.5 7.5t57 5t79.5 1.5zM260 137
q24 0 33.5 -9.5t9.5 -33.5v-50q0 -25 -9.5 -34.5t-33.5 -9.5h-29q-24 0 -33.5 9.5t-9.5 34.5v50q0 24 9.5 33.5t33.5 9.5h29z" />
    <glyph glyph-name="at" unicode="@" horiz-adv-x="742" 
d="M514 594q79 0 122 -35t43 -120v-305h-90l-10 71q-18 -18 -46 -37t-64 -31.5t-77 -12.5q-40 0 -71 14t-49 41t-18 67v49q0 50 32 78.5t92 28.5h188v35q0 35 -15.5 50t-59.5 15h-125q-63 0 -100.5 -5t-56.5 -27t-25.5 -70t-6.5 -133q0 -70 4.5 -115.5t17.5 -70.5t38 -36
t66 -13.5t101 -2.5h273v-82q-68 -5 -136 -8t-136 -3q-92 -1 -153.5 6t-99 26t-56.5 55.5t-25 96.5t-6 147q0 86 5 144.5t22 94.5t50.5 55t87.5 26t136 7h148zM566 340l-146 -4q-30 -1 -43 -12.5t-13 -36.5v-22q0 -29 15 -42t43 -13q24 0 50 6.5t50.5 18t43.5 28.5v77z" />
    <glyph glyph-name="A" unicode="A" horiz-adv-x="640" 
d="M381 690q16 0 28 -9t17 -24l209 -657h-128l-158 532l-8 32t-7 31h-28q-3 -15 -7 -31t-9 -32l-157 -532h-128l209 657q4 15 16.5 24t28.5 9h122zM497 295v-98h-355v98h355z" />
    <glyph glyph-name="B" unicode="B" horiz-adv-x="632" 
d="M322 698q88 0 140.5 -15.5t75.5 -54.5t23 -110q0 -74 -28 -113t-92 -45v-4q79 -7 110.5 -54t31.5 -130q0 -71 -23.5 -110t-74 -54.5t-131.5 -15.5q-63 0 -110 0.5t-86 2.5t-81 5l14 91q24 -1 89 -2t153 -1q47 0 74 8.5t38.5 32t11.5 66.5q0 48 -12 73.5t-39.5 36
t-77.5 10.5h-238v85h237q43 0 67.5 8.5t35.5 30.5t11 63t-11.5 63t-38.5 29.5t-75 7.5h-94t-73 -0.5t-58 -2.5l-14 91q38 4 72.5 5.5t76 2t96.5 0.5zM199 690v-690h-122v690h122z" />
    <glyph glyph-name="C" unicode="C" 
d="M336 702q47 0 80 -2.5t61 -7t58 -12.5l-11 -93q-31 2 -58 3.5t-57.5 2.5t-72.5 1q-58 0 -91 -23t-46.5 -77t-13.5 -149t13.5 -149t46.5 -77t91 -23q67 0 112.5 2.5t89.5 7.5l11 -92q-45 -14 -93 -20t-120 -6q-104 0 -166 34.5t-89.5 112.5t-27.5 210t27.5 210t89.5 112.5
t166 34.5z" />
    <glyph glyph-name="D" unicode="D" horiz-adv-x="675" 
d="M337 699q78 0 132.5 -17.5t88 -58t48.5 -109t15 -169.5t-15 -169.5t-48.5 -109t-88 -58t-132.5 -17.5q-75 0 -139 2.5t-121 6.5l52 96q40 -2 92 -3.5t116 -1.5q58 0 91.5 22.5t47.5 78t14 153.5t-14 153.5t-47.5 78.5t-91.5 23q-62 0 -110.5 -1t-94.5 -1l-55 92
q57 4 120.5 6.5t139.5 2.5zM202 690v-690h-125v690h125z" />
    <glyph glyph-name="E" unicode="E" horiz-adv-x="570" 
d="M213 692h106.5t107.5 -2t100 -6l-6 -93h-270q-28 0 -41.5 -14t-13.5 -44v-376q0 -30 13.5 -44t41.5 -14h270l6 -93q-47 -4 -100 -5.5t-107.5 -2t-106.5 -0.5q-64 0 -102.5 35.5t-39.5 95.5v432q1 60 39.5 95.5t102.5 35.5zM89 407h394v-92h-394v92z" />
    <glyph glyph-name="F" unicode="F" horiz-adv-x="549" 
d="M217 692q51 0 103.5 -0.5t104 -2t95.5 -6.5l-6 -92h-254q-30 0 -45 -14t-15 -44v-533h-125v558q0 63 39 98.5t103 35.5zM92 396h384v-92h-384v92z" />
    <glyph glyph-name="G" unicode="G" horiz-adv-x="640" 
d="M352 703q41 0 76.5 -2t67.5 -7t63 -14l-11 -92q-33 2 -65 3.5t-63.5 2t-63.5 0.5q-48 0 -81 -9.5t-52.5 -36.5t-28.5 -77t-9 -129q0 -93 12.5 -146.5t41.5 -77t78 -23.5q33 0 61 8t51.5 21.5t44.5 27.5l15 -65q-16 -20 -46.5 -43.5t-72.5 -40t-95 -16.5
q-78 0 -127.5 37.5t-72 117t-22.5 204.5q0 136 29 214t94.5 110.5t175.5 32.5zM581 398v-398h-92l-18 103l-12 25v270h122z" />
    <glyph glyph-name="H" unicode="H" horiz-adv-x="681" 
d="M202 690v-690h-125v690h125zM490 417v-98h-296v98h296zM604 690v-690h-125v690h125z" />
    <glyph glyph-name="I" unicode="I" horiz-adv-x="279" 
d="M202 690v-690h-125v690h125z" />
    <glyph glyph-name="J" unicode="J" horiz-adv-x="359" 
d="M284 690v-550q0 -74 -38.5 -112t-109.5 -38q-15 0 -37 1.5t-42 5.5t-33 9l14 84h49q73 0 73 64v536h124z" />
    <glyph glyph-name="K" unicode="K" horiz-adv-x="616" 
d="M592 690l-189 -281q-10 -16 -21 -27.5t-24 -21.5v-3q14 -10 28 -24t23 -30l196 -303h-140l-227 361l218 329h136zM202 690v-204q0 -32 -4.5 -63t-13.5 -62q7 -29 12.5 -59.5t5.5 -58.5v-243h-125v690h125zM290 405v-91h-128v91h128z" />
    <glyph glyph-name="L" unicode="L" horiz-adv-x="526" 
d="M199 690v-530q0 -29 15.5 -43.5t44.5 -14.5h244l6 -95q-68 -6 -141.5 -7.5t-145.5 -1.5q-76 0 -111.5 39t-35.5 99v554h124z" />
    <glyph glyph-name="M" unicode="M" horiz-adv-x="899" 
d="M760 690q47 0 48 -48l27 -642h-119l-24 591h-19l-129 -463q-9 -41 -51 -41h-88q-43 0 -53 41l-129 463h-19l-22 -591h-119l27 642q2 48 48 48h125q40 0 50 -41l106 -378q7 -24 11.5 -48t10.5 -48h15q6 24 11 48t11 49l106 377q9 41 51 41h125z" />
    <glyph glyph-name="N" unicode="N" horiz-adv-x="715" 
d="M638 690v-643q0 -47 -46 -47h-85q-21 0 -32 9.5t-20 28.5l-209 416q-10 22 -22 48.5t-19 50.5h-13q2 -25 3.5 -50.5t1.5 -50.5v-452h-120v643q0 47 46 47h83q21 0 32 -9.5t20 -28.5l203 -405q12 -22 24.5 -49.5t23.5 -55.5h15q-2 29 -3.5 56.5t-1.5 54.5v437h119z" />
    <glyph glyph-name="O" unicode="O" horiz-adv-x="679" 
d="M339 703q80 0 135 -17.5t88.5 -58.5t48.5 -110t15 -172q0 -102 -15 -171.5t-48.5 -110.5t-88.5 -58.5t-135 -17.5q-78 0 -133 17.5t-89 58.5t-49 110.5t-15 171.5q0 103 15 172t49 110t89 58.5t133 17.5zM339 601q-59 0 -92.5 -23.5t-47.5 -79t-14 -153.5t14 -153.5
t47.5 -79t92.5 -23.5q60 0 93.5 23.5t47.5 79t14 153.5t-14 153.5t-47.5 79t-93.5 23.5z" />
    <glyph glyph-name="P" unicode="P" horiz-adv-x="606" 
d="M330 699q91 0 143 -19.5t74.5 -67t22.5 -134.5t-21.5 -135t-71 -67t-131.5 -19q-45 0 -86.5 3t-77 8t-60.5 10.5t-35 9.5l3 67h117.5h120.5q44 1 69.5 11t36 36.5t10.5 75.5t-10.5 75.5t-36 37t-69.5 10.5q-88 0 -151 -1t-86 -3l-14 93q40 4 75.5 6t77 2.5t100.5 0.5z
M202 690v-690h-125v690h125z" />
    <glyph glyph-name="Q" unicode="Q" horiz-adv-x="680" 
d="M340 703q79 0 134 -17.5t88.5 -58.5t49 -110t15.5 -172q0 -102 -15.5 -171.5t-49 -110.5t-88.5 -58.5t-134 -17.5t-134 17.5t-88.5 58.5t-49 110.5t-15.5 171.5q0 103 15.5 172t49 110t88.5 58.5t134 17.5zM294 -38q64 -26 133.5 -42.5t150.5 -28.5l-36 -113
q-85 19 -154.5 50.5t-124.5 65.5zM340 601q-59 0 -93 -23.5t-48 -79t-14 -153.5t14 -153.5t48 -79t93 -23.5t92.5 23.5t48 79t14.5 153.5t-14.5 153.5t-48 79t-92.5 23.5z" />
    <glyph glyph-name="R" unicode="R" horiz-adv-x="635" 
d="M331 699q86 0 139.5 -18t78 -61.5t24.5 -122.5q0 -52 -12.5 -88.5t-41 -58t-76.5 -27.5v-5q17 -4 35.5 -15.5t34 -32.5t23.5 -54l63 -216h-132l-57 213q-11 36 -30 50.5t-52 14.5q-65 0 -111 0.5t-76.5 1.5t-53.5 1l3 95h238q45 1 71 10.5t37 34t11 69.5q0 44 -11 68
t-37 33.5t-71 9.5q-88 0 -151 -1t-86 -2l-14 92q40 4 75.5 6t77.5 2.5t101 0.5zM200 690v-690h-123v690h123z" />
    <glyph glyph-name="S" unicode="S" horiz-adv-x="575" 
d="M289 703q51 -1 107.5 -6t110.5 -19l-8 -85q-43 1 -99.5 2.5t-108.5 1.5q-32 0 -54.5 -2t-36.5 -10t-20.5 -24.5t-6.5 -45.5q0 -45 18.5 -64t60.5 -30l136 -40q82 -25 113 -72.5t31 -126.5q0 -59 -14 -97t-43 -59t-76 -30t-113 -9q-34 0 -93.5 4t-135.5 20l8 90
q59 -2 99 -3.5t69 -1.5h54q46 0 72 6t36.5 25t10.5 55q0 31 -7.5 48.5t-24.5 27.5t-44 17l-141 43q-78 24 -109.5 71t-31.5 126q0 59 14 96.5t43 57t74.5 27t109.5 7.5z" />
    <glyph glyph-name="T" unicode="T" horiz-adv-x="593" 
d="M359 690v-690h-125v690h125zM573 690v-102h-553v102h553z" />
    <glyph glyph-name="U" unicode="U" horiz-adv-x="677" 
d="M605 690v-420q0 -103 -25 -165t-82 -90t-153 -28q-100 0 -160 28t-86.5 90t-26.5 165v420h125v-420q0 -68 13.5 -108t44.5 -56.5t84 -16.5t83.5 16.5t44 56.5t13.5 108v420h125z" />
    <glyph glyph-name="V" unicode="V" horiz-adv-x="627" 
d="M615 690l-197 -655q-5 -15 -17 -25t-29 -10h-118q-17 0 -29 10t-16 25l-197 655h129l141 -519l10 -38t8 -38h26q5 19 9.5 38.5t9.5 38.5l141 518h129z" />
    <glyph glyph-name="W" unicode="W" horiz-adv-x="964" 
d="M936 690l-124 -655q-4 -15 -16.5 -25t-30.5 -10h-124q-17 0 -30 10t-15 26l-91 479q-4 22 -7 43l-6 42h-20q-3 -21 -6.5 -42.5t-6.5 -42.5l-90 -479q-3 -16 -16 -26t-30 -10h-125q-18 0 -30.5 10t-15.5 25l-124 655h128l87 -505q3 -20 5.5 -44t5.5 -49h21q4 23 8 47.5
t8 46.5l89 465q2 18 15 28.5t30 10.5h113q18 0 30 -10.5t16 -28.5l89 -466q5 -23 8.5 -47t6.5 -46h22q2 23 5 47t6 45l87 506h128z" />
    <glyph glyph-name="X" unicode="X" horiz-adv-x="630" 
d="M600 690l-174 -334l188 -356h-131l-179 356l167 334h129zM159 690l167 -334l-179 -356h-131l188 356l-174 334h129zM380 398v-83h-136v83h136z" />
    <glyph glyph-name="Y" unicode="Y" horiz-adv-x="594" 
d="M588 690l-233 -464h-116l-234 464h131l128 -270q9 -19 15.5 -41t13.5 -42h8q6 20 13 42t15 41l128 270h131zM359 305v-305h-125v305h125z" />
    <glyph glyph-name="Z" unicode="Z" horiz-adv-x="577" 
d="M391 594l137 -1l-347 -497l-138 1zM536 97v-97h-493v97h493zM528 690v-97h-478v97h478z" />
    <glyph glyph-name="bracketleft" unicode="[" horiz-adv-x="339" 
d="M303 768v-77h-90q-16 0 -16 -18v-743q0 -18 16 -18h90v-77h-153q-29 0 -48.5 15t-19.5 53v797q0 30 19.5 49t48.5 19h153z" />
    <glyph glyph-name="backslash" unicode="\" horiz-adv-x="538" 
d="M122 690l393 -760h-98l-393 760h98z" />
    <glyph glyph-name="bracketright" unicode="]" horiz-adv-x="339" 
d="M188 768q30 0 49 -19t19 -49v-797q0 -30 -19 -49t-49 -19h-152v77h89q17 0 17 18v743q0 18 -17 18h-89v77h152z" />
    <glyph glyph-name="asciicircum" unicode="^" horiz-adv-x="447" 
d="M268 615l149 -218l-48 -28l-141 169h-8l-142 -169l-48 28l150 218h88z" />
    <glyph glyph-name="underscore" unicode="_" horiz-adv-x="442" 
d="M442 0v-81h-442v81h442z" />
    <glyph glyph-name="grave" unicode="`" horiz-adv-x="337" 
d="M95 736l189 -147l-37 -53l-210 115z" />
    <glyph glyph-name="a" unicode="a" horiz-adv-x="561" 
d="M315 503q59 0 100 -15.5t61.5 -52.5t20.5 -102v-333h-96l-17 106l-9 14v214q0 39 -18 56.5t-69 17.5q-38 0 -95.5 -3t-115.5 -8l-11 83q35 7 79 12t89 8t81 3zM445 302l-1 -75h-225q-30 -1 -43 -16t-13 -41v-27q0 -30 16 -45t50 -15q27 0 60 10.5t65.5 31.5t58.5 50v-63
q-10 -15 -29 -35.5t-46.5 -40.5t-63 -33t-78.5 -13q-44 0 -79 15.5t-55 46t-20 75.5v52q0 58 38.5 90.5t105.5 32.5h259z" />
    <glyph glyph-name="b" unicode="b" horiz-adv-x="584" 
d="M358 503q94 0 137 -59t43 -196q0 -59 -10.5 -107t-36 -82.5t-70.5 -52.5t-115 -18q-25 0 -57 2t-65 7t-63.5 11.5t-54.5 16.5l97 74q22 -7 46.5 -11.5t49 -6t45.5 -1.5q40 1 63.5 16t34.5 51.5t11 100.5q0 60 -8.5 94.5t-30.5 48.5t-63 14q-36 0 -66.5 -17t-70.5 -46
l-8 65q27 29 57.5 51t65 33.5t69.5 11.5zM187 700l1 -170q0 -32 -2.5 -61.5t-10.5 -57.5l12 -14v-378l-121 6v675h121z" />
    <glyph glyph-name="c" unicode="c" horiz-adv-x="500" 
d="M288 503q25 0 55 -2t61 -8t56 -17l-14 -76q-37 2 -73.5 3t-63.5 1q-51 0 -80.5 -13.5t-42.5 -48t-13 -96.5t13 -96.5t42.5 -48.5t80.5 -14q15 0 39.5 1t53 3t55.5 5l12 -78q-39 -16 -87 -23t-95 -7q-88 0 -141 25t-76.5 81.5t-23.5 151.5t24 151.5t77 81t141 24.5z" />
    <glyph glyph-name="d" unicode="d" horiz-adv-x="587" 
d="M234 503q50 0 98 -13.5t87 -44.5l-8 -61q-39 11 -70 19t-69 8q-36 0 -57.5 -12.5t-32 -47.5t-10.5 -102q0 -64 10 -98.5t31.5 -48t54.5 -13.5q27 0 48 6.5t43 20.5t51 34l10 -68q-34 -39 -83.5 -66.5t-114.5 -27.5q-94 0 -134 66.5t-40 193.5q0 97 20.5 152.5t62 79
t103.5 23.5zM518 700v-700h-95l-13 88l-13 10v328l6 14q-4 29 -5 58.5t-1 60.5v141h121z" />
    <glyph glyph-name="e" unicode="e" horiz-adv-x="552" 
d="M287 503q119 0 171 -41.5t53 -122.5q1 -67 -31.5 -101.5t-107.5 -34.5h-280v75h247q34 0 43.5 18t9.5 44q-1 41 -23.5 57t-76.5 16q-47 0 -73 -13t-36.5 -47t-10.5 -98q0 -68 13 -105t43 -50.5t80 -13.5q37 0 85.5 3t93.5 8l12 -77q-27 -11 -62 -18t-72.5 -10.5
t-70.5 -3.5q-90 0 -144.5 26.5t-79 83.5t-24.5 147q0 97 24.5 153.5t78 80.5t138.5 24z" />
    <glyph glyph-name="f" unicode="f" horiz-adv-x="394" 
d="M263 719q17 0 44.5 -1t56.5 -2.5t50 -5.5l-11 -81h-97q-42 0 -59 -17t-17 -57v-555h-121v570q0 47 15 80t49 51t90 18zM376 491v-84h-354v79l91 5h263z" />
    <glyph glyph-name="g" unicode="g" horiz-adv-x="571" 
d="M276 503q83 0 131.5 -15.5t69.5 -50t21 -90.5q0 -54 -21 -88.5t-70 -50.5t-132 -16t-131.5 16t-70 50t-21.5 89q0 56 21.5 90.5t70.5 50t132 15.5zM275 424q-63 0 -87 -17t-24 -60q0 -41 24 -58.5t87 -17.5t86.5 17.5t23.5 58.5q0 43 -23.5 60t-86.5 17zM555 491l-7 -56
l-128 -14l-36 70h171zM132 222l62 -9q-15 -12 -20.5 -30.5t3 -35t37.5 -20.5l182 -24q74 -9 104 -43.5t30 -99.5q0 -61 -24 -95t-78.5 -47.5t-146.5 -13.5q-73 0 -121 7.5t-76.5 25t-40.5 45t-12 68.5q0 32 10.5 54t34.5 39.5t65 32.5l68 29l47 -17l-44 -31
q-23 -17 -37.5 -30.5t-21 -27t-6.5 -34.5q0 -28 11.5 -43t40.5 -20.5t81 -5.5q53 0 82 5.5t40.5 20t11.5 41.5q0 22 -7 32.5t-25 16.5t-50 10l-164 20q-35 4 -55.5 20.5t-28.5 40t-4.5 47t17 43.5t35.5 29z" />
    <glyph glyph-name="h" unicode="h" horiz-adv-x="593" 
d="M391 503q137 0 137 -135v-368h-122v331q0 40 -13.5 55t-46.5 15q-37 0 -76 -16t-94 -48l-9 70q56 46 112.5 71t111.5 25zM189 700l1 -180q0 -37 -3.5 -69.5t-9.5 -55.5l12 -14v-381h-121v700h121z" />
    <glyph glyph-name="i" unicode="i" horiz-adv-x="264" 
d="M192 491v-491h-120v491h120zM159 704q36 0 36 -36v-56q0 -36 -36 -36h-54q-36 0 -36 36v56q0 36 36 36h54z" />
    <glyph glyph-name="j" unicode="j" horiz-adv-x="266" 
d="M194 491v-483q0 -43 -14 -82t-39.5 -71.5t-60.5 -53.5l-67 53q32 36 46 72t14 82v483h121zM160 707q35 0 35 -36v-56q0 -36 -35 -36h-54q-36 0 -36 36v56q0 36 36 36h54z" />
    <glyph glyph-name="k" unicode="k" horiz-adv-x="538" 
d="M512 491l-140 -175q-8 -12 -20 -23.5t-21 -17.5v-2q9 -6 21 -19.5t20 -27.5l156 -226h-137l-179 278l163 213h137zM189 700l1 -299q0 -33 -3.5 -63t-9.5 -61q5 -29 8.5 -60t3.5 -58v-159h-121v700h121zM264 314v-78h-114v78h114z" />
    <glyph glyph-name="l" unicode="l" horiz-adv-x="315" 
d="M190 700l-1 -552q0 -28 16 -42.5t46 -14.5h43l14 -85q-11 -5 -30.5 -9t-40 -5.5t-35.5 -1.5q-61 0 -97 33t-36 95v582h121z" />
    <glyph glyph-name="m" unicode="m" horiz-adv-x="879" 
d="M680 503q65 0 99.5 -34.5t34.5 -100.5v-368h-120v331q-1 37 -15 53.5t-49 16.5q-21 0 -40.5 -6.5t-43.5 -20.5t-58 -37l-7 73q51 47 98.5 70t100.5 23zM165 491l12 -96l12 -14v-381h-121v491h97zM367 503q64 0 98 -34t35 -101v-368h-117v331q0 39 -16 54.5t-48 15.5
q-20 0 -40 -6t-44 -20t-60 -38l-7 73q50 47 98 70t101 23z" />
    <glyph glyph-name="n" unicode="n" horiz-adv-x="593" 
d="M391 503q137 0 137 -135v-368h-121v331q0 40 -14 55t-47 15q-37 0 -76 -16.5t-94 -47.5l-5 73q55 45 110.5 69t109.5 24zM167 491l12 -96l10 -14v-381h-121v491h99z" />
    <glyph glyph-name="o" unicode="o" 
d="M290 503q90 0 143.5 -25t77 -82t23.5 -151t-23.5 -150.5t-77 -82t-143.5 -25.5q-88 0 -141.5 25.5t-77.5 82t-24 150.5t24 151t77.5 82t141.5 25zM290 411q-44 0 -69.5 -14.5t-36.5 -50.5t-11 -101t11 -101t36.5 -50t69.5 -14q45 0 71 14t36.5 50t10.5 101t-10.5 101
t-36.5 50.5t-71 14.5z" />
    <glyph glyph-name="p" unicode="p" horiz-adv-x="592" 
d="M373 503q92 0 131.5 -67t39.5 -194q0 -97 -20.5 -152.5t-61.5 -79t-104 -23.5q-50 0 -97.5 14.5t-87.5 45.5l8 60q39 -11 70 -19t68 -8t58.5 12.5t31.5 47.5t10 101q0 65 -9 101t-29.5 50.5t-53.5 14.5q-36 0 -68 -15.5t-74 -45.5l-14 64q23 27 55.5 48t70.5 33t76 12z
M166 491l12 -95l11 -14v-317l-5 -12q3 -29 4 -58.5t1 -60.5v-129h-121v686h98z" />
    <glyph glyph-name="q" unicode="q" horiz-adv-x="584" 
d="M280 503q25 0 56 -2t64 -6.5t63.5 -11.5t54.5 -16l-98 -75q-21 7 -46 12t-49.5 6.5t-43.5 0.5q-41 -1 -65 -15.5t-34.5 -51.5t-10.5 -105q0 -80 19.5 -115t74.5 -35q41 0 73 16t72 41l12 -61q-26 -26 -58 -48.5t-68.5 -36t-75.5 -13.5q-91 0 -132 63t-41 193
q0 62 10.5 110t36.5 81.5t71 51t115 17.5zM397 472l121 -5v-662h-121l-1 156q0 34 3 63t10 57l-12 14v377z" />
    <glyph glyph-name="r" unicode="r" horiz-adv-x="416" 
d="M162 491l16 -96l11 -14v-381h-121v491h94zM402 503l-12 -112h-35q-39 0 -79 -13t-100 -39l-8 71q52 44 106 68.5t104 24.5h24z" />
    <glyph glyph-name="s" unicode="s" horiz-adv-x="521" 
d="M245 503q34 0 73.5 -2t77.5 -5.5t68 -9.5l-8 -79q-48 1 -95.5 2.5t-93.5 1.5q-41 0 -64.5 -2t-33 -12t-9.5 -34q0 -29 16 -38.5t52 -18.5l134 -31q61 -15 89.5 -45.5t28.5 -93.5q0 -61 -22.5 -92.5t-71 -43t-123.5 -11.5q-29 0 -86 2.5t-125 13.5l8 79q20 0 47.5 -1
t59 -1h64.5q53 0 81.5 3.5t39.5 15t11 33.5q0 28 -18.5 37.5t-54.5 18.5l-131 32q-45 12 -70 30.5t-36 46t-11 67.5q0 54 20.5 84t65 42t117.5 11z" />
    <glyph glyph-name="t" unicode="t" horiz-adv-x="397" 
d="M230 631v-483q0 -30 13.5 -43.5t46.5 -13.5h68l13 -85q-17 -5 -41 -9t-47 -5.5t-39 -1.5q-64 0 -99.5 34.5t-35.5 99.5v507h121zM376 491v-84h-354v79l96 5h258z" />
    <glyph glyph-name="u" unicode="u" horiz-adv-x="583" 
d="M186 491v-332q-1 -37 14.5 -53t50.5 -16t70 15t85 45l12 -72q-56 -45 -108 -68t-108 -23q-137 0 -137 135v369h121zM515 491v-491h-96l-13 95l-12 14v382h121z" />
    <glyph glyph-name="v" unicode="v" horiz-adv-x="551" 
d="M538 491l-169 -462q-5 -13 -15.5 -21t-25.5 -8h-106q-14 0 -25 8t-16 21l-169 462h129l103 -322q7 -22 13 -44.5t11 -43.5h13q7 22 13.5 44t12.5 44l103 322h128z" />
    <glyph glyph-name="w" unicode="w" horiz-adv-x="839" 
d="M819 491l-130 -459q-4 -14 -16 -23t-28 -9h-97q-16 0 -29 10t-15 27l-65 301q-4 20 -6.5 40t-6.5 40h-13q-3 -20 -6.5 -40t-7.5 -40l-64 -301q-3 -17 -15.5 -27t-29.5 -10h-96q-16 0 -28 9t-15 23l-131 459h123l82 -337q4 -19 7.5 -38.5t6.5 -38.5h12q5 19 8.5 38.5
t7.5 38.5l65 300q3 16 14.5 26.5t29.5 10.5h88q16 0 28 -10.5t15 -27.5l65 -299q3 -19 7.5 -38t7.5 -39h12q4 20 7 38.5t8 38.5l82 337h123z" />
    <glyph glyph-name="x" unicode="x" horiz-adv-x="551" 
d="M523 491l-146 -239l158 -252h-125l-152 252l140 239h125zM152 491l141 -239l-151 -252h-127l158 252l-146 239h125zM343 295v-81h-134v81h134z" />
    <glyph glyph-name="y" unicode="y" horiz-adv-x="550" 
d="M537 491l-184 -506q-13 -35 -32.5 -69.5t-49.5 -62.5t-71 -44t-95 -12l-10 72q60 17 93.5 46t52.5 74l27 64q9 22 17.5 50.5t14.5 49.5l107 338h130zM141 491l109 -338q5 -17 9 -34.5t7 -34.5h25l-38 -84h-32q-14 0 -25 8t-15 22l-169 461h129z" />
    <glyph glyph-name="z" unicode="z" horiz-adv-x="519" 
d="M334 403l138 -1l-291 -315l-138 1zM476 88v-88h-433v88h433zM472 491v-89h-425v89h425z" />
    <glyph glyph-name="braceleft" unicode="{" horiz-adv-x="331" 
d="M292 768v-75q-48 0 -65.5 -15.5t-17.5 -56.5v-163q1 -41 -7 -67.5t-29 -41t-60 -21.5q40 -11 61.5 -27t30 -40t8.5 -59v-222q0 -40 17.5 -55t65.5 -15v-75q-71 -7 -114.5 7.5t-64 48t-20.5 81.5v246q0 25 -6 36.5t-18.5 18t-33.5 14.5v82q23 7 34.5 12.5t15.5 18.5t4 42
v189q0 49 20.5 82t64 48t114.5 7z" />
    <glyph glyph-name="bar" unicode="|" horiz-adv-x="255" 
d="M170 781v-950h-86v950h86z" />
    <glyph glyph-name="braceright" unicode="}" horiz-adv-x="331" 
d="M40 768q71 8 114 -7t63.5 -48t20.5 -82v-189q0 -29 4 -42t16 -18.5t34 -12.5v-82q-20 -8 -33.5 -14.5t-19 -18t-5.5 -36.5v-246q0 -48 -20.5 -81.5t-63.5 -48t-114 -7.5v75q48 0 65 15t17 55v222q1 35 9.5 59t30 40t61.5 27q-39 7 -60 21.5t-29 41t-8 67.5v163
q0 41 -17 56.5t-65 15.5v75z" />
    <glyph glyph-name="uni0400" unicode="&#x400;" horiz-adv-x="571" 
d="M213 692h106.5t107 -2t100.5 -6l-6 -93h-270q-28 0 -41 -14t-13 -44v-376q0 -30 13 -44t41 -14h270l6 -93q-48 -4 -100.5 -5.5t-107 -2t-106.5 -0.5q-64 0 -102.5 35.5t-38.5 95.5v432q0 60 38.5 95.5t102.5 35.5zM89 407h394v-92h-394v92zM190 931l189 -147l-37 -53
l-210 115z" />
    <glyph glyph-name="uni0401" unicode="&#x401;" horiz-adv-x="571" 
d="M213 692h106.5t107 -2t100.5 -6l-6 -93h-270q-28 0 -41 -14t-13 -44v-376q0 -30 13 -44t41 -14h270l6 -93q-48 -4 -100.5 -5.5t-107 -2t-106.5 -0.5q-64 0 -102.5 35.5t-38.5 95.5v432q0 60 38.5 95.5t102.5 35.5zM89 407h394v-92h-394v92zM420 880q28 0 28 -29v-57
q0 -28 -28 -28h-40q-29 0 -29 28v57q0 29 29 29h40zM240 880q28 0 28 -29v-57q0 -28 -28 -28h-41q-28 0 -28 28v57q0 29 28 29h41z" />
    <glyph glyph-name="uni0402" unicode="&#x402;" horiz-adv-x="759" 
d="M462 -7l-12 88q52 6 84.5 19.5t48.5 43.5t16 84q0 50 -11 74.5t-32.5 32.5t-53.5 8q-25 0 -51 -5t-54.5 -16t-60.5 -30l-7 83q36 25 74.5 40.5t76 22.5t72.5 7q51 0 89 -17t60.5 -61.5t22.5 -127.5q0 -72 -18.5 -120.5t-52.5 -76.5t-82.5 -39.5t-108.5 -9.5zM233 0v690
h125v-690h-125zM20 588v102h551v-102h-551z" />
    <glyph glyph-name="uni0403" unicode="&#x403;" horiz-adv-x="528" 
d="M212 692q76 0 154 -1t146 -8l-5 -92h-246q-30 0 -45 -15t-15 -46v-530h-125v554q0 62 38.5 100t97.5 38zM407 931l58 -86l-211 -115l-37 53z" />
    <glyph glyph-name="uni0404" unicode="&#x404;" horiz-adv-x="586" 
d="M342 702q47 0 81 -2.5t62.5 -7t57.5 -12.5l-11 -94q-31 3 -58.5 4t-58.5 2t-74 1q-61 0 -95.5 -22.5t-49 -76.5t-14.5 -149t14.5 -149t49 -76.5t95.5 -22.5q66 0 110 2t87 8l12 -93q-45 -14 -91.5 -20t-116.5 -6q-106 0 -169.5 34.5t-91.5 112.5t-28 210t28 210
t91.5 112.5t169.5 34.5zM85 406h386v-87l-386 -1v88z" />
    <glyph glyph-name="uni0405" unicode="&#x405;" horiz-adv-x="575" 
d="M289 703q51 -1 107.5 -6t110.5 -19l-8 -85q-43 1 -99.5 2.5t-108.5 1.5q-32 0 -54.5 -2t-36.5 -10t-20.5 -24.5t-6.5 -45.5q0 -45 18.5 -64t60.5 -30l136 -40q82 -25 113 -72.5t31 -126.5q0 -59 -14 -97t-43 -59t-76 -30t-113 -9q-34 0 -93.5 4t-135.5 20l8 90
q59 -2 99 -3.5t69 -1.5h54q46 0 72 6t36.5 25t10.5 55q0 31 -7.5 48.5t-24.5 27.5t-44 17l-141 43q-78 24 -109.5 71t-31.5 126q0 59 14 96.5t43 57t74.5 27t109.5 7.5z" />
    <glyph glyph-name="uni0406" unicode="&#x406;" horiz-adv-x="281" 
d="M203 690v-690h-125v690h125z" />
    <glyph glyph-name="uni0407" unicode="&#x407;" horiz-adv-x="279" 
d="M202 690v-690h-125v690h125zM250 880q28 0 28 -29v-57q0 -28 -28 -28h-40q-29 0 -29 28v57q0 29 29 29h40zM70 880q28 0 28 -29v-57q0 -28 -28 -28h-41q-28 0 -28 28v57q0 29 28 29h41z" />
    <glyph glyph-name="uni0408" unicode="&#x408;" horiz-adv-x="360" 
d="M284 690v-550q0 -74 -38.5 -112t-109.5 -38q-15 0 -37 1.5t-42 5.5t-33 9l14 84h49q73 0 73 64v536h124z" />
    <glyph glyph-name="uni0409" unicode="&#x409;" horiz-adv-x="974" 
d="M567 690v-92h-212q-30 0 -44 -16t-17 -47q-7 -80 -12.5 -139t-12.5 -104t-16.5 -81.5t-22.5 -70.5q-20 -53 -47.5 -84.5t-65.5 -45t-89 -12.5l-9 85q26 9 50 27t46 64q11 25 19.5 53t14.5 60.5t10 71.5t7.5 87t8.5 105q4 70 42 104.5t109 34.5h241zM581 690v-690h-124
v690h124zM695 424q91 0 143.5 -20.5t74.5 -67.5t22 -128q0 -85 -22 -132t-70.5 -65.5t-127.5 -18.5q-60 0 -102 0.5t-78 2.5t-76 5l14 93q23 -1 81.5 -2t140.5 -1q46 0 70.5 10t34 36t9.5 75q0 46 -8.5 73t-33.5 38t-72 11h-224v91h224z" />
    <glyph glyph-name="uni040A" unicode="&#x40a;" horiz-adv-x="978" 
d="M702 418q89 0 141 -20t74 -65.5t22 -125.5q0 -85 -22.5 -131.5t-70 -65t-124.5 -18.5q-59 0 -102.5 0.5t-80 2.5t-76.5 5l14 93q23 -1 82.5 -2t142.5 -1q45 0 68.5 9.5t33 35.5t9.5 73q0 45 -9 71.5t-32.5 37.5t-69.5 11h-227v90h227zM204 690v-690h-126v690h126z
M471 418v-92h-275v92h275zM585 690v-690h-124v690h124z" />
    <glyph glyph-name="uni040B" unicode="&#x40b;" horiz-adv-x="786" 
d="M570 448q86 0 127 -39.5t41 -123.5v-285h-126v260q0 46 -18.5 64t-68.5 18q-29 0 -56.5 -3.5t-57.5 -13.5t-67 -26l-12 86q40 22 83 36t83 20.5t72 6.5zM358 690v-690h-125v690h125zM571 690v-102h-551v102h551z" />
    <glyph glyph-name="uni040C" unicode="&#x40c;" horiz-adv-x="623" 
d="M581 690q-21 -64 -38 -114.5t-34.5 -88.5t-37.5 -64t-47 -41t-65 -20v-4q40 -5 69 -20t50.5 -43t40 -69t37.5 -97t44 -129h-132q-27 84 -47.5 143.5t-42 97t-50 55.5t-72.5 18l-1 91q42 0 70.5 19t49.5 55.5t39 89.5t40 121h127zM203 690v-204q0 -32 -4.5 -63.5
t-13.5 -61.5q7 -29 12.5 -59.5t5.5 -58.5v-243h-125v690h125zM297 405v-91h-128v91h128zM428 931l58 -86l-211 -115l-37 53z" />
    <glyph glyph-name="uni040D" unicode="&#x40d;" horiz-adv-x="703" 
d="M625 690v-690h-120v449q0 22 2 44t5 43h-6q-7 -21 -17 -42.5t-20 -41.5l-267 -452h-124v690h120v-442q0 -23 -2 -46t-4 -45h4q9 21 19.5 42.5t21.5 41.5l264 449h124zM236 931l189 -147l-37 -53l-210 115z" />
    <glyph glyph-name="uni040E" unicode="&#x40e;" 
d="M574 690l-176 -515q-17 -52 -38 -92t-51 -64t-76 -28q-21 -2 -48.5 0t-54.5 6t-47 8l14 89q47 -3 76 -3t46 7t28.5 24.5t24.5 49.5l23 67l17 45l134 406h128zM142 690l121 -380q5 -15 21 -15h45l27 -97h-113q-34 0 -52.5 16t-27.5 45l-150 431h129zM367 891h83
q5 -41 -13 -74.5t-55 -54t-89 -20.5t-89 20.5t-55.5 54t-14.5 74.5h83q-2 -44 18 -65.5t58 -21.5q37 0 56.5 21.5t17.5 65.5z" />
    <glyph glyph-name="uni040F" unicode="&#x40f;" horiz-adv-x="688" 
d="M609 690v-690h-125v690h125zM395 7l-5 -158h-86l-6 158h97zM573 92l1 -92h-378v92h377zM204 690v-690h-126v690h126z" />
    <glyph glyph-name="uni0410" unicode="&#x410;" horiz-adv-x="640" 
d="M381 690q16 0 28 -9t17 -24l209 -657h-128l-158 532l-8 32t-7 31h-28q-3 -15 -7 -31t-9 -32l-157 -532h-128l209 657q4 15 16.5 24t28.5 9h122zM497 295v-98h-355v98h355z" />
    <glyph glyph-name="uni0411" unicode="&#x411;" horiz-adv-x="613" 
d="M531 690l-11 -97h-317v-593h-125v690q58 4 115 5.5t111 1.5q59 0 115 -2t112 -5zM327 402q92 0 145.5 -19.5t76 -64t22.5 -122.5q0 -66 -15 -106.5t-45.5 -61.5t-77 -29t-108.5 -8q-45 0 -85 1t-78.5 3t-80.5 5l14 92q23 -1 84.5 -2t147.5 -1q48 0 73.5 8.5t35 33
t9.5 70.5q0 43 -9 68t-34.5 35.5t-74.5 10.5h-233v87h233z" />
    <glyph glyph-name="uni0412" unicode="&#x412;" horiz-adv-x="633" 
d="M323 698q89 0 141 -15.5t75 -54.5t23 -110q0 -74 -28 -113t-91 -45v-4q78 -7 109.5 -54t31.5 -130q0 -71 -23.5 -110t-74 -54.5t-131.5 -15.5q-63 0 -109.5 0.5t-86 2.5t-81.5 5l15 91q23 -1 88.5 -2t152.5 -1q48 0 75 8.5t38 32t11 66.5q0 48 -11.5 73.5t-39.5 36
t-78 10.5h-237v85h236q43 0 67.5 8.5t35.5 30.5t11 63t-11.5 63t-38.5 29.5t-75 7.5h-94t-73 -0.5t-57 -2.5l-15 91q38 4 73 5.5t76 2t96 0.5zM200 690v-690h-122v690h122z" />
    <glyph glyph-name="uni0413" unicode="&#x413;" horiz-adv-x="528" 
d="M212 692q76 0 154 -1t146 -8l-5 -92h-246q-30 0 -45 -15t-15 -46v-530h-125v554q0 62 38.5 100t97.5 38z" />
    <glyph glyph-name="uni0414" unicode="&#x414;" horiz-adv-x="719" 
d="M605 690v-690h-125v598h-113q-33 0 -48 -15t-17 -49q-5 -72 -12.5 -133t-18.5 -114t-27 -101t-38 -93.5t-53 -92.5h-109q49 85 77 176.5t42.5 186.5t21.5 191q3 63 42.5 99.5t105.5 36.5h272zM119 7l-11 -158h-89v158h100zM693 92v-92h-674v92h674zM693 7v-158h-89
l-10 158h99z" />
    <glyph glyph-name="uni0415" unicode="&#x415;" horiz-adv-x="571" 
d="M213 692h106.5t107 -2t100.5 -6l-6 -93h-270q-28 0 -41 -14t-13 -44v-376q0 -30 13 -44t41 -14h270l6 -93q-48 -4 -100.5 -5.5t-107 -2t-106.5 -0.5q-64 0 -102.5 35.5t-38.5 95.5v432q0 60 38.5 95.5t102.5 35.5zM89 407h394v-92h-394v92z" />
    <glyph glyph-name="uni0416" unicode="&#x416;" horiz-adv-x="925" 
d="M883 690q-20 -62 -37 -112t-33.5 -88t-37 -65t-47.5 -42.5t-66 -20.5v-4q41 -5 69.5 -20t50 -43t40 -69t37.5 -97t42 -129h-131q-29 84 -50.5 143.5t-41.5 97t-45.5 55.5t-62.5 18v91q35 0 60 19t44.5 55.5t38.5 89.5t42 121h128zM170 690q23 -68 41.5 -121t38.5 -89.5
t45 -55.5t59 -19v-91q-37 0 -62 -18t-45 -55.5t-41.5 -97t-50.5 -143.5h-131q24 73 42.5 129t36.5 97t40 69t50.5 43t68.5 20v4q-38 5 -65 20.5t-47.5 42.5t-37 65t-33 88t-36.5 112h127zM433 405v-91h-108v91h108zM524 690v-204q0 -32 -4 -63t-14 -62q8 -29 13 -59.5
t5 -58.5v-243h-120v243q0 28 6 58.5t13 59.5q-10 31 -14.5 62t-4.5 63v204h120zM600 405v-91h-103v91h103z" />
    <glyph glyph-name="uni0417" unicode="&#x417;" horiz-adv-x="560" 
d="M255 698q86 0 137 -15.5t74 -54.5t23 -110q0 -74 -27.5 -113t-90.5 -45v-4q78 -7 108 -54t30 -130q0 -71 -23 -110t-72 -54.5t-129 -15.5q-52 0 -96 2.5t-82 8.5t-75 16l10 86q49 -6 105 -11t116 -5q45 0 70.5 8.5t36.5 31.5t11 66q0 46 -11.5 71.5t-38.5 36t-74 10.5
h-126v89h126q41 1 64 9.5t33 30t10 60.5q0 40 -10.5 62t-36.5 30t-70 8q-57 0 -103 -4t-88 -8l-9 90q48 9 96 13.5t112 4.5z" />
    <glyph glyph-name="uni0418" unicode="&#x418;" horiz-adv-x="703" 
d="M625 690v-690h-120v449q0 22 2 44t5 43h-6q-7 -21 -17 -42.5t-20 -41.5l-267 -452h-124v690h120v-442q0 -23 -2 -46t-4 -45h4q9 21 19.5 42.5t21.5 41.5l264 449h124z" />
    <glyph glyph-name="uni0419" unicode="&#x419;" horiz-adv-x="703" 
d="M625 690v-690h-120v449q0 22 2 44t5 43h-6q-7 -21 -17 -42.5t-20 -41.5l-267 -452h-124v690h120v-442q0 -23 -2 -46t-4 -45h4q9 21 19.5 42.5t21.5 41.5l264 449h124zM432 891h83q5 -41 -13 -74.5t-55 -54t-89 -20.5t-89 20.5t-55.5 54t-14.5 74.5h83q-2 -44 18 -65.5
t58 -21.5q37 0 56.5 21.5t17.5 65.5z" />
    <glyph glyph-name="uni041A" unicode="&#x41a;" horiz-adv-x="623" 
d="M581 690q-21 -64 -38 -114.5t-34.5 -88.5t-37.5 -64t-47 -41t-65 -20v-4q40 -5 69 -20t50.5 -43t40 -69t37.5 -97t44 -129h-132q-27 84 -47.5 143.5t-42 97t-50 55.5t-72.5 18l-1 91q42 0 70.5 19t49.5 55.5t39 89.5t40 121h127zM203 690v-204q0 -32 -4.5 -63.5
t-13.5 -61.5q7 -29 12.5 -59.5t5.5 -58.5v-243h-125v690h125zM297 405v-91h-128v91h128z" />
    <glyph glyph-name="uni041B" unicode="&#x41b;" horiz-adv-x="668" 
d="M575 690v-92h-221q-63 0 -68 -63q-6 -76 -11.5 -135t-13 -105.5t-16.5 -84t-24 -70.5q-20 -52 -49.5 -85t-68.5 -47t-87 -10l-10 97q33 8 57.5 24.5t41.5 54.5q10 23 17.5 48t13.5 55.5t11 69.5t9.5 89t9.5 114q12 140 150 140h259zM590 690v-690h-126v690h126z" />
    <glyph glyph-name="uni041C" unicode="&#x41c;" horiz-adv-x="901" 
d="M761 690q47 0 48 -48l27 -642h-119l-23 591h-20l-129 -463q-8 -41 -51 -41h-88q-43 0 -52 41l-130 463h-18l-22 -591h-119l26 642q2 48 48 48h125q40 0 50 -41l106 -378q7 -24 11.5 -48t10.5 -48h15q6 24 11 48t11 49l106 377q9 41 51 41h125z" />
    <glyph glyph-name="uni041D" unicode="&#x41d;" horiz-adv-x="684" 
d="M204 690v-690h-126v690h126zM491 417v-98h-295v98h295zM605 690v-690h-125v690h125z" />
    <glyph glyph-name="uni041E" unicode="&#x41e;" horiz-adv-x="679" 
d="M339 703q80 0 135 -17.5t88.5 -58.5t48.5 -110t15 -172q0 -102 -15 -171.5t-48.5 -110.5t-88.5 -58.5t-135 -17.5q-78 0 -133 17.5t-89 58.5t-49 110.5t-15 171.5q0 103 15 172t49 110t89 58.5t133 17.5zM339 601q-59 0 -92.5 -23.5t-47.5 -79t-14 -153.5t14 -153.5
t47.5 -79t92.5 -23.5q60 0 93.5 23.5t47.5 79t14 153.5t-14 153.5t-47.5 79t-93.5 23.5z" />
    <glyph glyph-name="uni041F" unicode="&#x41f;" horiz-adv-x="683" 
d="M204 690v-690h-126v690h126zM491 690v-92h-295v92h295zM605 690v-690h-125v690h125z" />
    <glyph glyph-name="uni0420" unicode="&#x420;" horiz-adv-x="607" 
d="M332 699q90 0 142.5 -19.5t74.5 -67t22 -134.5t-21.5 -135t-70.5 -67t-132 -19q-45 0 -86.5 3t-77 8t-60.5 10.5t-35 9.5l3 67h117.5h120.5q44 1 69.5 11t36 36.5t10.5 75.5t-10.5 75.5t-36 37t-69.5 10.5q-88 0 -151 -1t-86 -3l-14 93q40 4 75.5 6t77 2.5t101.5 0.5z
M203 690v-690h-125v690h125z" />
    <glyph glyph-name="uni0421" unicode="&#x421;" 
d="M336 702q47 0 80 -2.5t61 -7t58 -12.5l-11 -93q-31 2 -58 3.5t-57.5 2.5t-72.5 1q-58 0 -91 -23t-46.5 -77t-13.5 -149t13.5 -149t46.5 -77t91 -23q67 0 112.5 2.5t89.5 7.5l11 -92q-45 -14 -93 -20t-120 -6q-104 0 -166 34.5t-89.5 112.5t-27.5 210t27.5 210t89.5 112.5
t166 34.5z" />
    <glyph glyph-name="uni0422" unicode="&#x422;" horiz-adv-x="593" 
d="M359 690v-690h-125v690h125zM573 690v-102h-553v102h553z" />
    <glyph glyph-name="uni0423" unicode="&#x423;" 
d="M574 690l-176 -515q-17 -52 -38 -92t-51 -64t-76 -28q-21 -2 -48.5 0t-54.5 6t-47 8l14 89q47 -3 76 -3t46 7t28.5 24.5t24.5 49.5l23 67l17 45l134 406h128zM142 690l121 -380q5 -15 21 -15h45l27 -97h-113q-34 0 -52.5 16t-27.5 45l-150 431h129z" />
    <glyph glyph-name="uni0424" unicode="&#x424;" horiz-adv-x="838" 
d="M418 651q105 0 177.5 -14.5t117 -49t64.5 -92t20 -142.5q0 -83 -20 -139.5t-64.5 -90t-117 -48t-177.5 -14.5q-104 0 -176.5 14.5t-116.5 48t-64 90t-20 139.5q0 85 20 142.5t64 92t116.5 49t176.5 14.5zM418 555q-74 0 -122.5 -9t-76.5 -31t-39.5 -61.5t-11.5 -100.5
q0 -59 11.5 -97t39.5 -60t76.5 -30.5t122.5 -8.5t123 8.5t77 30.5t40 60t12 97q0 61 -12 100.5t-40 61.5t-77 31t-123 9zM481 743l1 -137l-6 -25v-449l6 -29v-133h-126v133l5 29v449l-5 25v137h125z" />
    <glyph glyph-name="uni0425" unicode="&#x425;" horiz-adv-x="632" 
d="M601 690l-175 -334l188 -356h-130l-179 356l167 334h129zM160 690l166 -334l-179 -356h-130l187 356l-174 334h130zM381 398v-83h-137v83h137z" />
    <glyph glyph-name="uni0426" unicode="&#x426;" horiz-adv-x="703" 
d="M78 0v690h126v-690h-126zM196 0v92h481v-92h-481zM469 0v690h126v-690h-126zM588 -151l-11 158h100v-158h-89z" />
    <glyph glyph-name="uni0427" unicode="&#x427;" horiz-adv-x="645" 
d="M178 690v-260q-1 -43 18.5 -62.5t67.5 -19.5q32 0 60.5 4.5t60.5 15t71 28.5l11 -82q-42 -25 -86.5 -41.5t-86 -24t-75.5 -7.5q-85 0 -125.5 40t-40.5 123v286h125zM567 690v-690h-125v690h125z" />
    <glyph glyph-name="uni0428" unicode="&#x428;" horiz-adv-x="955" 
d="M877 690v-690h-123v690h123zM201 690v-690h-123v690h123zM786 92v-92h-594v92h594zM538 690v-690h-121v690h121z" />
    <glyph glyph-name="uni0429" unicode="&#x429;" horiz-adv-x="980" 
d="M201 690v-690h-123v690h123zM953 92v-92h-761v92h761zM536 690v-690h-123v690h123zM871 690v-690h-122v690h122zM953 7v-158h-89l-11 158h100z" />
    <glyph glyph-name="uni042A" unicode="&#x42a;" horiz-adv-x="759" 
d="M480 424q90 0 142.5 -20.5t75 -67.5t22.5 -129q0 -85 -22.5 -131.5t-70.5 -65t-127 -18.5q-60 0 -104 0.5t-81 2.5t-78 5l14 93q23 -1 84 -2t145 -1q46 0 70.5 9.5t34 36t9.5 74.5q0 46 -9 73t-33.5 38.5t-71.5 11.5h-230v91h230zM361 690v-690h-126v690h126zM303 690
v-102h-284v102h284z" />
    <glyph glyph-name="uni042B" unicode="&#x42b;" horiz-adv-x="878" 
d="M324 424q90 0 143 -20.5t75 -67.5t22 -129q0 -85 -22.5 -131.5t-70.5 -65t-127 -18.5q-60 0 -104 0.5t-81 2.5t-78 5l14 93q23 -1 84 -2t145 -1q46 0 70.5 9.5t34.5 36t10 74.5q0 46 -9 73t-33.5 38.5t-72.5 11.5h-230v91h230zM204 690v-690h-126v690h126zM799 690v-690
h-125v690h125z" />
    <glyph glyph-name="uni042C" unicode="&#x42c;" horiz-adv-x="606" 
d="M325 424q91 0 143.5 -20.5t75 -67.5t22.5 -129q0 -85 -22.5 -131.5t-71 -65t-126.5 -18.5q-61 0 -105.5 0.5t-81.5 2.5t-78 5l14 93q24 -1 84.5 -2t145.5 -1q47 0 71.5 9.5t34.5 36t10 74.5q0 46 -9 73t-34 38.5t-73 11.5h-231v91h231zM204 690v-690h-126v690h126z" />
    <glyph glyph-name="uni042D" unicode="&#x42d;" horiz-adv-x="586" 
d="M244 702q107 0 170 -34.5t90.5 -112.5t27.5 -210t-27.5 -210t-90.5 -112.5t-170 -34.5q-71 0 -117.5 6t-90.5 20l11 93q43 -6 87 -8t110 -2q61 0 96 22.5t49.5 76.5t13.5 149q1 95 -13.5 149t-49.5 76.5t-96 22.5q-42 0 -73 -1t-58.5 -2t-59.5 -4l-11 94q30 8 58.5 12.5
t63 7t80.5 2.5zM500 406v-88l-386 1v87h386z" />
    <glyph glyph-name="uni042E" unicode="&#x42e;" horiz-adv-x="954" 
d="M614 703q79 0 134 -17.5t88.5 -58.5t48.5 -110t15 -172q0 -102 -15 -171.5t-48.5 -110.5t-88.5 -58.5t-134 -17.5q-75 0 -126.5 17.5t-83 58.5t-46 110.5t-14.5 171.5q0 103 14.5 172t46 110t83 58.5t126.5 17.5zM205 690v-690h-126v690h126zM396 404v-92h-200v92h200z
M614 601q-56 0 -88.5 -23.5t-45.5 -79t-13 -153.5t13 -153.5t45.5 -79t88.5 -23.5q59 0 92.5 23.5t47.5 79t14 153.5t-14 153.5t-47.5 79t-92.5 23.5z" />
    <glyph glyph-name="uni042F" unicode="&#x42f;" horiz-adv-x="628" 
d="M301 699q58 0 99.5 -0.5t76 -2.5t73.5 -6l-15 -93q-22 2 -83 3t-149 1q-43 0 -67.5 -10t-35.5 -34.5t-11 -69.5q0 -39 10 -65t34.5 -39t66.5 -13h231l3 -95q-16 -1 -36 -1.5t-47.5 -0.5t-63.5 -0.5t-85 -0.5q-32 0 -51 -14.5t-29 -51.5l-55 -206h-133l61 211
q9 34 25 54.5t35.5 31.5t37.5 14v6q-48 6 -76.5 29.5t-41 61.5t-12.5 87q0 76 24.5 120.5t77 64t136.5 19.5zM550 690v-690h-126v690h126z" />
    <glyph glyph-name="uni0430" unicode="&#x430;" horiz-adv-x="564" 
d="M317 503q59 0 99.5 -15.5t61 -52.5t20.5 -102v-333h-96l-17 106l-8 14v214q-1 39 -19 56.5t-68 17.5q-39 0 -96.5 -3t-115.5 -8l-11 83q35 7 79.5 12t89 8t81.5 3zM446 302l-1 -75h-224q-31 -1 -44 -16t-13 -41v-27q0 -30 16.5 -45t49.5 -15q27 0 60 10.5t65.5 31.5
t58.5 50v-63q-9 -15 -28 -35.5t-46.5 -40.5t-63.5 -33t-79 -13q-44 0 -79 15.5t-54.5 46t-19.5 75.5v52q0 58 38 90.5t106 32.5h258z" />
    <glyph glyph-name="uni0431" unicode="&#x431;" horiz-adv-x="586" 
d="M490 738l22 -93q-32 -19 -60.5 -27.5t-55.5 -12.5t-54.5 -7t-56.5 -11q-42 -12 -66.5 -32.5t-36.5 -45t-18 -52.5q-7 -21 -9.5 -39.5t-4.5 -32.5h3q10 17 24 33.5t34.5 29t50.5 20t72 7.5q76 0 120.5 -24t64 -75.5t19.5 -135.5q0 -80 -20.5 -136.5t-72 -86t-143.5 -29.5
q-69 0 -113.5 15.5t-70.5 43t-38 66.5t-15.5 86.5t-3.5 101.5q0 76 6.5 137t25.5 107.5t55.5 79t96.5 51.5q32 11 62 15.5t60 8.5t60 12t63 26zM304 389q-50 0 -75.5 -16t-34.5 -48.5t-9 -84.5q0 -62 11 -97t36 -49t67 -14t66.5 14t35 49t10.5 97q0 59 -9.5 91t-33 45
t-64.5 13z" />
    <glyph glyph-name="uni0432" unicode="&#x432;" horiz-adv-x="565" 
d="M290 496q79 0 125 -11t66.5 -39.5t20.5 -80.5t-24.5 -79t-81.5 -32v-3q69 -5 96.5 -38t27.5 -92q0 -50 -20.5 -78t-65 -39.5t-116.5 -11.5q-56 0 -98 0.5t-77.5 2t-73.5 3.5l13 82q21 -1 79.5 -1.5t137.5 -0.5q37 0 59.5 5.5t32 20.5t9.5 42q0 41 -23 55.5t-82 14.5h-214
v73h214q35 0 55.5 5t29.5 19t9 39q0 23 -10 36t-32.5 18t-61.5 5q-47 1 -84 1h-66t-53 -3l-13 81q34 3 65.5 4t69 1.5t86.5 0.5zM183 490v-492h-114v492h114z" />
    <glyph glyph-name="uni0433" unicode="&#x433;" horiz-adv-x="465" 
d="M186 494q66 0 134.5 -1t127.5 -9l-5 -85h-204q-28 0 -40 -12t-12 -39v-348h-120v381q0 57 30 85t89 28z" />
    <glyph glyph-name="uni0434" unicode="&#x434;" horiz-adv-x="612" 
d="M497 491v-85h-185q-50 0 -55 -52q-8 -76 -22.5 -138t-39 -114.5t-62.5 -101.5h-96q37 60 59.5 122t35 125.5t18.5 128.5q5 57 37 86t93 29h217zM113 5l-10 -147h-79v147h89zM581 88v-88h-557v88h557zM581 5v-147h-80l-9 147h89zM509 491v-491h-115v491h115z" />
    <glyph glyph-name="uni0435" unicode="&#x435;" horiz-adv-x="554" 
d="M288 503q119 0 171 -41.5t53 -122.5q0 -67 -31.5 -101.5t-106.5 -34.5h-281v75h248q32 0 42.5 18t9.5 44q0 41 -22.5 57t-78.5 16q-46 0 -72 -13t-36.5 -47t-10.5 -98q0 -68 13 -105t42.5 -50.5t80.5 -13.5q37 0 86 3t93 8l12 -77q-26 -11 -62 -18t-73.5 -10.5
t-70.5 -3.5q-89 0 -143.5 26.5t-79 83.5t-24.5 147q0 97 25 153.5t77.5 80.5t138.5 24z" />
    <glyph glyph-name="uni0436" unicode="&#x436;" horiz-adv-x="808" 
d="M768 491q-18 -50 -31.5 -87t-26.5 -63t-28.5 -43.5t-37.5 -27t-54 -12.5v-4q33 -3 56.5 -12.5t40.5 -27t31.5 -46t29.5 -70t34 -98.5h-123q-23 64 -40 105.5t-32 65.5t-33.5 33t-46.5 9l-1 83q26 0 45 11t33.5 34t29 60t33.5 90h121zM161 491q18 -53 33.5 -90t30 -60
t32.5 -34t44 -11l-1 -83q-26 0 -44.5 -9t-33.5 -33t-31.5 -65.5t-41.5 -105.5h-123q19 57 34.5 98.5t30 70t31.5 46t40.5 27t56.5 12.5v4q-32 3 -54 12.5t-38 27t-29 43.5t-26.5 63t-30.5 87h120zM376 296v-83h-99v83h99zM459 491v-135q0 -26 -4 -51t-13 -48q7 -22 12 -45.5
t5 -43.5v-168h-107v168q0 20 5.5 43.5t11.5 45.5q-9 23 -12.5 48t-3.5 51v135h106zM532 296v-83h-96v83h96z" />
    <glyph glyph-name="uni0437" unicode="&#x437;" horiz-adv-x="507" 
d="M212 500q85 0 136 -10t74 -38.5t23 -83.5q0 -54 -23.5 -81.5t-81.5 -32.5v-3q67 -5 95 -36.5t28 -93.5q0 -54 -23 -82.5t-71.5 -38.5t-125.5 -10q-50 0 -103.5 3.5t-104.5 13.5l8 85q43 -4 94 -6.5t98 -2.5q61 0 82.5 12.5t21.5 50.5q0 25 -9.5 38.5t-32 19t-61.5 5.5
l-132 1v78l131 2q36 0 55.5 5.5t27.5 18t8 36.5t-9.5 36t-33 16t-66.5 4t-85.5 -2.5t-74.5 -6.5l-9 85q45 12 89 15t75 3z" />
    <glyph glyph-name="uni0438" unicode="&#x438;" horiz-adv-x="600" 
d="M530 491v-491l-109 -1v287q0 18 1.5 35.5t2.5 37.5h-2q-7 -16 -17 -34.5t-20 -31.5l-213 -293h-104v491h109v-290q0 -17 -1 -33.5t-3 -36.5h2q8 17 17.5 33t19.5 29l214 298h103z" />
    <glyph glyph-name="uni0439" unicode="&#x439;" horiz-adv-x="600" 
d="M530 491v-491l-109 -1v287q0 18 1.5 35.5t2.5 37.5h-2q-7 -16 -17 -34.5t-20 -31.5l-213 -293h-104v491h109v-290q0 -17 -1 -33.5t-3 -36.5h2q8 17 17.5 33t19.5 29l214 298h103zM373 709h83q5 -41 -13 -74.5t-55 -54t-89 -20.5t-89 20.5t-55.5 54t-14.5 74.5h83
q-2 -44 18 -65.5t58 -21.5q37 0 56.5 21.5t17.5 65.5z" />
    <glyph glyph-name="uni043A" unicode="&#x43a;" horiz-adv-x="553" 
d="M512 491q-17 -50 -31 -88t-27 -63.5t-29.5 -42.5t-39 -26.5t-54.5 -13.5v-4q33 -3 57 -12t41.5 -26.5t32 -45t30 -69.5t35.5 -100h-127q-17 52 -31 89t-26 61t-26.5 37.5t-34 19t-45.5 5.5l-1 85q32 0 54 10.5t37.5 33.5t29.5 59.5t31 90.5h124zM190 491v-135
q0 -24 -4 -50t-13 -49q8 -22 12.5 -46t4.5 -44v-167h-121v491h121zM272 297v-85h-114v85h114z" />
    <glyph glyph-name="uni043B" unicode="&#x43b;" horiz-adv-x="579" 
d="M496 491v-87h-191q-27 0 -39.5 -12.5t-16.5 -41.5q-5 -42 -11 -85.5t-13 -83t-17 -70.5q-11 -44 -37 -71t-62.5 -37.5t-81.5 -7.5l-13 90q25 6 42 13t27 18t17 29q7 20 12.5 47t10 57.5t7.5 62t6 60.5q7 58 37.5 88.5t92.5 30.5h230zM509 491v-491h-121v491h121z" />
    <glyph glyph-name="uni043C" unicode="&#x43c;" horiz-adv-x="769" 
d="M648 491q42 0 43 -44l18 -447h-111l-17 401h-15l-100 -304q-4 -18 -15.5 -28t-31.5 -10h-71q-19 0 -30.5 10t-16.5 28l-100 304h-15l-15 -401h-110l17 447q0 44 44 44h112q19 0 30.5 -9.5t15.5 -29.5l80 -244q6 -18 10 -35.5t7 -36.5h13q4 19 8 36.5t9 35.5l80 244
q9 39 47 39h114z" />
    <glyph glyph-name="uni043D" unicode="&#x43d;" horiz-adv-x="595" 
d="M189 491v-491h-120v491h120zM416 302v-85h-233v85h233zM526 491v-491h-119v491h119z" />
    <glyph glyph-name="uni043E" unicode="&#x43e;" horiz-adv-x="583" 
d="M292 503q89 0 142.5 -25t77 -82t23.5 -151t-23.5 -150.5t-77 -82t-142.5 -25.5t-143 25.5t-78 82t-24 150.5t24 151t78 82t143 25zM292 411q-45 0 -70.5 -14.5t-36.5 -50.5t-11 -101t11 -101t36.5 -50t70.5 -14q44 0 69.5 14t36 50t10.5 101t-10.5 101t-36 50.5
t-69.5 14.5z" />
    <glyph glyph-name="uni043F" unicode="&#x43f;" horiz-adv-x="588" 
d="M519 491v-491h-119v491h119zM187 491v-491h-118v491h118zM409 491l-1 -88h-226v88h227z" />
    <glyph glyph-name="uni0440" unicode="&#x440;" horiz-adv-x="595" 
d="M374 503q93 0 132.5 -67t39.5 -194q0 -97 -20.5 -152.5t-61.5 -79t-103 -23.5q-51 0 -99 14.5t-87 45.5l8 60q39 -11 69.5 -19t68.5 -8q36 0 58 12.5t32 47.5t10 101q0 65 -9 101t-29.5 50.5t-53.5 14.5q-36 0 -68 -15.5t-73 -45.5l-15 64q23 27 55.5 48t70 33t75.5 12z
M168 491l13 -95l10 -14v-317l-5 -12q3 -29 4.5 -58.5t0.5 -60.5v-129h-121v686h98z" />
    <glyph glyph-name="uni0441" unicode="&#x441;" horiz-adv-x="502" 
d="M289 503q25 0 55 -2t60.5 -8t56.5 -17l-14 -76q-37 2 -73.5 3t-64.5 1q-49 0 -79 -13.5t-43 -48t-13 -96.5t13 -96.5t43 -48.5t79 -14q16 0 41 1t53.5 3t54.5 5l11 -78q-38 -16 -85.5 -23t-95.5 -7q-88 0 -141 25t-76.5 81.5t-23.5 151.5t23.5 151.5t77 81t141.5 24.5z
" />
    <glyph glyph-name="uni0442" unicode="&#x442;" horiz-adv-x="504" 
d="M313 491v-491h-121v491h121zM482 491v-95h-460v95h460z" />
    <glyph glyph-name="uni0443" unicode="&#x443;" horiz-adv-x="552" 
d="M538 491l-184 -506q-12 -36 -29.5 -66.5t-40.5 -55t-53 -40.5q-40 -24 -88 -27.5t-100 4.5l10 81q38 -1 70 3t56 19q20 13 36.5 37t27.5 52l26 61q9 22 17 50.5t15 49.5l108 338h129zM143 491l108 -338q5 -17 9 -34.5t8 -34.5h25l-40 -84h-31q-14 0 -25 8t-16 22
l-168 461h130z" />
    <glyph glyph-name="uni0444" unicode="&#x444;" horiz-adv-x="737" 
d="M369 503q117 0 187.5 -25.5t102 -82t31.5 -150.5q0 -93 -31.5 -150t-102 -82t-187.5 -25q-118 0 -188.5 25t-102.5 82t-32 150q0 94 32 150.5t102.5 82t188.5 25.5zM368 414q-78 0 -123 -14.5t-64 -51.5t-19 -103t19 -102.5t64 -51t123 -14.5q79 0 123.5 14.5t63.5 51
t19 102.5t-19 103t-63.5 51.5t-123.5 14.5zM423 700v-216l-5 -24v-414l5 -31v-210h-110v210l5 30v414l-5 25v216h110z" />
    <glyph glyph-name="uni0445" unicode="&#x445;" horiz-adv-x="553" 
d="M525 491l-146 -239l157 -252h-126l-151 252l141 239h125zM154 491l140 -239l-152 -252h-126l158 252l-145 239h125zM344 295v-81h-134v81h134z" />
    <glyph glyph-name="uni0446" unicode="&#x446;" horiz-adv-x="613" 
d="M189 491v-491h-119v491h119zM582 88v-88h-401l-1 88h402zM512 491l-1 -491h-119v491h120zM582 5v-147h-80l-11 147h91z" />
    <glyph glyph-name="uni0447" unicode="&#x447;" horiz-adv-x="553" 
d="M168 491v-182q0 -30 13.5 -42.5t43.5 -12.5q36 0 70.5 7t77.5 26l12 -84q-49 -21 -103 -31.5t-97 -10.5q-70 0 -103.5 27t-33.5 83v220h120zM483 491v-491h-121v491h121z" />
    <glyph glyph-name="uni0448" unicode="&#x448;" horiz-adv-x="825" 
d="M187 491v-491h-118v491h118zM667 88v-88h-487v88h487zM466 491v-491h-108v491h108zM754 491v-491h-116v491h116z" />
    <glyph glyph-name="uni0449" unicode="&#x449;" horiz-adv-x="855" 
d="M187 491v-491h-117v491h117zM825 88v-88h-645v88h645zM466 491v-491h-108v491h108zM754 491v-491h-116v491h116zM825 5v-147h-81l-11 147h92z" />
    <glyph glyph-name="uni044A" unicode="&#x44a;" horiz-adv-x="647" 
d="M398 311q81 0 128 -14.5t66.5 -49t19.5 -94.5q0 -62 -20.5 -97t-63 -48.5t-110.5 -13.5q-52 0 -90 0.5t-70 2t-66 3.5l12 83q19 -1 71 -2t123 -1q35 0 54.5 6t28 23t8.5 48q0 43 -18 59.5t-73 16.5h-195v78h195zM307 491v-491h-117v491h117zM22 491h232v-92h-232v92z" />
    <glyph glyph-name="uni044B" unicode="&#x44b;" horiz-adv-x="756" 
d="M279 311q80 0 125.5 -14.5t65 -49t19.5 -94.5q0 -62 -19.5 -97t-61.5 -48.5t-109 -13.5q-52 0 -90 0.5t-69.5 2t-66.5 3.5l12 83q18 -1 70.5 -2t123.5 -1q34 0 52.5 6t27 23t8.5 48q0 43 -18 59.5t-70 16.5h-195v78h195zM187 491v-491h-118v491h118zM687 491v-491h-123
v491h123z" />
    <glyph glyph-name="uni044C" unicode="&#x44c;" horiz-adv-x="530" 
d="M280 311q82 0 128.5 -14.5t66 -49t19.5 -94.5q0 -62 -20 -97t-63 -48.5t-112 -13.5q-52 0 -90 0.5t-69.5 2t-66.5 3.5l12 83q18 -1 71 -2t124 -1q34 0 54.5 6t29 23t8.5 48q0 29 -8 45.5t-27.5 23.5t-56.5 7h-196v78h196zM187 491v-491h-118v491h118z" />
    <glyph glyph-name="uni044D" unicode="&#x44d;" horiz-adv-x="523" 
d="M220 499q94 0 150 -24.5t80.5 -80t24.5 -151.5q0 -93 -24.5 -149.5t-80.5 -80.5t-150 -24q-60 0 -102.5 5.5t-82.5 17.5l11 80q39 -3 78 -4.5t96 -1.5q52 0 81 12.5t40.5 46.5t11.5 98t-12 99t-41 48t-80 13q-53 0 -90 -1t-79 -2l-11 78q41 13 83 17t97 4zM446 288v-77
h-342v77h342z" />
    <glyph glyph-name="uni044E" unicode="&#x44e;" horiz-adv-x="817" 
d="M527 503q67 0 113 -12t74.5 -41t41.5 -79t13 -126q0 -99 -23.5 -154.5t-76.5 -78t-142 -22.5q-84 0 -134.5 22.5t-72.5 78t-22 154.5q0 76 12.5 126t39.5 79t70.5 41t106.5 12zM191 491v-491h-121v491h121zM347 295v-86h-164v86h164zM526 407q-44 0 -69 -13.5t-35 -48.5
t-10 -98t10 -98t35 -49t69 -14q45 0 71 14t36.5 49t10.5 98t-10.5 98t-36.5 48.5t-71 13.5z" />
    <glyph glyph-name="uni044F" unicode="&#x44f;" horiz-adv-x="556" 
d="M258 498q60 0 99 -0.5t68.5 -2t60.5 -4.5l-12 -87q-10 3 -67 3.5t-147 0.5q-51 0 -67 -16.5t-16 -55.5q0 -45 17 -63.5t68 -18.5h213l2 -79q-14 0 -39.5 -1t-68.5 -1h-107q-31 0 -48 -10t-23 -32l-35 -131h-124l42 150q7 21 23 33.5t35.5 18t36.5 7.5v4q-41 7 -65 25.5
t-34.5 46.5t-10.5 63q0 39 9 67.5t31.5 47t61 27t97.5 8.5zM486 491v-491h-118v491h118z" />
    <glyph glyph-name="uni0450" unicode="&#x450;" horiz-adv-x="554" 
d="M288 503q119 0 171 -41.5t53 -122.5q0 -67 -31.5 -101.5t-106.5 -34.5h-281v75h248q32 0 42.5 18t9.5 44q0 41 -22.5 57t-78.5 16q-46 0 -72 -13t-36.5 -47t-10.5 -98q0 -68 13 -105t42.5 -50.5t80.5 -13.5q37 0 86 3t93 8l12 -77q-26 -11 -62 -18t-73.5 -10.5
t-70.5 -3.5q-89 0 -143.5 26.5t-79 83.5t-24.5 147q0 97 25 153.5t77.5 80.5t138.5 24zM169 750l189 -147l-37 -53l-210 115z" />
    <glyph glyph-name="uni0451" unicode="&#x451;" horiz-adv-x="554" 
d="M288 503q119 0 171 -41.5t53 -122.5q0 -67 -31.5 -101.5t-106.5 -34.5h-281v75h248q32 0 42.5 18t9.5 44q0 41 -22.5 57t-78.5 16q-46 0 -72 -13t-36.5 -47t-10.5 -98q0 -68 13 -105t42.5 -50.5t80.5 -13.5q37 0 86 3t93 8l12 -77q-26 -11 -62 -18t-73.5 -10.5
t-70.5 -3.5q-89 0 -143.5 26.5t-79 83.5t-24.5 147q0 97 25 153.5t77.5 80.5t138.5 24zM400 698q28 0 28 -29v-57q0 -28 -28 -28h-40q-28 0 -28 28v57q0 29 28 29h40zM219 698q28 0 28 -29v-57q0 -28 -28 -28h-40q-28 0 -28 28v57q0 29 28 29h40z" />
    <glyph glyph-name="uni0452" unicode="&#x452;" horiz-adv-x="597" 
d="M413 408q136 0 137 -135v-268q0 -42 -13.5 -81.5t-38 -71.5t-59.5 -54l-67 53q31 36 44 72.5t13 81.5v232q0 36 -16 51t-55 15q-35 0 -70.5 -13t-87.5 -42l-11 68q56 46 113 69t111 23zM214 700v-275q0 -36 -3.5 -69t-8.5 -56l11 -13v-287h-121v700h122zM394 547v-69
h-372v69h372z" />
    <glyph glyph-name="uni0453" unicode="&#x453;" horiz-adv-x="465" 
d="M186 494q66 0 134.5 -1t127.5 -9l-5 -85h-204q-28 0 -40 -12t-12 -39v-348h-120v381q0 57 30 85t89 28zM372 750l58 -86l-211 -115l-37 53z" />
    <glyph glyph-name="uni0454" unicode="&#x454;" horiz-adv-x="523" 
d="M303 499q58 0 98.5 -4t81.5 -17l-10 -78q-42 1 -79 2t-91 1q-50 0 -79.5 -13t-41.5 -48t-12 -99t12 -98t41.5 -46.5t79.5 -12.5q58 0 97 1.5t78 4.5l10 -80q-40 -13 -83.5 -18t-101.5 -5q-94 0 -150 24t-81 80.5t-25 149.5q0 96 25 151.5t81 80t150 24.5zM77 288h344v-77
h-344v77z" />
    <glyph glyph-name="uni0455" unicode="&#x455;" horiz-adv-x="523" 
d="M246 503q34 0 73 -2t77.5 -5.5t68.5 -9.5l-8 -79q-47 1 -94.5 2.5t-94.5 1.5q-42 0 -65 -2t-32.5 -12t-9.5 -34q0 -29 16 -38.5t51 -18.5l135 -31q60 -15 89 -45.5t29 -93.5q0 -61 -23 -92.5t-71 -43t-124 -11.5q-29 0 -85.5 2.5t-124.5 13.5l8 79q21 0 48 -1t58.5 -1
h63.5q53 0 82 3.5t40 15t11 33.5q0 28 -18.5 37.5t-54.5 18.5l-131 32q-44 12 -69.5 30.5t-36 46t-10.5 67.5q0 54 20.5 84t65 42t116.5 11z" />
    <glyph glyph-name="uni0456" unicode="&#x456;" horiz-adv-x="268" 
d="M194 491v-491h-121v491h121zM161 704q36 0 36 -36v-56q0 -36 -36 -36h-54q-36 0 -36 36v56q0 36 36 36h54z" />
    <glyph glyph-name="uni0457" unicode="&#x457;" horiz-adv-x="268" 
d="M195 491v-491h-122v491h122zM244 698q28 0 28 -29v-57q0 -28 -28 -28h-40q-28 0 -28 28v57q0 29 28 29h40zM63 698q28 0 28 -29v-57q0 -28 -28 -28h-40q-28 0 -28 28v57q0 29 28 29h40z" />
    <glyph glyph-name="uni0458" unicode="&#x458;" horiz-adv-x="268" 
d="M195 491v-483q0 -43 -14 -82t-39 -71.5t-61 -53.5l-67 53q33 36 46 72t13 82v483h122zM160 707q37 0 37 -36v-56q0 -36 -37 -36h-54q-35 0 -35 36v56q0 36 35 36h54z" />
    <glyph glyph-name="uni0459" unicode="&#x459;" horiz-adv-x="815" 
d="M474 491v-82h-168q-25 0 -37 -10.5t-15 -36.5q-5 -44 -9.5 -81t-10 -68t-12 -57t-16.5 -50q-22 -64 -68.5 -89t-105.5 -20l-8 83q22 6 43.5 17t35.5 42q9 20 15.5 42t11 50t9 65.5t9.5 87.5q11 107 122 107h204zM485 491v-491h-113v491h113zM570 312q80 0 125 -14.5
t64.5 -49.5t19.5 -96q0 -63 -20.5 -97.5t-63.5 -47.5t-111 -13q-45 0 -80.5 0.5t-66.5 2t-64 3.5l10 82q12 -1 39.5 -1.5t64.5 -1t78 -0.5q36 0 56.5 6t29.5 22.5t9 49.5q0 45 -18 61.5t-72 16.5h-189v77h189z" />
    <glyph glyph-name="uni045A" unicode="&#x45a;" horiz-adv-x="817" 
d="M576 307q79 0 123.5 -14.5t63.5 -47.5t19 -93q0 -61 -19.5 -95.5t-60.5 -48.5t-107 -14q-50 0 -87 0.5t-68.5 2t-65.5 3.5l12 82q19 -1 70 -2t120 -1q33 0 52 6t27 23t8 47q0 43 -17.5 59t-69.5 16h-192v77h192zM181 491v-491h-111v491h111zM380 307v-80h-205v80h205z
M487 491v-491h-114v491h114z" />
    <glyph glyph-name="uni045B" unicode="&#x45b;" horiz-adv-x="597" 
d="M413 408q137 0 137 -135v-273h-121v237q0 36 -16 51t-55 15q-35 0 -70.5 -13t-87.5 -42l-11 68q56 46 113 69t111 23zM214 700v-275q0 -36 -3.5 -69t-8.5 -56l11 -13v-287h-121v700h122zM394 547v-69h-372v69h372z" />
    <glyph glyph-name="uni045C" unicode="&#x45c;" horiz-adv-x="553" 
d="M512 491q-17 -50 -31 -88t-27 -63.5t-29.5 -42.5t-39 -26.5t-54.5 -13.5v-4q33 -3 57 -12t41.5 -26.5t32 -45t30 -69.5t35.5 -100h-127q-17 52 -31 89t-26 61t-26.5 37.5t-34 19t-45.5 5.5l-1 85q32 0 54 10.5t37.5 33.5t29.5 59.5t31 90.5h124zM190 491v-135
q0 -24 -4 -50t-13 -49q8 -22 12.5 -46t4.5 -44v-167h-121v491h121zM272 297v-85h-114v85h114zM398 750l58 -86l-211 -115l-37 53z" />
    <glyph glyph-name="uni045D" unicode="&#x45d;" horiz-adv-x="600" 
d="M530 491v-491l-109 -1v287q0 18 1.5 35.5t2.5 37.5h-2q-7 -16 -17 -34.5t-20 -31.5l-213 -293h-104v491h109v-290q0 -17 -1 -33.5t-3 -36.5h2q8 17 17.5 33t19.5 29l214 298h103zM178 750l189 -147l-37 -53l-210 115z" />
    <glyph glyph-name="uni045E" unicode="&#x45e;" horiz-adv-x="552" 
d="M538 491l-184 -506q-12 -36 -29.5 -66.5t-40.5 -55t-53 -40.5q-40 -24 -88 -27.5t-100 4.5l10 81q38 -1 70 3t56 19q20 13 36.5 37t27.5 52l26 61q9 22 17 50.5t15 49.5l108 338h129zM143 491l108 -338q5 -17 9 -34.5t8 -34.5h25l-40 -84h-31q-14 0 -25 8t-16 22
l-168 461h130zM347 709h83q5 -41 -13 -74.5t-55 -54t-89 -20.5t-89 20.5t-55.5 54t-14.5 74.5h83q-2 -44 18 -65.5t58 -21.5q37 0 56.5 21.5t17.5 65.5z" />
    <glyph glyph-name="uni045F" unicode="&#x45f;" horiz-adv-x="593" 
d="M189 491l2 -491h-121v491h119zM414 88l-2 -88h-228l-2 88h232zM523 491v-491h-122l2 491h120zM345 5l-8 -169h-81l-10 169h99z" />
    <glyph glyph-name="uni0462" unicode="&#x462;" horiz-adv-x="634" 
d="M383 -8q-60 0 -104.5 0.5t-81.5 2.5t-77 5l14 93q22 -1 83.5 -2t145.5 -1q47 0 72 9.5t34.5 36t9.5 74.5q0 46 -9 73t-34 38.5t-73 11.5h-230v91h230q91 0 144 -20.5t75.5 -67.5t22.5 -129q0 -85 -22.5 -131.5t-71.5 -65t-128 -18.5zM116 0v731h125v-731h-125zM1 540v80
h472v-80h-472z" />
    <glyph glyph-name="uni0463" unicode="&#x463;" horiz-adv-x="547" 
d="M297 311q82 0 129 -14.5t66.5 -49t19.5 -94.5q0 -62 -20 -97t-62.5 -48.5t-111.5 -13.5q-53 0 -91 0.5t-69.5 2t-66.5 3.5l12 83q19 -1 71.5 -2t122.5 -1q36 0 55.5 6t28.5 23t9 48q0 29 -8 45.5t-28 23.5t-57 7h-195v78h195zM204 690v-690h-116v690h116zM1 456v69h373
v-69h-373z" />
    <glyph glyph-name="uni046A" unicode="&#x46a;" horiz-adv-x="877" 
d="M1 0q33 87 57.5 150t48.5 104.5t53.5 66t71 36t102.5 13.5v4l-234 262q-10 12 -9.5 24t9.5 21t25 9h625q16 0 24.5 -9t9.5 -21t-9 -24l-231 -262v-4q60 -2 102 -13.5t71.5 -36t53.5 -66t48.5 -104t57.5 -150.5h-131q-30 87 -51 143.5t-40 89.5t-40 48.5t-49.5 20
t-70.5 4.5q2 -21 2.5 -39t0.5 -31v-236h-119v236q0 13 1.5 31t2.5 39q-42 0 -70.5 -5t-49.5 -20.5t-40 -48.5t-40.5 -89t-50.5 -143h-131zM438 401l181 201h-365z" />
    <glyph glyph-name="uni046B" unicode="&#x46b;" horiz-adv-x="717" 
d="M2 0q25 64 44 109t36.5 73.5t39.5 44.5t53.5 24t77.5 11v4l-171 173q-10 11 -9.5 23t8.5 20.5t23 8.5h507q15 0 23.5 -8.5t9.5 -20t-10 -23.5l-169 -173v-4q47 -3 78 -11t52.5 -24t39.5 -44.5t36.5 -73t44.5 -109.5h-126q-28 74 -46 116.5t-34.5 62.5t-38.5 25.5t-58 5.5
q1 -14 2 -26.5t1 -22.5v-161h-114v161q0 10 1 22.5t2 26.5q-36 0 -58.5 -6t-38.5 -26t-34 -62t-47 -116h-125zM359 280l131 132h-264z" />
    <glyph glyph-name="uni0472" unicode="&#x472;" horiz-adv-x="679" 
d="M149 307v84h378v-84h-378zM339 703q80 0 135 -17.5t88.5 -58.5t48.5 -110t15 -172q0 -102 -15 -171.5t-48.5 -110.5t-88.5 -58.5t-135 -17.5q-78 0 -133 17.5t-89 58.5t-49 110.5t-15 171.5q0 103 15 172t49 110t89 58.5t133 17.5zM339 601q-59 0 -92.5 -23.5t-47.5 -79
t-14 -153.5t14 -153.5t47.5 -79t92.5 -23.5q60 0 93.5 23.5t47.5 79t14 153.5t-14 153.5t-47.5 79t-93.5 23.5z" />
    <glyph glyph-name="uni0473" unicode="&#x473;" horiz-adv-x="583" 
d="M292 -13q-89 0 -143 25.5t-78 82t-24 150.5t24 151t78 82t143 25t142.5 -25t77 -82t23.5 -151t-23.5 -150.5t-77 -82t-142.5 -25.5zM292 80q46 0 72 14t36.5 50t10.5 101t-10.5 101t-36.5 50.5t-72 14.5t-72.5 -14.5t-37.5 -50.5t-11 -101t11 -101t37.5 -50t72.5 -14z
M132 219v63h319v-63h-319z" />
    <glyph glyph-name="uni0474" unicode="&#x474;" horiz-adv-x="664" 
d="M254 0q-17 0 -29 10t-16 25l-197 655h129l141 -519l10 -38t8 -38h26q3 13 6 24t6 24t7 29l94 405q7 30 19 53t31 40t45.5 25.5t60.5 8.5q14 0 32 -1t37 -5v-93q-7 1 -16.5 1.5t-14.5 0.5q-33 0 -51.5 -12.5t-28.5 -50.5l-135 -509q-4 -15 -16.5 -25t-29.5 -10h-118z" />
    <glyph glyph-name="uni0475" unicode="&#x475;" horiz-adv-x="558" 
d="M213 0q-14 0 -24.5 8.5t-14.5 22.5l-162 460h120l109 -350q5 -13 8 -27.5t7 -27.5h21q3 9 4.5 16.5t4.5 16.5t6 21l71 256q5 19 14 38t23.5 34t37 24t54.5 9q14 0 31 -1.5t34 -4.5v-87q-5 2 -12.5 2.5t-13.5 0.5q-27 0 -42.5 -10t-24.5 -39l-103 -331q-4 -14 -14.5 -22.5
t-26.5 -8.5h-107z" />
    <glyph glyph-name="uni048A" unicode="&#x48a;" horiz-adv-x="736" 
d="M505 92h203v-91l-41 -152h-89l31 151h-104v92zM625 690v-690h-120v449q0 22 2 44t5 43h-6q-7 -21 -17 -42.5t-20 -41.5l-267 -452h-124v690h120v-442q0 -23 -2 -46t-4 -45h4q9 21 19.5 42.5t21.5 41.5l264 449h124zM432 891h83q4 -40 -14 -73.5t-54.5 -54t-88.5 -20.5
t-89.5 20.5t-55.5 54t-15 73.5h83q-1 -44 19 -65t58 -21q36 0 56 21t18 65z" />
    <glyph glyph-name="uni048B" unicode="&#x48b;" horiz-adv-x="630" 
d="M423 84h180v-83l-42 -143h-82l34 142h-90v84zM530 491v-491l-109 -1v287q0 18 1.5 35.5t2.5 37.5h-2q-7 -16 -17 -34.5t-20 -31.5l-213 -293h-104v491h109v-290q0 -17 -1 -33.5t-3 -36.5h2q8 17 17.5 33t19.5 29l214 298h103zM373 708h83q4 -40 -14 -73.5t-54.5 -54
t-88.5 -20.5t-89.5 20.5t-55.5 54t-15 73.5h83q-1 -43 19 -64.5t58 -21.5q36 0 56 21.5t18 64.5z" />
    <glyph glyph-name="uni048C" unicode="&#x48c;" horiz-adv-x="631" 
d="M2 512v80h471v-80h-471zM366 424q91 0 144 -20.5t75.5 -67.5t22.5 -129q0 -85 -22.5 -131.5t-71 -65t-127.5 -18.5q-61 0 -105.5 0.5t-81.5 2.5t-77 5l14 93q23 -1 84 -2t145 -1q47 0 72 9.5t35 36t10 74.5q0 46 -9.5 73t-34 38.5t-73.5 11.5h-230v91h230zM245 690v-690
h-125v690h125z" />
    <glyph glyph-name="uni048D" unicode="&#x48d;" horiz-adv-x="547" 
d="M297 311q82 0 129 -14.5t66.5 -49t19.5 -94.5q0 -62 -20 -97t-62.5 -48.5t-111.5 -13.5q-53 0 -91 0.5t-69.5 2t-66.5 3.5l12 83q19 -1 71.5 -2t122.5 -1q36 0 55.5 6t28.5 23t9 48q0 29 -8 45.5t-28 23.5t-57 7h-195v78h195zM204 690v-690h-116v690h116zM1 456v69h373
v-69h-373z" />
    <glyph glyph-name="uni048E" unicode="&#x48e;" horiz-adv-x="618" 
d="M331 699q91 0 143.5 -19.5t75 -67t22.5 -134.5t-22 -135t-70.5 -67t-131.5 -19q-45 0 -87 3t-77.5 8t-60.5 10.5t-34 9.5l3 64h117h120q47 1 73.5 11.5t37.5 37.5t11 77t-11 77.5t-37.5 38t-73.5 10.5q-88 0 -150.5 -1t-85.5 -3l-15 90q41 4 76 6t76.5 2.5t100.5 0.5z
M204 690v-690h-126v690h126zM322 435l40 41l237 -236l-39 -41z" />
    <glyph glyph-name="uni048F" unicode="&#x48f;" horiz-adv-x="592" 
d="M299 171l46 33l192 -273l-46 -33zM373 503q92 0 131.5 -67t39.5 -194q0 -97 -20.5 -152.5t-61.5 -79t-104 -23.5q-50 0 -97.5 14.5t-87.5 45.5l8 57q39 -11 70 -19t68 -8q39 0 61.5 13t33.5 48.5t11 102.5q0 65 -10 101t-31.5 50.5t-56.5 14.5q-36 0 -68 -15.5t-74 -45.5
l-14 64q23 27 55.5 48t70.5 33t76 12zM166 491l12 -95l11 -14v-317l-5 -12q3 -29 4 -58.5t1 -60.5v-129h-121v686h98z" />
    <glyph glyph-name="uni0490" unicode="&#x490;" horiz-adv-x="532" 
d="M212 692q51 0 104 -0.5t104 -3.5t96 -10l-6 -87h-249q-30 0 -45 -15t-15 -46v-530h-125v554q0 62 38.5 100t97.5 38zM516 842v-164l-96 -22l14 186h82z" />
    <glyph glyph-name="uni0491" unicode="&#x491;" horiz-adv-x="472" 
d="M186 494q46 0 92 -0.5t91 -2.5t86 -7l-5 -85h-211q-27 1 -39 -11.5t-12 -39.5v-348h-121v381q0 57 30 85t89 28zM455 636v-152l-94 -25l14 177h80z" />
    <glyph glyph-name="uni0492" unicode="&#x492;" horiz-adv-x="551" 
d="M-1 283v80h447v-80h-447zM248 692q76 0 154 -1t146 -8l-6 -92h-245q-31 0 -46 -15t-15 -46v-530h-124v554q0 62 38.5 100t97.5 38z" />
    <glyph glyph-name="uni0493" unicode="&#x493;" horiz-adv-x="474" 
d="M109 210v11h120v-11h-120zM195 494q65 0 133.5 -1t127.5 -9l-5 -85h-204q-27 0 -39.5 -12t-12.5 -39v-348h-119v381q0 57 29.5 85t89.5 28z" />
    <glyph glyph-name="uni0494" unicode="&#x494;" horiz-adv-x="600" 
d="M304 -174l-18 87q41 11 70.5 26.5t48 41.5t27.5 69.5t9 111.5q0 58 -6.5 93t-19.5 53.5t-32 25t-46 6.5q-23 0 -48.5 -5t-53 -16t-57.5 -30l-7 83q51 38 106 54.5t104 16.5q40 0 74 -12.5t58.5 -43.5t38.5 -85t14 -139q0 -95 -21 -157.5t-57 -99.5t-83.5 -55t-100.5 -25z
M211 692q75 0 151.5 -1t144.5 -8l-6 -92h-241q-30 0 -45.5 -15t-15.5 -46v-530h-124v554q0 62 38.5 100t97.5 38z" />
    <glyph glyph-name="uni0495" unicode="&#x495;" horiz-adv-x="546" 
d="M186 494q41 0 84 -0.5t84.5 -2.5t78.5 -7l-5 -82h-189q-28 0 -40 -12t-12 -39v-351h-120v381q0 57 30 85t89 28zM263 -209l-17 84q53 11 85 34t47 62t15 100q0 52 -10.5 78.5t-30.5 36t-49 9.5q-34 0 -64 -10t-68 -35l-6 78q44 33 89.5 47.5t89.5 14.5q37 0 68 -10
t54 -34t36 -65t13 -102q0 -78 -19.5 -131t-54 -85t-80.5 -49t-98 -23z" />
    <glyph glyph-name="uni0496" unicode="&#x496;" horiz-adv-x="945" 
d="M942 92v-92h-162v92h162zM942 7v-158h-88l-11 158h99zM878 690q-20 -62 -37 -112t-33.5 -88t-37 -65t-47.5 -42.5t-65 -20.5v-4q40 -5 69 -20t50 -43t39.5 -69t37.5 -97t42 -129h-131q-29 84 -50.5 143.5t-41.5 97t-45.5 55.5t-62.5 18v91q35 0 60 19t44.5 55.5
t38.5 89.5t42 121h128zM165 690q23 -68 41.5 -121t38.5 -89.5t45 -55.5t59 -19v-91q-37 0 -62 -18t-45 -55.5t-41.5 -97t-50.5 -143.5h-131q24 73 42.5 129t36.5 97t40 69t50.5 43t68.5 20v4q-38 5 -65 20.5t-47.5 42.5t-37 65t-33 88t-36.5 112h127zM428 405v-91h-108v91
h108zM519 690v-204q0 -32 -4 -63t-14 -62q8 -29 13 -59.5t5 -58.5v-243h-120v243q0 28 6 58.5t13 59.5q-10 31 -14.5 62t-4.5 63v204h120zM595 405v-91h-103v91h103z" />
    <glyph glyph-name="uni0497" unicode="&#x497;" horiz-adv-x="833" 
d="M826 88v-88h-152l-1 88h153zM826 5v-147h-80l-11 147h91zM768 491q-18 -50 -31.5 -87t-26.5 -63t-28.5 -43.5t-37.5 -27t-54 -12.5v-4q33 -3 56.5 -12.5t40.5 -27t31.5 -46t29.5 -70t34 -98.5h-123q-23 64 -40 105.5t-32 65.5t-33.5 33t-46.5 9l-1 83q26 0 45 11t33.5 34
t29 60t33.5 90h121zM161 491q18 -53 33.5 -90t30 -60t32.5 -34t44 -11l-1 -83q-26 0 -44.5 -9t-33.5 -33t-31.5 -65.5t-41.5 -105.5h-123q19 57 34.5 98.5t30 70t31.5 46t40.5 27t56.5 12.5v4q-32 3 -54 12.5t-38 27t-29 43.5t-26.5 63t-30.5 87h120zM376 296v-83h-99v83h99
zM459 491v-135q0 -26 -4 -51t-13 -48q7 -22 12 -45.5t5 -43.5v-168h-107v168q0 20 5.5 43.5t11.5 45.5q-9 23 -12.5 48t-3.5 51v135h106zM532 296v-83h-96v83h96z" />
    <glyph glyph-name="uni0498" unicode="&#x498;" horiz-adv-x="560" 
d="M255 698q86 0 137 -15.5t74 -54.5t23 -110q0 -74 -27.5 -113t-90.5 -45v-4q78 -7 108 -54t30 -130q0 -71 -23 -110t-72 -54.5t-129 -15.5q-52 0 -96 2.5t-82 8.5t-75 16l10 86q49 -6 105 -11t116 -5q45 0 70.5 8.5t36.5 31.5t11 66q0 46 -11.5 71.5t-38.5 36t-74 10.5
h-126v89h126q41 1 64 9.5t33 30t10 60.5q0 40 -10.5 62t-36.5 30t-70 8q-57 0 -103 -4t-88 -8l-9 90q48 9 96 13.5t112 4.5zM227 -40q46 5 74.5 1.5t42.5 -18.5t13 -48q-2 -46 -27 -77.5t-66 -44.5t-94 -7l16 55q39 -1 64.5 15.5t26.5 48.5q1 16 -11 20.5t-51 5.5z" />
    <glyph glyph-name="uni0499" unicode="&#x499;" horiz-adv-x="507" 
d="M299 5l-9 -169h-81l-9 169h99zM212 500q85 0 136 -10t74 -38.5t23 -83.5q0 -54 -23.5 -81.5t-81.5 -32.5v-3q67 -5 95 -36.5t28 -93.5q0 -54 -23 -82.5t-71.5 -38.5t-125.5 -10q-50 0 -103.5 3.5t-104.5 13.5l8 85q43 -4 94 -6.5t98 -2.5q61 0 82.5 12.5t21.5 50.5
q0 25 -9.5 38.5t-32 19t-61.5 5.5l-132 1v78l131 2q36 0 55.5 5.5t27.5 18t8 36.5t-9.5 36t-33 16t-66.5 4t-85.5 -2.5t-74.5 -6.5l-9 85q45 12 89 15t75 3z" />
    <glyph glyph-name="uni049A" unicode="&#x49a;" horiz-adv-x="646" 
d="M646 92v-92h-175v92h175zM646 7v-158h-86l-11 158h97zM580 690q-21 -64 -38.5 -114.5t-34.5 -88.5t-37.5 -64t-47.5 -41t-65 -20v-4q41 -5 70 -20t50.5 -43t40 -69t37.5 -97t44 -129h-132q-27 84 -47.5 143.5t-42 97t-50 55.5t-72.5 18l-1 91q42 0 70.5 19t49.5 55.5
t39 89.5t40 121h127zM202 690v-204q0 -32 -4.5 -63.5t-13.5 -61.5q7 -29 12.5 -59.5t5.5 -58.5v-243h-125v690h125zM296 405v-91h-128v91h128z" />
    <glyph glyph-name="uni049B" unicode="&#x49b;" horiz-adv-x="574" 
d="M569 88v-88h-152v88h152zM569 5v-147h-81l-11 147h92zM512 491q-17 -50 -31 -88t-27 -63.5t-29.5 -42.5t-39 -26.5t-54.5 -13.5v-4q33 -3 57 -12t41.5 -26.5t32 -45t30 -69.5t35.5 -100h-127q-17 52 -31 89t-26 61t-26.5 37.5t-34 19t-45.5 5.5l-1 85q32 0 54 10.5
t37.5 33.5t29.5 59.5t31 90.5h124zM190 491v-135q0 -24 -4 -50t-13 -49q8 -22 12.5 -46t4.5 -44v-167h-121v491h121zM272 297v-85h-114v85h114z" />
    <glyph glyph-name="uni049C" unicode="&#x49c;" horiz-adv-x="623" 
d="M478 0q-28 84 -48 143.5t-41.5 97t-50 55.5t-72.5 18l-1 91q42 0 70 19t49.5 55.5t39.5 89.5t39 121h128q-21 -64 -38.5 -114.5t-34.5 -88.5t-37.5 -64t-47.5 -41t-65 -20v-4q41 -5 69.5 -20t50.5 -43t40.5 -69t37.5 -97t43 -129h-131zM77 0v690h121v-204
q0 -32 -4.5 -63.5t-12.5 -61.5q7 -29 12 -59.5t5 -58.5v-243h-121zM161 314v91h134v-91h-134zM255 166v387h64v-387h-64z" />
    <glyph glyph-name="uni049D" unicode="&#x49d;" horiz-adv-x="563" 
d="M522 491q-17 -50 -31 -88t-27 -63.5t-29.5 -42.5t-39 -26.5t-54.5 -13.5v-4q34 -3 57.5 -12t41 -26.5t32 -45t30 -69.5t35.5 -100h-127q-17 52 -31 89t-26.5 61t-27.5 37.5t-35.5 19t-48.5 5.5l-1 85q35 0 58 10.5t39 33.5t30 59.5t31 90.5h124zM190 491v-135
q0 -24 -4 -50t-13 -49q8 -22 12.5 -46t4.5 -44v-167h-121v491h121zM282 297v-85h-124v85h124zM240 107v296h53v-296h-53z" />
    <glyph glyph-name="uni049E" unicode="&#x49e;" horiz-adv-x="660" 
d="M1 520v80h369v-80h-369zM629 690q-22 -64 -39 -114.5t-34.5 -88.5t-37.5 -64t-47 -41t-65 -20v-4q40 -5 69 -20t50.5 -43t40 -69t38 -97t43.5 -129h-131q-28 84 -48.5 143.5t-42 97t-50 55.5t-71.5 18l-1 91q41 0 69.5 19t49.5 55.5t39.5 89.5t39.5 121h128zM250 690
v-204q0 -32 -4 -63.5t-13 -61.5q7 -29 12 -59.5t5 -58.5v-243h-124v690h124zM344 405v-91h-128v91h128z" />
    <glyph glyph-name="uni049F" unicode="&#x49f;" horiz-adv-x="553" 
d="M512 491q-17 -50 -31 -88t-27 -63.5t-29.5 -42.5t-39 -26.5t-54.5 -13.5v-4q33 -3 57 -12t41.5 -26.5t32 -45t30 -69.5t35.5 -100h-127q-17 52 -31 89t-26 61t-26.5 37.5t-34 19t-45.5 5.5l-1 85q32 0 54 10.5t37.5 33.5t29.5 59.5t31 90.5h124zM190 690v-334
q0 -24 -4 -50t-13 -49q8 -22 12.5 -46t4.5 -44v-167h-121v690h121zM272 297v-85h-114v85h114zM363 610v-69h-363v69h363z" />
    <glyph glyph-name="uni04A0" unicode="&#x4a0;" horiz-adv-x="749" 
d="M332 690v-102h-332v102h332zM718 690q-22 -64 -39 -114.5t-34.5 -88.5t-37.5 -64t-47 -41t-65 -20v-4q40 -5 69 -20t50.5 -43t40 -69t38 -97t43.5 -129h-131q-28 84 -48.5 143.5t-42 97t-50 55.5t-71.5 18l-1 91q41 0 69.5 19t49.5 55.5t39.5 89.5t39.5 121h128zM339 690
v-204q0 -32 -4 -63.5t-13 -61.5q7 -29 12 -59.5t5 -58.5v-243h-124v690h124zM433 405v-91h-128v91h128z" />
    <glyph glyph-name="uni04A1" unicode="&#x4a1;" horiz-adv-x="650" 
d="M608 491q-17 -50 -31 -88t-27 -63.5t-29.5 -42.5t-38.5 -26.5t-55 -13.5v-4q34 -3 58 -12t41.5 -26.5t32 -45t30 -69.5t34.5 -100h-127q-17 52 -31 89t-26 61t-26.5 37.5t-34 19t-45.5 5.5l-1 85q32 0 54 10.5t38 33.5t29.5 59.5t31.5 90.5h123zM286 491v-135
q0 -24 -4 -50t-13 -49q8 -22 12.5 -46t4.5 -44v-167h-120v491h120zM368 297v-85h-114v85h114zM-3 491h232v-92h-232v92z" />
    <glyph glyph-name="uni04A2" unicode="&#x4a2;" horiz-adv-x="701" 
d="M688 92v-92h-206v92h206zM688 7v-158h-88l-11 158h99zM205 690v-690h-126v690h126zM492 417v-98h-295v98h295zM606 690v-690h-125v690h125z" />
    <glyph glyph-name="uni04A3" unicode="&#x4a3;" horiz-adv-x="610" 
d="M595 88v-88h-147l-1 88h148zM595 5v-147h-80l-11 147h91zM189 491v-491h-120v491h120zM416 302v-85h-233v85h233zM526 491v-491h-119v491h119z" />
    <glyph glyph-name="uni04A4" unicode="&#x4a4;" horiz-adv-x="869" 
d="M457 0v554q0 62 38 100t98 38q66 0 134 -1t127 -8l-7 -92h-205q-31 0 -45.5 -15t-14.5 -46v-530h-125zM77 0v690h125v-690h-125zM194 319v98h279v-98h-279z" />
    <glyph glyph-name="uni04A5" unicode="&#x4a5;" horiz-adv-x="761" 
d="M189 491v-491h-120v491h120zM403 302v-85h-220v85h220zM513 494q59 0 119 -1t111 -9l-5 -85h-172q-27 0 -39 -12t-12 -39v-348h-121v381q0 57 30 85t89 28z" />
    <glyph glyph-name="uni04A6" unicode="&#x4a6;" horiz-adv-x="1005" 
d="M708 -169l-18 88q42 10 71 25t47.5 41t27.5 68.5t9 108.5q0 59 -6.5 95t-19.5 54.5t-32 25t-46 6.5q-23 0 -48 -5t-52.5 -16t-58.5 -30l-6 83q51 38 105.5 54t103.5 16q40 0 74 -12.5t59 -43.5t38.5 -86t13.5 -140q0 -94 -20.5 -155t-57 -97.5t-84 -54.5t-100.5 -25z
M77 0v690h125v-690h-125zM478 0v690h126v-690h-126zM194 598v92h295v-92h-295z" />
    <glyph glyph-name="uni04A7" unicode="&#x4a7;" horiz-adv-x="892" 
d="M610 -200l-18 82q53 14 86.5 41.5t49 77t15.5 129.5q0 55 -11 85.5t-32.5 42.5t-52.5 12q-33 0 -65.5 -10.5t-73.5 -37.5l-5 81q44 35 91.5 50.5t92.5 15.5q51 0 90.5 -22.5t62.5 -74.5t23 -140q0 -87 -20 -147.5t-55 -99t-81 -59t-97 -26.5zM519 491v-491h-119v491h119z
M187 491v-491h-118v491h118zM409 491l-1 -88h-226v88h227z" />
    <glyph glyph-name="uni04A8" unicode="&#x4a8;" horiz-adv-x="888" 
d="M343 606q-54 0 -89.5 -23.5t-52.5 -79.5t-17 -156q0 -95 27.5 -152.5t78 -83t119.5 -25.5q52 0 100.5 16t86.5 54.5t60.5 104.5t22.5 166q0 59 -9.5 97t-29.5 56t-54 18t-54.5 -19t-30 -58.5t-9.5 -101.5q0 -102 20.5 -167.5t54.5 -102.5t76.5 -52.5t85.5 -15.5
q47 0 77 3t57 6l12 -76q-19 -10 -55 -18t-94 -8q-70 0 -134.5 24.5t-115 76.5t-80.5 134t-30 197q0 97 24 159t71.5 91.5t118.5 29.5q75 0 124.5 -28.5t74.5 -87.5t25 -149q0 -110 -32.5 -193.5t-90 -140t-135 -85t-166.5 -28.5q-101 0 -174.5 37.5t-113 117.5t-39.5 208
q0 130 32.5 207t97.5 111t160 34v-97z" />
    <glyph glyph-name="uni04A9" unicode="&#x4a9;" horiz-adv-x="723" 
d="M279 422q-57 0 -85 -38.5t-28 -121.5q0 -99 40 -143.5t124 -44.5q43 0 83 11t71.5 37.5t49.5 71t18 111.5q0 61 -17 87.5t-55 26.5q-37 0 -53.5 -28t-16.5 -87q0 -64 15 -109t41 -73t59 -41t69 -13q38 0 68 4t51 12l15 -58q-19 -15 -52 -25t-84 -10q-58 0 -111 21.5
t-94 62t-64.5 99.5t-23.5 134q0 67 21 110.5t60 65t95 21.5q89 0 137 -49t48 -148q0 -68 -27 -126t-75.5 -101t-112.5 -66.5t-139 -23.5q-133 0 -196 66t-63 205q0 89 26 141.5t77.5 76.5t128.5 24v-82z" />
    <glyph glyph-name="uni04AA" unicode="&#x4aa;" 
d="M336 702q47 0 80 -2.5t61 -7t58 -12.5l-11 -93q-31 2 -58 3.5t-57.5 2.5t-72.5 1q-58 0 -91 -23t-46.5 -77t-13.5 -149t13.5 -149t46.5 -77t91 -23q67 0 112.5 2.5t89.5 7.5l11 -92q-45 -14 -93 -20t-120 -6q-104 0 -166 34.5t-89.5 112.5t-27.5 210t27.5 210t89.5 112.5
t166 34.5zM388 7l-6 -158h-88l-6 158h100z" />
    <glyph glyph-name="uni04AB" unicode="&#x4ab;" horiz-adv-x="500" 
d="M326 5l-8 -169h-81l-10 169h99zM288 503q25 0 55 -2t61 -8t56 -17l-14 -76q-37 2 -73.5 3t-63.5 1q-51 0 -80.5 -13.5t-42.5 -48t-13 -96.5t13 -96.5t42.5 -48.5t80.5 -14q15 0 39.5 1t53 3t55.5 5l12 -78q-39 -16 -87 -23t-95 -7q-88 0 -141 25t-76.5 81.5t-23.5 151.5
t24 151.5t77 81t141 24.5z" />
    <glyph glyph-name="uni04AC" unicode="&#x4ac;" horiz-adv-x="593" 
d="M440 92v-92h-206v92h206zM352 -151l-11 158h99v-158h-88zM359 690v-690h-125v690h125zM573 690v-102h-553v102h553z" />
    <glyph glyph-name="uni04AD" unicode="&#x4ad;" horiz-adv-x="505" 
d="M313 491v-491h-122v491h122zM489 491v-89h-473v89h473zM382 88v-88h-144v88h144zM382 5v-147h-80l-10 147h90z" />
    <glyph glyph-name="uni04AE" unicode="&#x4ae;" horiz-adv-x="594" 
d="M588 690l-233 -464h-116l-234 464h131l128 -270q9 -19 15.5 -41t13.5 -42h8q6 20 13 42t15 41l128 270h131zM359 305v-305h-125v305h125z" />
    <glyph glyph-name="uni04AF" unicode="&#x4af;" horiz-adv-x="605" 
d="M593 491l-233 -462h-114l-234 462h131l127 -267q9 -19 16 -41t13 -42h8q7 20 13.5 42t15.5 41l127 267h130zM365 110v-305h-123v305h123z" />
    <glyph glyph-name="uni04B0" unicode="&#x4b0;" horiz-adv-x="569" 
d="M508 283v-72h-415v72h415zM591 690l-233 -464h-117l-233 464h131l128 -270q9 -19 15.5 -41t12.5 -42h9q6 20 13 42t15 41l128 270h131zM362 305v-305h-125v305h125z" />
    <glyph glyph-name="uni04B1" unicode="&#x4b1;" horiz-adv-x="605" 
d="M593 491l-233 -462h-114l-234 462h131l127 -267q9 -19 16 -41t13 -42h8q7 20 13.5 42t15.5 41l127 267h130zM365 110v-305h-123v305h123zM510 85v-69h-414v69h414z" />
    <glyph glyph-name="uni04B2" unicode="&#x4b2;" horiz-adv-x="687" 
d="M600 690l-174 -334l188 -356h-131l-179 356l167 334h129zM159 690l167 -334l-179 -356h-131l188 356l-174 334h129zM380 398v-83h-136v83h136zM685 92v-92h-202v92h202zM685 7v-158h-89l-10 158h99z" />
    <glyph glyph-name="uni04B3" unicode="&#x4b3;" horiz-adv-x="553" 
d="M549 88v-88h-123v88h123zM549 5v-147h-80l-11 147h91zM523 491l-146 -239l158 -252h-125l-152 252l140 239h125zM152 491l141 -239l-151 -252h-127l158 252l-146 239h125zM343 295v-81h-134v81h134z" />
    <glyph glyph-name="uni04B4" unicode="&#x4b4;" horiz-adv-x="827" 
d="M607 0v690h126v-690h-126zM204 0v690h125v-690h-125zM321 0v92h493v-92h-493zM726 -151l-11 158h99v-158h-88zM20 588v102h501v-102h-501z" />
    <glyph glyph-name="uni04B5" unicode="&#x4b5;" horiz-adv-x="732" 
d="M526 0v491h123v-491h-123zM169 0v491h122v-491h-122zM284 0v92h432v-92h-432zM633 -143l-11 149h94v-149h-83zM14 402v89h425v-89h-425z" />
    <glyph glyph-name="uni04B6" unicode="&#x4b6;" horiz-adv-x="663" 
d="M221 241q-87 0 -128.5 40t-41.5 123v286h126v-260q0 -43 19.5 -63t69.5 -20q30 0 58.5 4t59.5 15t70 29l12 -85q-41 -23 -85 -39t-85 -23t-75 -7zM552 -151l-1 158h99l-10 -158h-88zM461 0v84h189v-84h-189zM440 0v690h125v-690h-125z" />
    <glyph glyph-name="uni04B7" unicode="&#x4b7;" horiz-adv-x="573" 
d="M168 491v-182q0 -30 13.5 -42.5t43.5 -12.5q35 0 69.5 7t77.5 26l12 -84q-49 -21 -103 -31.5t-97 -10.5q-69 0 -102.5 27t-33.5 83v220h120zM482 491l-2 -491h-119v491h121zM552 88v-88h-144v88h144zM552 5v-147h-81l-10 147h91z" />
    <glyph glyph-name="uni04B8" unicode="&#x4b8;" horiz-adv-x="643" 
d="M217 241q-84 0 -125 40t-41 123v286h124v-260q0 -43 19.5 -62.5t67.5 -19.5q32 0 61 4.5t61.5 15t72.5 28.5l12 -82q-42 -25 -87.5 -41.5t-87.5 -24t-77 -7.5zM279 120v395h63v-395h-63zM444 0v690h122v-690h-122z" />
    <glyph glyph-name="uni04B9" unicode="&#x4b9;" horiz-adv-x="556" 
d="M167 491v-182q0 -30 13.5 -42.5t44.5 -12.5q36 0 72 7t81 26l12 -84q-51 -21 -106.5 -31.5t-99.5 -10.5q-69 0 -102.5 27t-33.5 83v220h119zM487 491v-491h-121v491h121zM241 75v306h52v-306h-52z" />
    <glyph glyph-name="uni04BA" unicode="&#x4ba;" horiz-adv-x="629" 
d="M423 449q86 0 127.5 -39.5t41.5 -123.5v-286h-126v260q1 45 -19 64t-69 19q-29 0 -58.5 -4t-61 -14.5t-70.5 -29.5l-12 85q41 24 85.5 39.5t86.5 22.5t75 7zM202 690v-690h-125v690h125z" />
    <glyph glyph-name="uni04BB" unicode="&#x4bb;" horiz-adv-x="593" 
d="M391 503q137 0 137 -135v-368h-122v331q0 40 -13.5 55t-46.5 15q-37 0 -76 -16t-94 -48l-9 70q56 46 112.5 71t111.5 25zM189 700l1 -180q0 -37 -3.5 -69.5t-9.5 -55.5l12 -14v-381h-121v700h121z" />
    <glyph glyph-name="uni04BC" unicode="&#x4bc;" horiz-adv-x="738" 
d="M171 304q-98 0 -139.5 43.5t-29.5 141.5h93q-8 -50 10 -73.5t64 -23.5h305q39 0 62.5 9.5t34 30.5t10.5 54q0 59 -30 86t-96 27q-56 0 -88.5 -22t-46.5 -77t-14 -155q0 -81 9.5 -130.5t31 -75t58.5 -34t90 -8.5q32 0 58.5 0.5t54 3.5t60.5 8l11 -92q-21 -8 -54.5 -15
t-73 -10.5t-80.5 -3.5q-117 0 -181.5 36.5t-89.5 115t-25 204.5q0 104 15 173t48.5 110t88 58.5t133.5 17.5q84 0 138 -22.5t80.5 -69.5t26.5 -123q0 -66 -21 -106.5t-67 -59t-121 -18.5h-325z" />
    <glyph glyph-name="uni04BD" unicode="&#x4bd;" horiz-adv-x="651" 
d="M392 -12q-90 0 -144.5 26.5t-79 83.5t-24.5 147q0 97 25 153.5t78 80.5t138 24q119 0 171.5 -41.5t52.5 -122.5q1 -67 -31 -101.5t-108 -34.5h-313q-58 0 -95 17t-51.5 55.5t-5.5 103.5h82q-8 -59 9 -79.5t61 -21.5h281q33 0 42.5 18t9.5 44q0 41 -23 57t-77 16
q-46 0 -72 -13t-36.5 -47t-10.5 -98q0 -68 13 -105t42.5 -50.5t79.5 -13.5q37 0 85.5 3t93.5 8l12 -77q-26 -11 -61.5 -18t-73 -10.5t-70.5 -3.5z" />
    <glyph glyph-name="uni04BE" unicode="&#x4be;" horiz-adv-x="735" 
d="M500 7l-5 -158h-85l-7 158h97zM171 304q-98 0 -139.5 43.5t-29.5 141.5h93q-8 -50 10 -73.5t64 -23.5h305q39 0 62.5 9.5t34 30.5t10.5 54q0 59 -30 86t-96 27q-56 0 -88.5 -22t-46.5 -77t-14 -155q0 -81 9.5 -130.5t31 -75t58.5 -34t90 -8.5q32 0 58.5 0.5t54 3.5
t60.5 8l11 -92q-21 -8 -54.5 -15t-73 -10.5t-80.5 -3.5q-117 0 -181.5 36.5t-89.5 115t-25 204.5q0 104 15 173t48.5 110t88 58.5t133.5 17.5q84 0 138 -22.5t80.5 -69.5t26.5 -123q0 -66 -21 -106.5t-67 -59t-121 -18.5h-325z" />
    <glyph glyph-name="uni04BF" unicode="&#x4bf;" horiz-adv-x="651" 
d="M435 5l-9 -169h-81l-9 169h99zM392 -12q-90 0 -144.5 26.5t-79 83.5t-24.5 147q0 97 25 153.5t78 80.5t138 24q119 0 171.5 -41.5t52.5 -122.5q1 -67 -31 -101.5t-108 -34.5h-313q-58 0 -95 17t-51.5 55.5t-5.5 103.5h82q-8 -59 9 -79.5t61 -21.5h281q33 0 42.5 18
t9.5 44q0 41 -23 57t-77 16q-46 0 -72 -13t-36.5 -47t-10.5 -98q0 -68 13 -105t42.5 -50.5t79.5 -13.5q37 0 85.5 3t93.5 8l12 -77q-26 -11 -61.5 -18t-73 -10.5t-70.5 -3.5z" />
    <glyph glyph-name="uni04C0" unicode="&#x4c0;" horiz-adv-x="283" 
d="M204 690v-690h-125v690h125z" />
    <glyph glyph-name="uni04C1" unicode="&#x4c1;" horiz-adv-x="925" 
d="M883 690q-20 -62 -37 -112t-33.5 -88t-37 -65t-47.5 -42.5t-66 -20.5v-4q41 -5 69.5 -20t50 -43t40 -69t37.5 -97t42 -129h-131q-29 84 -50.5 143.5t-41.5 97t-45.5 55.5t-62.5 18v91q35 0 60 19t44.5 55.5t38.5 89.5t42 121h128zM170 690q23 -68 41.5 -121t38.5 -89.5
t45 -55.5t59 -19v-91q-37 0 -62 -18t-45 -55.5t-41.5 -97t-50.5 -143.5h-131q24 73 42.5 129t36.5 97t40 69t50.5 43t68.5 20v4q-38 5 -65 20.5t-47.5 42.5t-37 65t-33 88t-36.5 112h127zM433 405v-91h-108v91h108zM524 690v-204q0 -32 -4 -63t-14 -62q8 -29 13 -59.5
t5 -58.5v-243h-120v243q0 28 6 58.5t13 59.5q-10 31 -14.5 62t-4.5 63v204h120zM600 405v-91h-103v91h103zM538 891h83q5 -41 -13 -74.5t-55 -54t-89 -20.5t-89 20.5t-55.5 54t-14.5 74.5h83q-2 -44 18 -65.5t58 -21.5q37 0 56.5 21.5t17.5 65.5z" />
    <glyph glyph-name="uni04C2" unicode="&#x4c2;" horiz-adv-x="808" 
d="M768 491q-18 -50 -31.5 -87t-26.5 -63t-28.5 -43.5t-37.5 -27t-54 -12.5v-4q33 -3 56.5 -12.5t40.5 -27t31.5 -46t29.5 -70t34 -98.5h-123q-23 64 -40 105.5t-32 65.5t-33.5 33t-46.5 9l-1 83q26 0 45 11t33.5 34t29 60t33.5 90h121zM161 491q18 -53 33.5 -90t30 -60
t32.5 -34t44 -11l-1 -83q-26 0 -44.5 -9t-33.5 -33t-31.5 -65.5t-41.5 -105.5h-123q19 57 34.5 98.5t30 70t31.5 46t40.5 27t56.5 12.5v4q-32 3 -54 12.5t-38 27t-29 43.5t-26.5 63t-30.5 87h120zM376 296v-83h-99v83h99zM459 491v-135q0 -26 -4 -51t-13 -48q7 -22 12 -45.5
t5 -43.5v-168h-107v168q0 20 5.5 43.5t11.5 45.5q-9 23 -12.5 48t-3.5 51v135h106zM532 296v-83h-96v83h96zM481 709h83q5 -41 -13 -74.5t-55 -54t-89 -20.5t-89 20.5t-55.5 54t-14.5 74.5h83q-2 -44 18 -65.5t58 -21.5q37 0 56.5 21.5t17.5 65.5z" />
    <glyph glyph-name="uni04C3" unicode="&#x4c3;" horiz-adv-x="617" 
d="M310 -171v83q62 2 91.5 27t38.5 65.5t9 88.5q0 57 -13 98.5t-38.5 68.5t-61.5 39.5t-81 12.5h-87v93h86q42 0 70.5 18.5t49.5 55.5t39 90t40 121h127q-21 -64 -38.5 -114.5t-34.5 -88.5t-37.5 -64t-47.5 -41t-65 -20v-4q57 -2 99 -26t68.5 -61.5t39.5 -82.5t13 -91
q0 -88 -27.5 -149t-86.5 -91.5t-153 -27.5zM77 0v690h125v-204q0 -32 -4.5 -63.5t-13.5 -61.5q5 -30 9 -49.5t6.5 -34.5t2.5 -34v-243h-125z" />
    <glyph glyph-name="uni04C4" unicode="&#x4c4;" horiz-adv-x="557" 
d="M269 -169v78q57 3 85 23t36 52t8 69q0 54 -22 89.5t-58.5 52.5t-80.5 17l-1 85q32 0 54 10.5t37.5 33.5t29.5 59.5t31 90.5h124q-17 -50 -31 -88t-27 -63.5t-29.5 -42.5t-39 -26.5t-54.5 -13.5v-4q50 -6 93 -29.5t69 -66t26 -110.5q0 -67 -27.5 -116t-82.5 -75t-140 -25z
M69 0v491h121v-135q0 -24 -4 -50t-13 -49q8 -22 12.5 -46t4.5 -44v-167h-121zM158 212v85h114v-85h-114z" />
    <glyph glyph-name="uni04C5" unicode="&#x4c5;" horiz-adv-x="671" 
d="M454 92h204v-91l-42 -152h-89l31 151h-104v92zM565 690v-92h-222q-62 0 -68 -63q-6 -76 -11.5 -135t-12.5 -105.5t-16.5 -84t-24.5 -70.5q-20 -52 -49.5 -85t-68.5 -47t-87 -10l-10 97q33 8 58 24.5t41 54.5q10 23 17.5 48t13.5 55.5t11 69.5t9.5 89t9.5 114
q12 140 150 140h260zM579 690v-690h-125v690h125z" />
    <glyph glyph-name="uni04C6" unicode="&#x4c6;" horiz-adv-x="600" 
d="M413 89h173v-89l-42 -143h-85l31 143h-77v89zM496 491v-87h-191q-27 0 -39.5 -12.5t-16.5 -41.5q-5 -42 -11 -85.5t-13 -83t-17 -70.5q-11 -44 -37 -71t-62.5 -37.5t-81.5 -7.5l-13 90q25 6 42 13t27 18t17 29q7 20 12.5 47t10 57.5t7.5 62t6 60.5q7 58 37.5 88.5
t92.5 30.5h230zM509 491v-491h-121v491h121z" />
    <glyph glyph-name="uni04C7" unicode="&#x4c7;" horiz-adv-x="683" 
d="M202 690v-690h-125v690h125zM490 417v-98h-296v98h296zM479 690h125v-635q0 -68 -19.5 -115t-55 -75t-83 -37t-104.5 0v83q55 0 84.5 17t41 50.5t11.5 82.5v629z" />
    <glyph glyph-name="uni04C8" unicode="&#x4c8;" horiz-adv-x="595" 
d="M189 491v-491h-120v491h120zM416 302v-85h-233v85h233zM526 35q0 -61 -17.5 -103.5t-48.5 -67.5t-73.5 -34t-91.5 -2v78q45 0 69 14t33.5 43t9.5 73v455h119v-456z" />
    <glyph glyph-name="uni04C9" unicode="&#x4c9;" horiz-adv-x="698" 
d="M479 92h205v-91l-43 -152h-88l31 151h-105v92zM202 690v-690h-125v690h125zM490 417v-98h-296v98h296zM604 690v-690h-125v690h125z" />
    <glyph glyph-name="uni04CA" unicode="&#x4ca;" horiz-adv-x="616" 
d="M426 92h177v-92l-42 -146h-89l31 146h-77v92zM189 491v-491h-120v491h120zM416 302v-85h-233v85h233zM526 491v-491h-119v491h119z" />
    <glyph glyph-name="uni04CB" unicode="&#x4cb;" horiz-adv-x="631" 
d="M289 92h262v-92h-262v92zM289 7h100l-10 -158h-88zM162 690v-260q0 -43 19.5 -62.5t66.5 -19.5q32 0 60.5 4.5t60.5 15t71 28.5l11 -82q-41 -25 -85.5 -41.5t-86 -24t-76.5 -7.5q-85 0 -125.5 40t-40.5 123v286h125zM551 690v-690h-125v690h125z" />
    <glyph glyph-name="uni04CC" unicode="&#x4cc;" horiz-adv-x="553" 
d="M291 79h144v-79h-144v79zM291 5h92l-11 -147h-81v147zM168 491v-182q0 -30 13.5 -42.5t43.5 -12.5q36 0 70.5 7t77.5 26l12 -84q-49 -21 -103 -31.5t-97 -10.5q-70 0 -103.5 27t-33.5 83v220h120zM483 491v-491h-121v491h121z" />
    <glyph glyph-name="uni04CD" unicode="&#x4cd;" horiz-adv-x="922" 
d="M718 92h203v-91l-42 -152h-88l31 151h-104v92zM760 690q47 0 48 -48l27 -642h-119l-24 591h-19l-129 -463q-9 -41 -51 -41h-88q-43 0 -53 41l-129 463h-19l-22 -591h-119l27 642q2 48 48 48h125q40 0 50 -41l106 -378q7 -24 11.5 -48t10.5 -48h15q6 24 11 48t11 49
l106 377q9 41 51 41h125z" />
    <glyph glyph-name="uni04CE" unicode="&#x4ce;" horiz-adv-x="784" 
d="M612 92h171v-92l-42 -146h-89l31 146h-71v92zM648 491q42 0 43 -44l18 -447h-111l-17 401h-15l-100 -304q-4 -18 -15.5 -28t-31.5 -10h-71q-19 0 -30.5 10t-16.5 28l-100 304h-15l-15 -401h-110l17 447q0 44 44 44h112q19 0 30.5 -9.5t15.5 -29.5l80 -244q6 -18 10 -35.5
t7 -36.5h13q4 19 8 36.5t9 35.5l80 244q9 39 47 39h114z" />
    <glyph glyph-name="uni04CF" unicode="&#x4cf;" horiz-adv-x="265" 
d="M193 690v-690h-121v690h121z" />
    <glyph glyph-name="uni04D0" unicode="&#x4d0;" horiz-adv-x="640" 
d="M381 690q16 0 28 -9t17 -24l209 -657h-128l-158 532l-8 32t-7 31h-28q-3 -15 -7 -31t-9 -32l-157 -532h-128l209 657q4 15 16.5 24t28.5 9h122zM497 295v-98h-355v98h355zM396 890h83q5 -41 -13 -74.5t-55 -54t-89 -20.5t-89 20.5t-55.5 54t-14.5 74.5h83
q-2 -44 18 -65.5t58 -21.5q37 0 56.5 21.5t17.5 65.5z" />
    <glyph glyph-name="uni04D1" unicode="&#x4d1;" horiz-adv-x="564" 
d="M317 503q59 0 99.5 -15.5t61 -52.5t20.5 -102v-333h-96l-17 106l-8 14v214q-1 39 -19 56.5t-68 17.5q-39 0 -96.5 -3t-115.5 -8l-11 83q35 7 79.5 12t89 8t81.5 3zM446 302l-1 -75h-224q-31 -1 -44 -16t-13 -41v-27q0 -30 16.5 -45t49.5 -15q27 0 60 10.5t65.5 31.5
t58.5 50v-63q-9 -15 -28 -35.5t-46.5 -40.5t-63.5 -33t-79 -13q-44 0 -79 15.5t-54.5 46t-19.5 75.5v52q0 58 38 90.5t106 32.5h258zM354 711h83q5 -41 -13 -74.5t-55 -54t-89 -20.5t-89 20.5t-55.5 54t-14.5 74.5h83q-2 -44 18 -65.5t58 -21.5q37 0 56.5 21.5t17.5 65.5z
" />
    <glyph glyph-name="uni04D2" unicode="&#x4d2;" horiz-adv-x="640" 
d="M381 690q16 0 28 -9t17 -24l209 -657h-128l-158 532l-8 32t-7 31h-28q-3 -15 -7 -31t-9 -32l-157 -532h-128l209 657q4 15 16.5 24t28.5 9h122zM497 295v-98h-355v98h355zM432 879q28 0 28 -29v-57q0 -28 -28 -28h-40q-29 0 -29 28v57q0 29 29 29h40zM252 879
q28 0 28 -29v-57q0 -28 -28 -28h-41q-28 0 -28 28v57q0 29 28 29h41z" />
    <glyph glyph-name="uni04D3" unicode="&#x4d3;" horiz-adv-x="564" 
d="M317 503q59 0 99.5 -15.5t61 -52.5t20.5 -102v-333h-96l-17 106l-8 14v214q-1 39 -19 56.5t-68 17.5q-39 0 -96.5 -3t-115.5 -8l-11 83q35 7 79.5 12t89 8t81.5 3zM446 302l-1 -75h-224q-31 -1 -44 -16t-13 -41v-27q0 -30 16.5 -45t49.5 -15q27 0 60 10.5t65.5 31.5
t58.5 50v-63q-9 -15 -28 -35.5t-46.5 -40.5t-63.5 -33t-79 -13q-44 0 -79 15.5t-54.5 46t-19.5 75.5v52q0 58 38 90.5t106 32.5h258zM388 701q28 0 28 -29v-57q0 -28 -28 -28h-40q-28 0 -28 28v57q0 29 28 29h40zM208 701q27 0 27 -29v-57q0 -28 -27 -28h-41q-28 0 -28 28
v57q0 29 28 29h41z" />
    <glyph glyph-name="uni04D4" unicode="&#x4d4;" horiz-adv-x="925" 
d="M570 691q93 0 165 -1t146 -6l-6 -93h-249q-27 0 -43.5 -16t-16.5 -44v-374q0 -29 15 -43.5t45 -14.5h249l6 -93q-74 -6 -152 -7t-155 -1q-57 0 -91 37t-34 94v412q0 19 8 39t19 30h-10q-11 -8 -23.5 -23.5t-24.5 -34.5l-295 -552h-129l313 568q19 35 40.5 59t51 38
t71.5 20t100 6zM480 301v-94h-317l6 94h311zM461 406h376v-89l-376 -1v90z" />
    <glyph glyph-name="uni04D5" unicode="&#x4d5;" horiz-adv-x="875" 
d="M611 503q119 0 170.5 -41.5t52.5 -122.5q1 -45 -14 -75.5t-47 -45.5t-85 -15h-269v75h237q36 0 48 17t11 45q0 40 -22.5 56.5t-76.5 16.5q-47 0 -73 -13t-36.5 -47t-10.5 -98q0 -68 13 -105t42.5 -50.5t81.5 -13.5q36 0 84 3t94 8l11 -77q-26 -11 -61.5 -18t-72.5 -10.5
t-70 -3.5q-89 0 -143 26.5t-78.5 83.5t-24.5 147q0 97 24.5 153.5t77 80.5t137.5 24zM443 301l-1 -74h-224q-30 -1 -42.5 -16t-12.5 -41v-27q0 -30 16 -45t49 -15q28 0 60.5 10.5t66 32t59.5 52.5l3 -67q-10 -15 -29.5 -35.5t-47.5 -40.5t-64.5 -32.5t-80.5 -12.5
t-78.5 15.5t-54.5 46t-20 75.5v52q0 58 38 90t105 32h258zM313 503q59 0 99.5 -15.5t61 -52.5t20.5 -102v-97h-122v98q0 39 -18 56.5t-68 17.5q-38 0 -95 -3t-114 -8l-12 83q35 7 79 12t88.5 8t80.5 3z" />
    <glyph glyph-name="uni04D6" unicode="&#x4d6;" horiz-adv-x="571" 
d="M213 692h106.5t107 -2t100.5 -6l-6 -93h-270q-28 0 -41 -14t-13 -44v-376q0 -30 13 -44t41 -14h270l6 -93q-48 -4 -100.5 -5.5t-107 -2t-106.5 -0.5q-64 0 -102.5 35.5t-38.5 95.5v432q0 60 38.5 95.5t102.5 35.5zM89 407h394v-92h-394v92zM385 891h83q5 -41 -13 -74.5
t-55 -54t-89 -20.5t-89 20.5t-55.5 54t-14.5 74.5h83q-2 -44 18 -65.5t58 -21.5q37 0 56.5 21.5t17.5 65.5z" />
    <glyph glyph-name="uni04D7" unicode="&#x4d7;" horiz-adv-x="554" 
d="M288 503q119 0 171 -41.5t53 -122.5q0 -67 -31.5 -101.5t-106.5 -34.5h-281v75h248q32 0 42.5 18t9.5 44q0 41 -22.5 57t-78.5 16q-46 0 -72 -13t-36.5 -47t-10.5 -98q0 -68 13 -105t42.5 -50.5t80.5 -13.5q37 0 86 3t93 8l12 -77q-26 -11 -62 -18t-73.5 -10.5
t-70.5 -3.5q-89 0 -143.5 26.5t-79 83.5t-24.5 147q0 97 25 153.5t77.5 80.5t138.5 24zM364 709h83q5 -41 -13 -74.5t-55 -54t-89 -20.5t-89 20.5t-55.5 54t-14.5 74.5h83q-2 -44 18 -65.5t58 -21.5q37 0 56.5 21.5t17.5 65.5z" />
    <glyph glyph-name="uni04D8" unicode="&#x4d8;" horiz-adv-x="613" 
d="M279 -12q-83 0 -137.5 23t-81 72t-26.5 127q0 52 12 89.5t36.5 61t64 34.5t95.5 11h251l-3 -88h-225q-39 0 -62.5 -11t-34 -34.5t-10.5 -60.5q0 -63 30.5 -91.5t95.5 -28.5q56 0 88.5 22t46.5 77t14 155q0 81 -9.5 130.5t-31.5 74.5t-58.5 34t-89.5 9q-32 0 -59 -1
t-54.5 -3.5t-59.5 -7.5l-11 92q22 8 55 15t72.5 10.5t80.5 3.5q117 0 181.5 -36.5t89.5 -115t25 -204.5q0 -104 -15.5 -173t-49 -110t-88 -58.5t-132.5 -17.5z" />
    <glyph glyph-name="uni04D9" unicode="&#x4d9;" horiz-adv-x="554" 
d="M267 -12q-119 0 -171.5 42t-53.5 124q0 69 33.5 105.5t113.5 36.5h272v-76h-240q-38 0 -49 -19.5t-10 -48.5q0 -40 23 -57t77 -17q46 0 72 13t36.5 47.5t10.5 98.5q0 68 -13 105t-42.5 50.5t-79.5 13.5q-37 0 -85 -3.5t-94 -8.5l-12 77q27 12 62 19t72.5 10t70.5 3
q90 0 144.5 -26t78.5 -83t24 -148q0 -96 -24 -153t-77 -81t-139 -24z" />
    <glyph glyph-name="uni04DA" unicode="&#x4da;" horiz-adv-x="613" 
d="M279 -12q-83 0 -137.5 23t-81 72t-26.5 127q0 52 12 89.5t36.5 61t64 34.5t95.5 11h251l-3 -88h-225q-39 0 -62.5 -11t-34 -34.5t-10.5 -60.5q0 -63 30.5 -91.5t95.5 -28.5q56 0 88.5 22t46.5 77t14 155q0 81 -9.5 130.5t-31.5 74.5t-58.5 34t-89.5 9q-32 0 -59 -1
t-54.5 -3.5t-59.5 -7.5l-11 92q22 8 55 15t72.5 10.5t80.5 3.5q117 0 181.5 -36.5t89.5 -115t25 -204.5q0 -104 -15.5 -173t-49 -110t-88 -58.5t-132.5 -17.5zM407 881q28 0 28 -29v-57q0 -28 -28 -28h-40q-29 0 -29 28v57q0 29 29 29h40zM227 881q28 0 28 -29v-57
q0 -28 -28 -28h-41q-28 0 -28 28v57q0 29 28 29h41z" />
    <glyph glyph-name="uni04DB" unicode="&#x4db;" horiz-adv-x="554" 
d="M267 -12q-119 0 -171.5 42t-53.5 124q0 69 33.5 105.5t113.5 36.5h272v-76h-240q-38 0 -49 -19.5t-10 -48.5q0 -40 23 -57t77 -17q46 0 72 13t36.5 47.5t10.5 98.5q0 68 -13 105t-42.5 50.5t-79.5 13.5q-37 0 -85 -3.5t-94 -8.5l-12 77q27 12 62 19t72.5 10t70.5 3
q90 0 144.5 -26t78.5 -83t24 -148q0 -96 -24 -153t-77 -81t-139 -24zM390 698q28 0 28 -29v-57q0 -28 -28 -28h-40q-29 0 -29 28v57q0 29 29 29h40zM210 698q28 0 28 -29v-57q0 -28 -28 -28h-41q-28 0 -28 28v57q0 29 28 29h41z" />
    <glyph glyph-name="uni04DC" unicode="&#x4dc;" horiz-adv-x="925" 
d="M883 690q-20 -62 -37 -112t-33.5 -88t-37 -65t-47.5 -42.5t-66 -20.5v-4q41 -5 69.5 -20t50 -43t40 -69t37.5 -97t42 -129h-131q-29 84 -50.5 143.5t-41.5 97t-45.5 55.5t-62.5 18v91q35 0 60 19t44.5 55.5t38.5 89.5t42 121h128zM170 690q23 -68 41.5 -121t38.5 -89.5
t45 -55.5t59 -19v-91q-37 0 -62 -18t-45 -55.5t-41.5 -97t-50.5 -143.5h-131q24 73 42.5 129t36.5 97t40 69t50.5 43t68.5 20v4q-38 5 -65 20.5t-47.5 42.5t-37 65t-33 88t-36.5 112h127zM433 405v-91h-108v91h108zM524 690v-204q0 -32 -4 -63t-14 -62q8 -29 13 -59.5
t5 -58.5v-243h-120v243q0 28 6 58.5t13 59.5q-10 31 -14.5 62t-4.5 63v204h120zM600 405v-91h-103v91h103zM573 880q28 0 28 -29v-57q0 -28 -28 -28h-40q-28 0 -28 28v57q0 29 28 29h40zM393 880q27 0 27 -29v-57q0 -28 -27 -28h-41q-28 0 -28 28v57q0 29 28 29h41z" />
    <glyph glyph-name="uni04DD" unicode="&#x4dd;" horiz-adv-x="808" 
d="M768 491q-18 -50 -31.5 -87t-26.5 -63t-28.5 -43.5t-37.5 -27t-54 -12.5v-4q33 -3 56.5 -12.5t40.5 -27t31.5 -46t29.5 -70t34 -98.5h-123q-23 64 -40 105.5t-32 65.5t-33.5 33t-46.5 9l-1 83q26 0 45 11t33.5 34t29 60t33.5 90h121zM161 491q18 -53 33.5 -90t30 -60
t32.5 -34t44 -11l-1 -83q-26 0 -44.5 -9t-33.5 -33t-31.5 -65.5t-41.5 -105.5h-123q19 57 34.5 98.5t30 70t31.5 46t40.5 27t56.5 12.5v4q-32 3 -54 12.5t-38 27t-29 43.5t-26.5 63t-30.5 87h120zM376 296v-83h-99v83h99zM459 491v-135q0 -26 -4 -51t-13 -48q7 -22 12 -45.5
t5 -43.5v-168h-107v168q0 20 5.5 43.5t11.5 45.5q-9 23 -12.5 48t-3.5 51v135h106zM532 296v-83h-96v83h96zM515 698q28 0 28 -29v-57q0 -28 -28 -28h-40q-28 0 -28 28v57q0 29 28 29h40zM335 698q27 0 27 -29v-57q0 -28 -27 -28h-41q-28 0 -28 28v57q0 29 28 29h41z" />
    <glyph glyph-name="uni04DE" unicode="&#x4de;" horiz-adv-x="560" 
d="M255 698q86 0 137 -15.5t74 -54.5t23 -110q0 -74 -27.5 -113t-90.5 -45v-4q78 -7 108 -54t30 -130q0 -71 -23 -110t-72 -54.5t-129 -15.5q-52 0 -96 2.5t-82 8.5t-75 16l10 86q49 -6 105 -11t116 -5q45 0 70.5 8.5t36.5 31.5t11 66q0 46 -11.5 71.5t-38.5 36t-74 10.5
h-126v89h126q41 1 64 9.5t33 30t10 60.5q0 40 -10.5 62t-36.5 30t-70 8q-57 0 -103 -4t-88 -8l-9 90q48 9 96 13.5t112 4.5zM376 880q28 0 28 -29v-57q0 -28 -28 -28h-40q-28 0 -28 28v57q0 29 28 29h40zM196 880q27 0 27 -29v-57q0 -28 -27 -28h-41q-28 0 -28 28v57
q0 29 28 29h41z" />
    <glyph glyph-name="uni04DF" unicode="&#x4df;" horiz-adv-x="507" 
d="M212 500q85 0 136 -10t74 -38.5t23 -83.5q0 -54 -23.5 -81.5t-81.5 -32.5v-3q67 -5 95 -36.5t28 -93.5q0 -54 -23 -82.5t-71.5 -38.5t-125.5 -10q-50 0 -103.5 3.5t-104.5 13.5l8 85q43 -4 94 -6.5t98 -2.5q61 0 82.5 12.5t21.5 50.5q0 25 -9.5 38.5t-32 19t-61.5 5.5
l-132 1v78l131 2q36 0 55.5 5.5t27.5 18t8 36.5t-9.5 36t-33 16t-66.5 4t-85.5 -2.5t-74.5 -6.5l-9 85q45 12 89 15t75 3zM357 698q28 0 28 -29v-57q0 -28 -28 -28h-40q-28 0 -28 28v57q0 29 28 29h40zM177 698q27 0 27 -29v-57q0 -28 -27 -28h-41q-28 0 -28 28v57
q0 29 28 29h41z" />
    <glyph glyph-name="uni04E0" unicode="&#x4e0;" horiz-adv-x="520" 
d="M241 -10q-34 0 -72.5 2.5t-77.5 7t-74 11.5l7 90q22 -2 46.5 -4t50 -3.5t51.5 -2.5t51 -1q54 0 84.5 12.5t42.5 38t12 64.5q0 66 -27 92.5t-102 26.5h-133v67l261 239l36 -33h-367v93h418q6 0 9 -3t3 -9v-69l-276 -249l-19 34h91q76 0 128 -17t78 -59.5t26 -117.5
q0 -72 -22.5 -118.5t-76 -69t-148.5 -22.5z" />
    <glyph glyph-name="uni04E1" unicode="&#x4e1;" horiz-adv-x="498" 
d="M235 -209q-32 0 -68 2t-73 7t-70 12l6 90l60 -6t61 -4.5t62 -1.5q50 0 77 12.5t38 38t11 64.5q0 64 -24 90t-91 26h-124v71l237 238l41 -33h-341v94h389q6 0 9.5 -3.5t3.5 -9.5v-69l-259 -248l-13 35h85q69 0 116 -17t72 -59.5t25 -119.5q0 -72 -21 -118.5t-71 -68.5
t-138 -22z" />
    <glyph glyph-name="uni04E2" unicode="&#x4e2;" horiz-adv-x="703" 
d="M625 690v-690h-120v449q0 22 2 44t5 43h-6q-7 -21 -17 -42.5t-20 -41.5l-267 -452h-124v690h120v-442q0 -23 -2 -46t-4 -45h4q9 21 19.5 42.5t21.5 41.5l264 449h124zM501 862v-80h-290v80h290z" />
    <glyph glyph-name="uni04E3" unicode="&#x4e3;" horiz-adv-x="600" 
d="M530 491v-491l-109 -1v287q0 18 1.5 35.5t2.5 37.5h-2q-7 -16 -17 -34.5t-20 -31.5l-213 -293h-104v491h109v-290q0 -17 -1 -33.5t-3 -36.5h2q8 17 17.5 33t19.5 29l214 298h103zM443 680v-80h-290v80h290z" />
    <glyph glyph-name="uni04E4" unicode="&#x4e4;" horiz-adv-x="703" 
d="M625 690v-690h-120v449q0 22 2 44t5 43h-6q-7 -21 -17 -42.5t-20 -41.5l-267 -452h-124v690h120v-442q0 -23 -2 -46t-4 -45h4q9 21 19.5 42.5t21.5 41.5l264 449h124zM466 880q28 0 28 -29v-57q0 -28 -28 -28h-40q-28 0 -28 28v57q0 29 28 29h40zM286 880q27 0 27 -29
v-57q0 -28 -27 -28h-41q-28 0 -28 28v57q0 29 28 29h41z" />
    <glyph glyph-name="uni04E5" unicode="&#x4e5;" horiz-adv-x="600" 
d="M530 491v-491l-109 -1v287q0 18 1.5 35.5t2.5 37.5h-2q-7 -16 -17 -34.5t-20 -31.5l-213 -293h-104v491h109v-290q0 -17 -1 -33.5t-3 -36.5h2q8 17 17.5 33t19.5 29l214 298h103zM407 698q28 0 28 -29v-57q0 -28 -28 -28h-40q-28 0 -28 28v57q0 29 28 29h40zM227 698
q27 0 27 -29v-57q0 -28 -27 -28h-41q-28 0 -28 28v57q0 29 28 29h41z" />
    <glyph glyph-name="uni04E6" unicode="&#x4e6;" horiz-adv-x="679" 
d="M339 703q80 0 135 -17.5t88.5 -58.5t48.5 -110t15 -172q0 -102 -15 -171.5t-48.5 -110.5t-88.5 -58.5t-135 -17.5q-78 0 -133 17.5t-89 58.5t-49 110.5t-15 171.5q0 103 15 172t49 110t89 58.5t133 17.5zM339 601q-59 0 -92.5 -23.5t-47.5 -79t-14 -153.5t14 -153.5
t47.5 -79t92.5 -23.5q60 0 93.5 23.5t47.5 79t14 153.5t-14 153.5t-47.5 79t-93.5 23.5zM449 880q28 0 28 -29v-57q0 -28 -28 -28h-40q-29 0 -29 28v57q0 29 29 29h40zM269 880q28 0 28 -29v-57q0 -28 -28 -28h-41q-28 0 -28 28v57q0 29 28 29h41z" />
    <glyph glyph-name="uni04E7" unicode="&#x4e7;" horiz-adv-x="583" 
d="M292 503q89 0 142.5 -25t77 -82t23.5 -151t-23.5 -150.5t-77 -82t-142.5 -25.5t-143 25.5t-78 82t-24 150.5t24 151t78 82t143 25zM292 411q-45 0 -70.5 -14.5t-36.5 -50.5t-11 -101t11 -101t36.5 -50t70.5 -14q44 0 69.5 14t36 50t10.5 101t-10.5 101t-36 50.5
t-69.5 14.5zM400 698q28 0 28 -29v-57q0 -28 -28 -28h-40q-28 0 -28 28v57q0 29 28 29h40zM220 698q27 0 27 -29v-57q0 -28 -27 -28h-41q-28 0 -28 28v57q0 29 28 29h41z" />
    <glyph glyph-name="uni04E8" unicode="&#x4e8;" horiz-adv-x="673" 
d="M90 305v77h483v-77h-483zM333 703q79 0 134 -17.5t88.5 -58.5t48.5 -110t15 -172q0 -102 -15 -171.5t-48.5 -110.5t-88.5 -58.5t-134 -17.5t-134 17.5t-89 58.5t-49 110.5t-15 171.5q0 103 15 172t49 110t89 58.5t134 17.5zM333 601q-59 0 -93 -23.5t-48 -79t-14 -153.5
t14 -153.5t48 -79t93 -23.5t93 23.5t48 79t14 153.5t-14 153.5t-48 79t-93 23.5z" />
    <glyph glyph-name="uni04E9" unicode="&#x4e9;" 
d="M116 222v62h343v-62h-343zM290 503q90 0 143.5 -25t77 -82t23.5 -151t-23.5 -150.5t-77 -82t-143.5 -25.5q-88 0 -141.5 25.5t-77.5 82t-24 150.5t24 151t77.5 82t141.5 25zM290 411q-44 0 -69.5 -14.5t-36.5 -50.5t-11 -101t11 -101t36.5 -50t69.5 -14q45 0 71 14
t36.5 50t10.5 101t-10.5 101t-36.5 50.5t-71 14.5z" />
    <glyph glyph-name="uni04EA" unicode="&#x4ea;" horiz-adv-x="673" 
d="M90 305v77h483v-77h-483zM333 703q79 0 134 -17.5t88.5 -58.5t48.5 -110t15 -172q0 -102 -15 -171.5t-48.5 -110.5t-88.5 -58.5t-134 -17.5t-134 17.5t-89 58.5t-49 110.5t-15 171.5q0 103 15 172t49 110t89 58.5t134 17.5zM333 601q-59 0 -93 -23.5t-48 -79t-14 -153.5
t14 -153.5t48 -79t93 -23.5t93 23.5t48 79t14 153.5t-14 153.5t-48 79t-93 23.5zM443 880q28 0 28 -29v-57q0 -28 -28 -28h-40q-29 0 -29 28v57q0 29 29 29h40zM263 880q28 0 28 -29v-57q0 -28 -28 -28h-41q-28 0 -28 28v57q0 29 28 29h41z" />
    <glyph glyph-name="uni04EB" unicode="&#x4eb;" 
d="M116 222v62h343v-62h-343zM290 503q90 0 143.5 -25t77 -82t23.5 -151t-23.5 -150.5t-77 -82t-143.5 -25.5q-88 0 -141.5 25.5t-77.5 82t-24 150.5t24 151t77.5 82t141.5 25zM290 411q-44 0 -69.5 -14.5t-36.5 -50.5t-11 -101t11 -101t36.5 -50t69.5 -14q45 0 71 14
t36.5 50t10.5 101t-10.5 101t-36.5 50.5t-71 14.5zM398 698q28 0 28 -29v-57q0 -28 -28 -28h-40q-29 0 -29 28v57q0 29 29 29h40zM218 698q28 0 28 -29v-57q0 -28 -28 -28h-41q-28 0 -28 28v57q0 29 28 29h41z" />
    <glyph glyph-name="uni04EC" unicode="&#x4ec;" horiz-adv-x="586" 
d="M244 702q107 0 170 -34.5t90.5 -112.5t27.5 -210t-27.5 -210t-90.5 -112.5t-170 -34.5q-71 0 -117.5 6t-90.5 20l11 93q43 -6 87 -8t110 -2q61 0 96 22.5t49.5 76.5t13.5 149q1 95 -13.5 149t-49.5 76.5t-96 22.5q-42 0 -73 -1t-58.5 -2t-59.5 -4l-11 94q30 8 58.5 12.5
t63 7t80.5 2.5zM500 406v-88l-386 1v87h386zM360 880q28 0 28 -29v-57q0 -28 -28 -28h-40q-29 0 -29 28v57q0 29 29 29h40zM180 880q28 0 28 -29v-57q0 -28 -28 -28h-41q-28 0 -28 28v57q0 29 28 29h41z" />
    <glyph glyph-name="uni04ED" unicode="&#x4ed;" horiz-adv-x="523" 
d="M220 499q94 0 150 -24.5t80.5 -80t24.5 -151.5q0 -93 -24.5 -149.5t-80.5 -80.5t-150 -24q-60 0 -102.5 5.5t-82.5 17.5l11 80q39 -3 78 -4.5t96 -1.5q52 0 81 12.5t40.5 46.5t11.5 98t-12 99t-41 48t-80 13q-53 0 -90 -1t-79 -2l-11 78q41 13 83 17t97 4zM446 288v-77
h-342v77h342zM367 698q28 0 28 -29v-57q0 -28 -28 -28h-40q-28 0 -28 28v57q0 29 28 29h40zM187 698q27 0 27 -29v-57q0 -28 -27 -28h-41q-28 0 -28 28v57q0 29 28 29h41z" />
    <glyph glyph-name="uni04EE" unicode="&#x4ee;" 
d="M574 690l-176 -515q-17 -52 -38 -92t-51 -64t-76 -28q-21 -2 -48.5 0t-54.5 6t-47 8l14 89q47 -3 76 -3t46 7t28.5 24.5t24.5 49.5l23 67l17 45l134 406h128zM142 690l121 -380q5 -15 21 -15h45l27 -97h-113q-34 0 -52.5 16t-27.5 45l-150 431h129zM437 862v-80h-290v80
h290z" />
    <glyph glyph-name="uni04EF" unicode="&#x4ef;" horiz-adv-x="552" 
d="M538 491l-184 -506q-12 -36 -29.5 -66.5t-40.5 -55t-53 -40.5q-40 -24 -88 -27.5t-100 4.5l10 81q38 -1 70 3t56 19q20 13 36.5 37t27.5 52l26 61q9 22 17 50.5t15 49.5l108 338h129zM143 491l108 -338q5 -17 9 -34.5t8 -34.5h25l-40 -84h-31q-14 0 -25 8t-16 22
l-168 461h130zM417 680v-80h-290v80h290z" />
    <glyph glyph-name="uni04F0" unicode="&#x4f0;" 
d="M574 690l-176 -515q-17 -52 -38 -92t-51 -64t-76 -28q-21 -2 -48.5 0t-54.5 6t-47 8l14 89q47 -3 76 -3t46 7t28.5 24.5t24.5 49.5l23 67l17 45l134 406h128zM142 690l121 -380q5 -15 21 -15h45l27 -97h-113q-34 0 -52.5 16t-27.5 45l-150 431h129zM402 880q28 0 28 -29
v-57q0 -28 -28 -28h-40q-29 0 -29 28v57q0 29 29 29h40zM222 880q28 0 28 -29v-57q0 -28 -28 -28h-41q-28 0 -28 28v57q0 29 28 29h41z" />
    <glyph glyph-name="uni04F1" unicode="&#x4f1;" horiz-adv-x="552" 
d="M538 491l-184 -506q-12 -36 -29.5 -66.5t-40.5 -55t-53 -40.5q-40 -24 -88 -27.5t-100 4.5l10 81q38 -1 70 3t56 19q20 13 36.5 37t27.5 52l26 61q9 22 17 50.5t15 49.5l108 338h129zM143 491l108 -338q5 -17 9 -34.5t8 -34.5h25l-40 -84h-31q-14 0 -25 8t-16 22
l-168 461h130zM381 698q28 0 28 -29v-57q0 -28 -28 -28h-40q-28 0 -28 28v57q0 29 28 29h40zM201 698q27 0 27 -29v-57q0 -28 -27 -28h-41q-28 0 -28 28v57q0 29 28 29h41z" />
    <glyph glyph-name="uni04F2" unicode="&#x4f2;" 
d="M574 690l-176 -515q-17 -52 -38 -92t-51 -64t-76 -28q-21 -2 -48.5 0t-54.5 6t-47 8l14 89q47 -3 76 -3t46 7t28.5 24.5t24.5 49.5l23 67l17 45l134 406h128zM142 690l121 -380q5 -15 21 -15h45l27 -97h-113q-34 0 -52.5 16t-27.5 45l-150 431h129zM248 941l82 -54
l-145 -164l-51 39zM427 941l81 -54l-144 -164l-51 39z" />
    <glyph glyph-name="uni04F3" unicode="&#x4f3;" horiz-adv-x="552" 
d="M538 491l-184 -506q-12 -36 -29.5 -66.5t-40.5 -55t-53 -40.5q-40 -24 -88 -27.5t-100 4.5l10 81q38 -1 70 3t56 19q20 13 36.5 37t27.5 52l26 61q9 22 17 50.5t15 49.5l108 338h129zM143 491l108 -338q5 -17 9 -34.5t8 -34.5h25l-40 -84h-31q-14 0 -25 8t-16 22
l-168 461h130zM228 760l82 -54l-145 -164l-51 39zM407 760l81 -54l-144 -164l-51 39z" />
    <glyph glyph-name="uni04F4" unicode="&#x4f4;" horiz-adv-x="645" 
d="M178 690v-260q-1 -43 18.5 -62.5t67.5 -19.5q32 0 60.5 4.5t60.5 15t71 28.5l11 -82q-42 -25 -86.5 -41.5t-86 -24t-75.5 -7.5q-85 0 -125.5 40t-40.5 123v286h125zM567 690v-690h-125v690h125zM429 880q28 0 28 -29v-57q0 -28 -28 -28h-40q-29 0 -29 28v57q0 29 29 29
h40zM249 880q28 0 28 -29v-57q0 -28 -28 -28h-41q-28 0 -28 28v57q0 29 28 29h41z" />
    <glyph glyph-name="uni04F5" unicode="&#x4f5;" horiz-adv-x="553" 
d="M168 491v-182q0 -30 13.5 -42.5t43.5 -12.5q36 0 70.5 7t77.5 26l12 -84q-49 -21 -103 -31.5t-97 -10.5q-70 0 -103.5 27t-33.5 83v220h120zM483 491v-491h-121v491h121zM381 698q28 0 28 -29v-57q0 -28 -28 -28h-40q-28 0 -28 28v57q0 29 28 29h40zM201 698q27 0 27 -29
v-57q0 -28 -27 -28h-41q-28 0 -28 28v57q0 29 28 29h41z" />
    <glyph glyph-name="uni04F6" unicode="&#x4f6;" horiz-adv-x="507" 
d="M281 92v-92h-206v92h206zM281 7v-158h-88l-11 158h99zM211 692q76 0 154 -1t146 -8l-6 -92h-245q-30 0 -45.5 -15t-15.5 -46v-530h-124v554q0 62 38.5 100t97.5 38z" />
    <glyph glyph-name="uni04F7" unicode="&#x4f7;" horiz-adv-x="465" 
d="M257 88v-88h-148v88h148zM257 5v-147h-81l-10 147h91zM186 494q66 0 134.5 -1t127.5 -9l-5 -85h-204q-28 0 -40 -12t-12 -39v-348h-120v381q0 57 30 85t89 28z" />
    <glyph glyph-name="uni04F8" unicode="&#x4f8;" horiz-adv-x="878" 
d="M324 424q90 0 143 -20.5t75 -67.5t22 -129q0 -85 -22.5 -131.5t-70.5 -65t-127 -18.5q-60 0 -104 0.5t-81 2.5t-78 5l14 93q23 -1 84 -2t145 -1q46 0 70.5 9.5t34.5 36t10 74.5q0 46 -9 73t-33.5 38.5t-72.5 11.5h-230v91h230zM204 690v-690h-126v690h126zM799 690v-690
h-125v690h125zM547 880q28 0 28 -29v-57q0 -28 -28 -28h-40q-29 0 -29 28v57q0 29 29 29h40zM367 880q28 0 28 -29v-57q0 -28 -28 -28h-41q-28 0 -28 28v57q0 29 28 29h41z" />
    <glyph glyph-name="uni04F9" unicode="&#x4f9;" horiz-adv-x="756" 
d="M279 311q80 0 125.5 -14.5t65 -49t19.5 -94.5q0 -62 -19.5 -97t-61.5 -48.5t-109 -13.5q-52 0 -90 0.5t-69.5 2t-66.5 3.5l12 83q18 -1 70.5 -2t123.5 -1q34 0 52.5 6t27 23t8.5 48q0 43 -18 59.5t-70 16.5h-195v78h195zM187 491v-491h-118v491h118zM687 491v-491h-123
v491h123zM486 698q28 0 28 -29v-57q0 -28 -28 -28h-40q-28 0 -28 28v57q0 29 28 29h40zM306 698q27 0 27 -29v-57q0 -28 -27 -28h-41q-28 0 -28 28v57q0 29 28 29h41z" />
    <glyph glyph-name="uni04FA" unicode="&#x4fa;" horiz-adv-x="551" 
d="M125 -177v86q44 1 68 18.5t24 53.5v19h-105v94h202v-120q0 -48 -22.5 -83.5t-65 -53t-101.5 -14.5zM248 692q76 0 154 -1t146 -8l-6 -92h-245q-31 0 -46 -15t-15 -46v-530h-124v554q0 62 38.5 100t97.5 38zM-1 283v80h447v-80h-447z" />
    <glyph glyph-name="uni04FB" unicode="&#x4fb;" horiz-adv-x="474" 
d="M81 -168v78q41 0 63.5 16.5t22.5 56.5v17h-58v70h150v-90q0 -49 -21.5 -83t-61 -51t-95.5 -14zM195 494q65 0 133.5 -1t127.5 -9l-5 -85h-204q-27 0 -39.5 -12t-12.5 -39v-348h-119v381q0 57 29.5 85t89.5 28zM109 210v11h120v-11h-120z" />
    <glyph glyph-name="uni04FC" unicode="&#x4fc;" horiz-adv-x="633" 
d="M333 -173v83q56 2 86 18.5t41 43.5t11 57q0 43 -24.5 94.5t-63.5 110.5t-81 122l169 334h129l-169 -328q35 -54 64.5 -99.5t52 -85.5t35 -76.5t12.5 -73.5q0 -38 -11.5 -74.5t-40 -65.5t-80 -45.5t-130.5 -14.5zM16 0l188 356l-174 334h129l167 -334l-179 -356h-131z
M244 315v83h136v-83h-136z" />
    <glyph glyph-name="uni04FD" unicode="&#x4fd;" horiz-adv-x="525" 
d="M281 -168v69q44 0 69 13.5t35.5 37.5t10.5 55t-19.5 68.5t-51.5 81.5t-70 95l140 239h118l-142 -234q43 -58 73.5 -101.5t47 -79.5t16.5 -73t-10.5 -69.5t-35.5 -57t-69 -36.5t-112 -8zM13 0l156 252l-145 239h117l138 -239l-149 -252h-117zM205 220v66h121v-66h-121z
" />
    <glyph glyph-name="uni04FE" unicode="&#x4fe;" horiz-adv-x="613" 
d="M475 0l-179 356l166 334h130l-174 -334l188 -356h-131zM8 0l188 356l-174 334h129l166 -334l-179 -356h-130zM74 315v81h465v-81h-465zM236 315v83h136v-83h-136z" />
    <glyph glyph-name="uni04FF" unicode="&#x4ff;" horiz-adv-x="556" 
d="M499 289v-69h-442v69h442zM527 491l-147 -239l158 -252h-126l-151 252l140 239h126zM156 491l140 -239l-152 -252h-126l158 252l-146 239h126zM345 295v-81h-133v81h133z" />
    <glyph glyph-name="glyph88" horiz-adv-x="925" 
d="M570 691q93 0 165 -1t146 -6l-6 -93h-249q-27 0 -43.5 -16t-16.5 -44v-374q0 -29 15 -43.5t45 -14.5h249l6 -93q-74 -6 -152 -7t-155 -1q-57 0 -91 37t-34 94v412q0 19 8 39t19 30h-10q-11 -8 -23.5 -23.5t-24.5 -34.5l-295 -552h-129l313 568q19 35 40.5 59t51 38
t71.5 20t100 6zM480 301v-94h-317l6 94h311zM461 406h376v-89l-376 -1v90z" />
    <glyph glyph-name="glyph89" horiz-adv-x="875" 
d="M611 503q119 0 170.5 -41.5t52.5 -122.5q1 -45 -14 -75.5t-47 -45.5t-85 -15h-269v75h237q36 0 48 17t11 45q0 40 -22.5 56.5t-76.5 16.5q-47 0 -73 -13t-36.5 -47t-10.5 -98q0 -68 13 -105t42.5 -50.5t81.5 -13.5q36 0 84 3t94 8l11 -77q-26 -11 -61.5 -18t-72.5 -10.5
t-70 -3.5q-89 0 -143 26.5t-78.5 83.5t-24.5 147q0 97 24.5 153.5t77 80.5t137.5 24zM443 301l-1 -74h-224q-30 -1 -42.5 -16t-12.5 -41v-27q0 -30 16 -45t49 -15q28 0 60.5 10.5t66 32t59.5 52.5l3 -67q-10 -15 -29.5 -35.5t-47.5 -40.5t-64.5 -32.5t-80.5 -12.5
t-78.5 15.5t-54.5 46t-20 75.5v52q0 58 38 90t105 32h258zM313 503q59 0 99.5 -15.5t61 -52.5t20.5 -102v-97h-122v98q0 39 -18 56.5t-68 17.5q-38 0 -95 -3t-114 -8l-12 83q35 7 79 12t88.5 8t80.5 3z" />
    <glyph glyph-name="slash.frac" horiz-adv-x="160" 
d="M333 690l-427 -690h-80l428 690h79z" />
    <glyph glyph-name="zero.numr" horiz-adv-x="414" 
d="M208 674q57 0 92 -21t51 -68t16 -125q0 -77 -16.5 -124t-52 -68t-92.5 -21q-56 0 -91.5 21t-51.5 68t-16 124q0 78 16.5 125t52 68t92.5 21zM206 601q-40 0 -53.5 -30t-13.5 -111q0 -80 13.5 -110t53.5 -30q28 0 43 13t20.5 43.5t5.5 83.5q0 54 -5.5 85t-20.5 43.5
t-43 12.5z" />
    <glyph glyph-name="one.numr" horiz-adv-x="302" 
d="M229 667v-410h-93v287q0 11 0.5 22t2.5 23l-105 -25l-11 62l113 41h93z" />
    <glyph glyph-name="two.numr" horiz-adv-x="419" 
d="M200 673q53 0 88 -8t52.5 -29.5t17.5 -63.5q0 -30 -19.5 -62.5t-57.5 -68.5l-111 -107q17 3 31 3.5t32 0.5l140 -2l-1 -79h-321v49q0 11 3 20.5t11 17.5l111 106q25 24 42 43t26.5 36t10.5 31q2 23 -15 29t-47 6q-32 0 -61.5 -1.5t-71.5 -4.5l-4 70q47 10 84 12t60 2z
" />
    <glyph glyph-name="three.numr" horiz-adv-x="408" 
d="M198 674q82 0 115 -20.5t33 -74.5q0 -43 -15 -70t-58 -35v-2q48 -7 66 -31.5t19 -70.5q1 -65 -34.5 -93.5t-120.5 -28.5q-39 0 -79 3.5t-75 8.5l5 68q25 -1 45.5 -2.5t39.5 -1.5h39q49 0 66 12t17 46q0 16 -5 28t-20 19t-45 7l-85 1v62l85 2q30 1 43.5 8.5t17 20
t3.5 25.5q0 26 -15 34.5t-58 8.5q-32 0 -64.5 -1t-56.5 -2l-4 66q36 6 71 9.5t70 3.5z" />
    <glyph glyph-name="four.numr" horiz-adv-x="429" 
d="M153 668h91l-105 -234q-5 -11 -1 -16.5t14 -5.5h234v-64l-44 -8l-264 -1q-25 0 -38 21t-2 45zM342 586v-329h-86v262l13 67h73z" />
    <glyph glyph-name="five.numr" horiz-adv-x="386" 
d="M315 666l-3 -71h-173l-5 -77l56 -6q53 -3 84 -18t45 -42.5t14 -68.5q0 -34 -12 -65t-43.5 -51t-88.5 -20q-19 0 -43.5 1.5t-50 4.5t-49.5 8l8 69q29 -3 60 -6t53 -3q32 0 47.5 7t21 20.5t5.5 32.5q1 28 -9.5 40.5t-35 16.5t-65.5 6l-53 4q-11 2 -17.5 10t-5.5 19l10 189
h250z" />
    <glyph glyph-name="six.numr" horiz-adv-x="417" 
d="M228 674q11 0 28 -0.5t37.5 -2.5t38.5 -8l-5 -62l-44 2t-51 1q-27 0 -43 -5t-25 -20t-12.5 -46.5t-3.5 -84.5q0 -47 3.5 -76t17 -41.5t43.5 -12.5q26 0 38.5 8.5t16.5 24.5t4 39q0 37 -12 50.5t-44 13.5q-18 0 -33.5 -4.5t-32 -15t-40.5 -30.5l-2 43q30 41 59 58t73 17
q67 0 94.5 -28.5t27.5 -101.5q0 -47 -12.5 -79.5t-45.5 -49t-93 -16.5t-93.5 18t-47 62t-13.5 125q0 71 11.5 115.5t33 67.5t53.5 31t74 8z" />
    <glyph glyph-name="seven.numr" horiz-adv-x="378" 
d="M301 665q21 0 30.5 -12t2.5 -31l-126 -365h-93l104 297q4 9 7.5 18t8.5 17h-193l-4 76h263z" />
    <glyph glyph-name="eight.numr" horiz-adv-x="435" 
d="M218 674q57 0 89 -11.5t45.5 -35.5t13.5 -63q0 -37 -15 -63t-47 -32v-2q41 -4 56.5 -34.5t15.5 -75.5q0 -38 -14.5 -62.5t-48.5 -36t-95 -11.5q-89 0 -123.5 26t-34.5 84q0 45 15.5 75.5t56.5 34.5v2q-32 6 -47 32t-15 63q0 58 32 84t116 26zM219 434q-28 0 -43 -5.5
t-20.5 -19t-5.5 -37.5q0 -31 14 -44t55 -13q40 0 53 13t13 44q0 25 -5.5 38.5t-19.5 18.5t-41 5zM219 609q-36 0 -50 -10.5t-14 -41.5q0 -21 5.5 -33t19.5 -17t39 -5q26 0 38.5 5t17.5 17t5 33q0 31 -12.5 41.5t-48.5 10.5z" />
    <glyph glyph-name="nine.numr" horiz-adv-x="416" 
d="M192 247q-10 0 -29.5 0.5t-41.5 3.5t-40 8l5 62q22 -1 47 -2t55 -1q26 0 42 5t25 20.5t12.5 46.5t3.5 83q0 49 -3 77.5t-16 40.5t-44 12q-37 0 -47.5 -18.5t-10.5 -52.5q0 -37 11.5 -50.5t43.5 -13.5q18 0 33.5 4t32.5 15t39 30l2 -43q-29 -40 -58 -57.5t-74 -17.5
q-64 0 -92.5 31t-28.5 102q0 44 13.5 76t46.5 49t90 17q62 0 95 -17t46 -61.5t13 -125.5q0 -72 -11 -116t-32.5 -67t-53.5 -31.5t-74 -8.5z" />
    <glyph glyph-name="zero.dnom" horiz-adv-x="418" 
d="M208 416q57 0 92 -21t51 -68t16 -125q0 -77 -16.5 -124t-52 -68t-92.5 -21q-56 0 -91.5 21t-51.5 68t-16 124q0 78 16.5 125t52 68t92.5 21zM206 343q-40 0 -53.5 -30t-13.5 -111q0 -80 13.5 -110t53.5 -30q28 0 43 13t20.5 43.5t5.5 83.5q0 54 -5.5 85t-20.5 43.5
t-43 12.5z" />
    <glyph glyph-name="one.dnom" horiz-adv-x="306" 
d="M229 410v-410h-93v287q0 11 0.5 22t2.5 23l-105 -25l-11 62l113 41h93z" />
    <glyph glyph-name="two.dnom" horiz-adv-x="423" 
d="M200 416q53 0 88 -8t52.5 -29.5t17.5 -63.5q0 -30 -19.5 -62.5t-57.5 -68.5l-111 -107q17 3 31 3.5t32 0.5l140 -2l-1 -79h-321v49q0 11 3 20.5t11 17.5l111 106q25 24 42 43t26.5 36t10.5 31q2 23 -15 29t-47 6q-32 0 -61.5 -1.5t-71.5 -4.5l-4 70q47 10 84 12t60 2z
" />
    <glyph glyph-name="three.dnom" horiz-adv-x="412" 
d="M198 418q82 0 115 -20.5t33 -74.5q0 -43 -15 -70t-58 -35v-2q48 -7 66 -31.5t19 -70.5q1 -65 -34.5 -93.5t-120.5 -28.5q-39 0 -79 3.5t-75 8.5l5 68q25 -1 45.5 -2.5t39.5 -1.5h39q49 0 66 12t17 46q0 16 -5 28t-20 19t-45 7l-85 1v62l85 2q30 1 43.5 8.5t17 20
t3.5 25.5q0 26 -15 34.5t-58 8.5q-32 0 -64.5 -1t-56.5 -2l-4 66q36 6 71 9.5t70 3.5z" />
    <glyph glyph-name="four.dnom" horiz-adv-x="433" 
d="M153 411h91l-105 -234q-5 -11 -1 -16.5t14 -5.5h234v-64l-44 -8l-264 -1q-25 0 -38 21t-2 45zM342 329v-329h-86v262l13 67h73z" />
    <glyph glyph-name="five.dnom" horiz-adv-x="390" 
d="M315 408l-3 -71h-173l-5 -77l56 -6q53 -3 84 -18t45 -42.5t14 -68.5q0 -34 -12 -65t-43.5 -51t-88.5 -20q-19 0 -43.5 1.5t-50 4.5t-49.5 8l8 69q29 -3 60 -6t53 -3q32 0 47.5 7t21 20.5t5.5 32.5q1 28 -9.5 40.5t-35 16.5t-65.5 6l-53 4q-11 2 -17.5 10t-5.5 19l10 189
h250z" />
    <glyph glyph-name="six.dnom" horiz-adv-x="420" 
d="M228 416q11 0 28 -0.5t37.5 -2.5t38.5 -8l-5 -62l-44 2t-51 1q-27 0 -43 -5t-25 -20t-12.5 -46.5t-3.5 -84.5q0 -47 3.5 -76t17 -41.5t43.5 -12.5q26 0 38.5 8.5t16.5 24.5t4 39q0 37 -12 50.5t-44 13.5q-18 0 -33.5 -4.5t-32 -15t-40.5 -30.5l-2 43q30 41 59 58t73 17
q67 0 94.5 -28.5t27.5 -101.5q0 -47 -12.5 -79.5t-45.5 -49t-93 -16.5t-93.5 18t-47 62t-13.5 125q0 71 11.5 115.5t33 67.5t53.5 31t74 8z" />
    <glyph glyph-name="seven.dnom" horiz-adv-x="382" 
d="M301 408q21 0 30.5 -12t2.5 -31l-126 -365h-93l104 297q4 9 7.5 18t8.5 17h-193l-4 76h263z" />
    <glyph glyph-name="eight.dnom" horiz-adv-x="438" 
d="M218 416q57 0 89 -11.5t45.5 -35.5t13.5 -63q0 -37 -15 -63t-47 -32v-2q41 -4 56.5 -34.5t15.5 -75.5q0 -38 -14.5 -62.5t-48.5 -36t-95 -11.5q-89 0 -123.5 26t-34.5 84q0 45 15.5 75.5t56.5 34.5v2q-32 6 -47 32t-15 63q0 58 32 84t116 26zM219 176q-28 0 -43 -5.5
t-20.5 -19t-5.5 -37.5q0 -31 14 -44t55 -13q40 0 53 13t13 44q0 25 -5.5 38.5t-19.5 18.5t-41 5zM219 351q-36 0 -50 -10.5t-14 -41.5q0 -21 5.5 -33t19.5 -17t39 -5q26 0 38.5 5t17.5 17t5 33q0 31 -12.5 41.5t-48.5 10.5z" />
    <glyph glyph-name="nine.dnom" horiz-adv-x="420" 
d="M192 -11q-10 0 -29.5 0.5t-41.5 3.5t-40 8l5 62q22 -1 47 -2t55 -1q26 0 42 5t25 20.5t12.5 46.5t3.5 83q0 49 -3 77.5t-16 40.5t-44 12q-37 0 -47.5 -18.5t-10.5 -52.5q0 -37 11.5 -50.5t43.5 -13.5q18 0 33.5 4t32.5 15t39 30l2 -43q-29 -40 -58 -57.5t-74 -17.5
q-64 0 -92.5 31t-28.5 102q0 44 13.5 76t46.5 49t90 17q62 0 95 -17t46 -61.5t13 -125.5q0 -72 -11 -116t-32.5 -67t-53.5 -31.5t-74 -8.5z" />
    <glyph glyph-name="glyph120" horiz-adv-x="337" 
d="M236 736l58 -86l-211 -115l-37 53z" />
    <glyph glyph-name="glyph121" horiz-adv-x="242" 
d="M85 -40q46 5 74.5 1.5t42.5 -18.5t13 -48q-2 -46 -27 -77.5t-66 -44.5t-94 -7l16 55q39 -1 64.5 15.5t26.5 48.5q1 16 -11 20.5t-51 5.5z" />
    <glyph glyph-name="glyph122" horiz-adv-x="418" 
d="M320 701q28 0 28 -29v-57q0 -28 -28 -28h-40q-28 0 -28 28v57q0 29 28 29h40zM140 701q27 0 27 -29v-57q0 -28 -27 -28h-41q-28 0 -28 28v57q0 29 28 29h41z" />
    <glyph glyph-name="glyph123" horiz-adv-x="230" 
d="M134 696q35 0 35 -34v-54q0 -35 -35 -35h-38q-35 0 -35 35v54q0 34 35 34h38z" />
    <glyph glyph-name="glyph125" horiz-adv-x="482" 
d="M160 745l82 -54l-145 -164l-51 39zM339 745l81 -54l-144 -164l-51 39z" />
    <glyph glyph-name="glyph126" horiz-adv-x="400" 
d="M345 684v-80h-290v80h290z" />
    <glyph glyph-name="glyph130" horiz-adv-x="302" 
d="M229 769v-410h-93v287q0 11 0.5 22t2.5 23l-105 -25l-11 62l113 41h93z" />
    <glyph glyph-name="glyph131" horiz-adv-x="419" 
d="M200 775q53 0 88 -8t52.5 -29.5t17.5 -63.5q0 -30 -19.5 -62.5t-57.5 -68.5l-111 -107q17 3 31 3.5t32 0.5l140 -2l-1 -79h-321v49q0 11 3 20.5t11 17.5l111 106q25 24 42 43t26.5 36t10.5 31q2 23 -15 29t-47 6q-32 0 -61.5 -1.5t-71.5 -4.5l-4 70q47 10 84 12t60 2z
" />
    <glyph glyph-name="glyph132" horiz-adv-x="408" 
d="M198 777q82 0 115 -20.5t33 -74.5q0 -43 -15 -70t-58 -35v-2q48 -7 66 -31.5t19 -70.5q1 -65 -34.5 -93.5t-120.5 -28.5q-39 0 -79 3.5t-75 8.5l5 68q25 -1 45.5 -2.5t39.5 -1.5h39q49 0 66 12t17 46q0 16 -5 28t-20 19t-45 7l-85 1v62l85 2q30 1 43.5 8.5t17 20
t3.5 25.5q0 26 -15 34.5t-58 8.5q-32 0 -64.5 -1t-56.5 -2l-4 66q36 6 71 9.5t70 3.5z" />
    <glyph glyph-name="glyph133" horiz-adv-x="265" 
d="M193 491v-491h-121v491h121z" />
    <glyph glyph-name="i.locl" horiz-adv-x="265" 
d="M193 491v-491h-121v491h121zM152 701q35 0 35 -34v-54q0 -35 -35 -35h-38q-35 0 -35 35v54q0 34 35 34h38z" />
    <glyph glyph-name="uni0499.locl" horiz-adv-x="507" 
d="M212 500q85 0 136 -10t74 -38.5t23 -83.5q0 -54 -23.5 -81.5t-81.5 -32.5v-3q67 -5 95 -36.5t28 -93.5q0 -54 -23 -82.5t-71.5 -38.5t-125.5 -10q-50 0 -103.5 3.5t-104.5 13.5l8 85q43 -4 94 -6.5t98 -2.5q61 0 82.5 12.5t21.5 50.5q0 25 -9.5 38.5t-32 19t-61.5 5.5
l-132 1v78l131 2q36 0 55.5 5.5t27.5 18t8 36.5t-9.5 36t-33 16t-66.5 4t-85.5 -2.5t-74.5 -6.5l-9 85q45 12 89 15t75 3zM204 -42q46 5 74.5 1.5t42.5 -18.5t13 -48q-2 -46 -27 -77.5t-66 -44.5t-94 -7l16 55q39 -1 64.5 15.5t26.5 48.5q1 16 -11 20.5t-51 5.5z" />
    <glyph glyph-name="glyph358" horiz-adv-x="414" 
d="M208 775q57 0 92 -21t51 -68t16 -125q0 -77 -16.5 -124t-52 -68t-92.5 -21q-56 0 -91.5 21t-51.5 68t-16 124q0 78 16.5 125t52 68t92.5 21zM206 702q-40 0 -53.5 -30t-13.5 -111q0 -80 13.5 -110t53.5 -30q28 0 43 13t20.5 43.5t5.5 83.5q0 54 -5.5 85t-20.5 43.5
t-43 12.5z" />
    <glyph glyph-name="glyph359" horiz-adv-x="429" 
d="M153 770h91l-105 -234q-5 -11 -1 -16.5t14 -5.5h234v-64l-44 -8l-264 -1q-25 0 -38 21t-2 45zM342 688v-329h-86v262l13 67h73z" />
    <glyph glyph-name="glyph360" horiz-adv-x="386" 
d="M315 767l-3 -71h-173l-5 -77l56 -6q53 -3 84 -18t45 -42.5t14 -68.5q0 -34 -12 -65t-43.5 -51t-88.5 -20q-19 0 -43.5 1.5t-50 4.5t-49.5 8l8 69q29 -3 60 -6t53 -3q32 0 47.5 7t21 20.5t5.5 32.5q1 28 -9.5 40.5t-35 16.5t-65.5 6l-53 4q-11 2 -17.5 10t-5.5 19l10 189
h250z" />
    <glyph glyph-name="glyph361" horiz-adv-x="417" 
d="M228 775q11 0 28 -0.5t37.5 -2.5t38.5 -8l-5 -62l-44 2t-51 1q-27 0 -43 -5t-25 -20t-12.5 -46.5t-3.5 -84.5q0 -47 3.5 -76t17 -41.5t43.5 -12.5q26 0 38.5 8.5t16.5 24.5t4 39q0 37 -12 50.5t-44 13.5q-18 0 -33.5 -4.5t-32 -15t-40.5 -30.5l-2 43q30 41 59 58t73 17
q67 0 94.5 -28.5t27.5 -101.5q0 -47 -12.5 -79.5t-45.5 -49t-93 -16.5t-93.5 18t-47 62t-13.5 125q0 71 11.5 115.5t33 67.5t53.5 31t74 8z" />
    <glyph glyph-name="glyph362" horiz-adv-x="378" 
d="M301 767q21 0 30.5 -12t2.5 -31l-126 -365h-93l104 297q4 9 7.5 18t8.5 17h-193l-4 76h263z" />
    <glyph glyph-name="glyph363" horiz-adv-x="435" 
d="M218 775q57 0 89 -11.5t45.5 -35.5t13.5 -63q0 -37 -15 -63t-47 -32v-2q41 -4 56.5 -34.5t15.5 -75.5q0 -38 -14.5 -62.5t-48.5 -36t-95 -11.5q-89 0 -123.5 26t-34.5 84q0 45 15.5 75.5t56.5 34.5v2q-32 6 -47 32t-15 63q0 58 32 84t116 26zM219 535q-28 0 -43 -5.5
t-20.5 -19t-5.5 -37.5q0 -31 14 -44t55 -13q40 0 53 13t13 44q0 25 -5.5 38.5t-19.5 18.5t-41 5zM219 710q-36 0 -50 -10.5t-14 -41.5q0 -21 5.5 -33t19.5 -17t39 -5q26 0 38.5 5t17.5 17t5 33q0 31 -12.5 41.5t-48.5 10.5z" />
    <glyph glyph-name="glyph364" horiz-adv-x="416" 
d="M192 348q-10 0 -29.5 0.5t-41.5 3.5t-40 8l5 62q22 -1 47 -2t55 -1q26 0 42 5t25 20.5t12.5 46.5t3.5 83q0 49 -3 77.5t-16 40.5t-44 12q-37 0 -47.5 -18.5t-10.5 -52.5q0 -37 11.5 -50.5t43.5 -13.5q18 0 33.5 4t32.5 15t39 30l2 -43q-29 -40 -58 -57.5t-74 -17.5
q-64 0 -92.5 31t-28.5 102q0 44 13.5 76t46.5 49t90 17q62 0 95 -17t46 -61.5t13 -125.5q0 -72 -11 -116t-32.5 -67t-53.5 -31.5t-74 -8.5z" />
    <glyph glyph-name="glyph365" horiz-adv-x="0" 
d="M-109 701q28 0 28 -29v-57q0 -28 -28 -28h-40q-29 0 -29 28v57q0 29 29 29h40zM-289 701q28 0 28 -29v-57q0 -28 -28 -28h-41q-28 0 -28 28v57q0 29 28 29h41z" />
    <glyph glyph-name="glyph366" horiz-adv-x="0" 
d="M268 647h83q5 -41 -13 -74.5t-55 -54t-89 -20.5t-89 20.5t-55.5 54t-14.5 74.5h83q-2 -44 18 -65.5t58 -21.5q37 0 56.5 21.5t17.5 65.5z" />
    </font>
</defs>
</svg>
