<?xml version="1.0" standalone="no"?>
<!DOCTYPE svg PUBLIC "-//W3C//DTD SVG 20010904//EN"
 "http://www.w3.org/TR/2001/REC-SVG-20010904/DTD/svg10.dtd">
<svg version="1.0" xmlns="http://www.w3.org/2000/svg"
 width="212.000000pt" height="212.000000pt" viewBox="0 0 212.000000 212.000000"
 preserveAspectRatio="xMidYMid meet">
<metadata>
Created by potrace 1.14, written by Peter Selinger 2001-2017
</metadata>
<g transform="translate(0.000000,212.000000) scale(0.100000,-0.100000)"
fill="#000000" stroke="none">
<path d="M0 1055 l0 -1045 1060 0 1060 0 0 1045 0 1045 -1060 0 -1060 0 0
-1045z m1251 752 l54 -12 3 -273 2 -273 -77 3 -78 3 -3 200 c-3 229 -1 225
-88 225 -91 0 -84 24 -84 -296 0 -219 3 -286 13 -289 6 -3 80 -8 162 -13 l150
-7 3 -431 2 -431 -40 -12 c-115 -34 -328 -33 -413 2 l-34 15 -7 125 c-4 69 -4
189 0 265 l7 140 35 6 c19 3 55 3 78 -1 l44 -6 0 -202 c0 -168 3 -205 15 -215
15 -13 128 -10 141 3 12 11 16 551 5 567 -8 12 -41 16 -166 18 l-155 3 0 435
0 434 26 10 c77 30 287 33 405 7z m-526 -109 c4 -24 5 -132 3 -241 -2 -162 -6
-199 -18 -207 -8 -6 -44 -9 -80 -8 l-65 3 -5 84 -5 83 -22 -18 c-34 -29 -91
-132 -114 -204 -12 -38 -22 -107 -25 -165 -10 -179 33 -329 120 -423 l41 -45
5 89 5 89 73 3 c71 3 72 2 83 -25 12 -31 9 -457 -3 -469 -13 -12 -167 87 -240
155 -160 148 -234 315 -245 551 -12 256 59 442 232 616 67 67 215 174 241 174
7 0 16 -19 19 -42z m767 -5 c133 -70 270 -225 327 -371 33 -83 33 -83 -56 -80
l-78 3 -31 58 c-17 32 -40 67 -51 79 l-21 20 -5 -38 c-12 -78 -19 -486 -12
-644 l8 -161 23 22 c26 24 95 154 112 209 6 19 12 51 14 70 3 33 1 35 -32 40
l-35 5 -3 76 -3 76 65 7 c35 3 90 3 122 0 l57 -7 -6 -121 c-11 -235 -102 -420
-283 -575 -59 -51 -144 -105 -181 -116 l-23 -6 0 745 c0 538 3 746 11 746 6 0
42 -16 81 -37z"/>
</g>
</svg>
